<svg xmlns="http://www.w3.org/2000/svg" width="120" height="120" viewBox="0 0 120 120"><defs><style>.a{fill:#fff;opacity:0;}.b{fill:none;stroke:#fff;stroke-linecap:round;stroke-linejoin:round;stroke-width:3px;}</style></defs><g transform="translate(-34 -125)"><path class="a" d="M0,0H120V120H0Z" transform="translate(34 125)"/><g transform="translate(49.429 133.571)"><g transform="translate(53.485 58.951)"><path class="b" d="M325.461,447.492a4.279,4.279,0,0,1-.93-.1,3.69,3.69,0,0,1-2.323-1.655l-6.2-10.956-5.92,5.74a2.773,2.773,0,0,1-3,.736,2.683,2.683,0,0,1-1.579-2.542V405.337a1.748,1.748,0,0,1,1.745-1.752,1.767,1.767,0,0,1,1.037.337l26.952,19.643a3.457,3.457,0,0,1,1.458,3.827,3.548,3.548,0,0,1-3.5,2.495h-6.182l5.5,9.531a4.1,4.1,0,0,1-1.6,5.449l-3.044,1.921A4.516,4.516,0,0,1,325.461,447.492Z" transform="translate(-305.5 -403.585)"/></g><g transform="translate(0)"><path class="b" d="M331.893,476.76h0l-.19-.011a44.884,44.884,0,1,1,44.973-26.963" transform="translate(-290.6 -387.163)"/><g transform="translate(13.457 13.435)"><path class="b" d="M323.258,453.631h0l-.129-.007a31.418,31.418,0,1,1,31.482-18.879" transform="translate(-294.349 -390.906)"/></g><g transform="translate(26.938 26.894)"><path class="b" d="M314.606,430.463h0l-.076-.007A17.934,17.934,0,1,1,332.5,419.683" transform="translate(-298.104 -394.655)"/></g></g></g></g></svg>