<svg xmlns="http://www.w3.org/2000/svg" width="100" height="100" viewBox="0 0 100 100"><defs><style>.a{fill:#fff;stroke:#707070;}.b{fill:#f40000;}.c{fill:#fff151;opacity:0;}.d,.f{fill:none;}.d{stroke:#fff;stroke-linecap:round;stroke-linejoin:round;stroke-width:2px;}.e{stroke:none;}</style></defs><g transform="translate(-939 -128)"><g class="a" transform="translate(939 128)"><circle class="e" cx="50" cy="50" r="50"/><circle class="f" cx="50" cy="50" r="49.5"/></g><path class="b" d="M38.889,0A38.889,38.889,0,1,1,0,38.889,38.889,38.889,0,0,1,38.889,0Z" transform="translate(950.111 139.111)"/><g transform="translate(960.429 149.429)"><rect class="c" width="57.143" height="57.143" transform="translate(0)"/><g transform="translate(6.633 10.819)"><path class="d" d="M457.431,222.015h8.507l7.429,27.727h20.722" transform="translate(-457.431 -222.015)"/><path class="d" d="M472.034,243.154a2.7,2.7,0,1,1-2.7-2.7A2.7,2.7,0,0,1,472.034,243.154Z" transform="translate(-451.609 -210.348)"/><path class="d" d="M482.664,243.154a2.7,2.7,0,1,1-2.7-2.7A2.7,2.7,0,0,1,482.664,243.154Z" transform="translate(-444.883 -210.348)"/><path class="d" d="M463.706,225.987h32.2l-5.791,15.91H467.969" transform="translate(-453.461 -219.502)"/></g></g></g></svg>