<svg xmlns="http://www.w3.org/2000/svg" width="120" height="120" viewBox="0 0 120 120"><defs><style>.a{fill:#fff151;opacity:0;}.b{fill:none;stroke:#f4f7fb;stroke-linecap:round;stroke-linejoin:round;stroke-width:3px;}</style></defs><g transform="translate(5383 -10318)"><rect class="a" width="120" height="120" transform="translate(-5383 10318)"/><path class="b" d="M208.4,606.5h85.456m-76.474,0V573.517M238.456,606.5V573.517M284.871,606.5V573.517m-66.887-41.691h66.294l9.555,22.286a9.4,9.4,0,0,1,.151,1.683,9.54,9.54,0,0,1-17.869,4.653,9.541,9.541,0,0,1-16.659,0,9.541,9.541,0,0,1-16.659,0,9.541,9.541,0,0,1-16.659,0,9.538,9.538,0,0,1-17.866-4.653,9.4,9.4,0,0,1,.147-1.683l9.566-22.286ZM226,559.7l4.238-26.718M242.6,559.7q.7-13.356,1.413-26.718M259.2,559.7q-.7-13.356-1.412-26.718m18.01,26.718-4.234-26.718m-40.114,57.442V584.2m24.411,10.656,19.272-19.536m-12.47,24.922,13.035-13.217" transform="translate(-5573.458 9809.611)"/></g></svg>