<svg xmlns="http://www.w3.org/2000/svg" width="43" height="43" viewBox="0 0 43 43"><defs><style>.a{fill:#f40000;stroke:#f40000;stroke-width:1.5px;}.b{fill:#fff;opacity:0;}.c,.e{fill:none;}.c{stroke:#fff;stroke-linecap:round;stroke-linejoin:round;}.d{stroke:none;}</style></defs><g transform="translate(-795 -268)"><g class="a" transform="translate(795 268)"><circle class="d" cx="21.5" cy="21.5" r="21.5"/><circle class="e" cx="21.5" cy="21.5" r="20.75"/></g><g transform="translate(797.866 270.867)"><rect class="b" width="38.222" height="38.222" transform="translate(0)"/><g transform="translate(14.334 1.911)"><path class="c" d="M73.515,399.019c-.013-.072-.018-.144-.03-.214a33.184,33.184,0,0,0-8.848,1.1l-.391.093m-.038,1.393a29.562,29.562,0,0,1,9.393.875" transform="translate(-63.982 -384.524)"/><path class="c" d="M73.845,405.327a15.687,15.687,0,0,1-.438,2.955,12.19,12.19,0,0,0-.208,6.953c.484,1.22,1.448,4.156.045,4.84v0h0a9.853,9.853,0,0,1-4.184.651h-.133a9.87,9.87,0,0,1-4.184-.651c-1.4-.679-.44-3.614.039-4.845a12.16,12.16,0,0,0-.206-6.953,16.3,16.3,0,0,1-.476-3.863l.039-1.445a17.053,17.053,0,0,1,1.151-5.322c.156-.378.305-.705.452-1.013a15.856,15.856,0,0,0,1.292-3.823c.1-.462.6-2.794.21-3.339a.446.446,0,0,0-.1-.1.537.537,0,0,1-.235-.4,1.484,1.484,0,0,1,.488-.987.447.447,0,0,0-.015-.615.569.569,0,0,1-.177-.527c.052-.423.273-.492.954-.492h1.68c.675,0,.893.069.948.493a.569.569,0,0,1-.178.527.444.444,0,0,0-.015.615,1.5,1.5,0,0,1,.49.986.571.571,0,0,1-.26.422.434.434,0,0,0-.105.109c-.369.546.17,3.035.235,3.32a15.775,15.775,0,0,0,1.291,3.815c.148.316.3.638.456,1.019a16.343,16.343,0,0,1,1.056,4.306Z" transform="translate(-64.011 -386.35)"/></g></g></g></svg>