<svg xmlns="http://www.w3.org/2000/svg" width="32" height="32" viewBox="0 0 32 32"><defs><style>.a,.c{fill:#fff;}.a{opacity:0;}.b{fill:none;stroke:#fff;stroke-miterlimit:22.926;}</style></defs><g transform="translate(-46 -419)"><rect class="a" width="32" height="32" transform="translate(46 419)"/><g transform="translate(51.689 423.622)"><path class="b" d="M445.571,392.089H462.9a.93.93,0,0,1,.906.907l.908,16.277a.9.9,0,0,1-.9.907H444.664a.9.9,0,0,1-.907-.887.073.073,0,0,1,0-.02L444.664,393A.927.927,0,0,1,445.571,392.089Z" transform="translate(-443.757 -387.423)"/><path class="c" d="M450.836,394.224a1.12,1.12,0,1,1-1.121,1.12h0A1.121,1.121,0,0,1,450.836,394.224Zm7.862,0a1.12,1.12,0,1,1-1.121,1.12h0A1.121,1.121,0,0,1,458.7,394.224Z" transform="translate(-444.292 -387.615)"/><path class="b" d="M458.7,394.119v-3.342a3.826,3.826,0,0,0-3.815-3.814h0a3.824,3.824,0,0,0-3.814,3.814v3.342" transform="translate(-444.414 -386.963)"/></g></g></svg>