<svg xmlns="http://www.w3.org/2000/svg" width="32" height="32" viewBox="0 0 32 32"><defs><style>.a{fill:#fff;opacity:0;}.b{fill:none;stroke:#fff;stroke-miterlimit:10;}</style></defs><g transform="translate(-46 -369)"><rect class="a" width="32" height="32" transform="translate(46 369)"/><g transform="translate(-992.189 -581.867)"><path class="b" d="M1060.953,973.3v6.661h-17.764V958.867h17.764v8.327" transform="translate(0 -1.335)"/><line class="b" y2="3.331" transform="translate(1047.075 955.867)"/><line class="b" y2="3.331" transform="translate(1050.406 955.867)"/><line class="b" y2="3.331" transform="translate(1053.737 955.867)"/><line class="b" y2="3.331" transform="translate(1057.068 955.867)"/><g transform="translate(1053.91 963.162)"><path class="b" d="M1073.3,969.332l-10.206,10.206-.589,2.159,2.159-.589,10.206-10.206a1.111,1.111,0,0,0,0-1.57h0A1.11,1.11,0,0,0,1073.3,969.332Z" transform="translate(-1062.501 -969.007)"/><line class="b" x2="1.57" y2="1.57" transform="translate(9.028 2.092)"/></g><path class="b" d="M1054.74,978.969a5.551,5.551,0,1,1,5.551-5.551" transform="translate(-2.669 -5.338)"/><path class="b" d="M1055.189,976.533l1.665,1.665,3.331-3.331" transform="translate(-5.339 -8.453)"/></g></g></svg>