<svg xmlns="http://www.w3.org/2000/svg" width="32" height="32" viewBox="0 0 32 32"><defs><style>.a,.c,.e{fill:none;}.a,.c{stroke:#fff;stroke-width:1.2px;}.b{fill:#fff;opacity:0;}.c{stroke-miterlimit:10;}.d{stroke:none;}</style></defs><g transform="translate(-1289 -13)"><g class="a" transform="translate(1289 13)"><rect class="d" width="32" height="32" rx="16"/><rect class="e" x="0.6" y="0.6" width="30.8" height="30.8" rx="15.4"/></g><g transform="translate(1291.526 15.526)"><g transform="translate(0)"><rect class="b" width="26.947" height="26.947" transform="translate(0)"/><g transform="translate(5.895 4.211)"><g transform="translate(0 10.648)"><path class="c" d="M169.129,302.017H157.4a1.9,1.9,0,0,1-1.891-1.9,1.874,1.874,0,0,1,.047-.413c.07-.324.131-.643.19-.953.537-2.816,1-5.247,7.518-5.247s6.979,2.431,7.517,5.246c.059.311.12.631.193.962a1.9,1.9,0,0,1-1.443,2.266,1.933,1.933,0,0,1-.4.045Z" transform="translate(-155.51 -293.5)"/></g><circle class="c" cx="4.579" cy="4.579" r="4.579" transform="translate(3.177)"/></g></g></g></g></svg>