<svg xmlns="http://www.w3.org/2000/svg" width="55" height="55" viewBox="0 0 55 55"><defs><style>.a{fill:#fff;opacity:0;}.b{fill:none;stroke:#f40000;stroke-linecap:round;stroke-linejoin:round;}</style></defs><g transform="translate(-0.486)"><rect class="a" width="55" height="55" transform="translate(0.486)"/><g transform="translate(3.762 11.911)"><g transform="translate(0)"><path class="b" d="M220.259,401.629v-7.3a2.914,2.914,0,0,0-2.9-2.9h-.317c-.707,0-1.281.6-2.807,2.192-2.6,2.711-7.428,7.758-12.213,7.758h-8.973a3.61,3.61,0,0,0-3.586,3.594v4.1a3.612,3.612,0,0,0,3.594,3.586h8.965c4.783,0,9.616,5.046,12.213,7.757,1.527,1.6,2.1,2.192,2.808,2.192h.319a2.912,2.912,0,0,0,2.9-2.9v-7.291a5.89,5.89,0,0,0,0-10.789Z" transform="translate(-189.462 -391.43)"/><line class="b" y2="10.315" transform="translate(9.273 10.432)"/><line class="b" y2="10.315" transform="translate(30.791 10.432)"/></g><g transform="translate(38.413 9.052)"><line class="b" x2="8.73" transform="translate(0 6.537)"/><line class="b" y1="3.646" x2="6.316"/><line class="b" x2="6.316" y2="3.646" transform="translate(0 9.428)"/></g></g></g></svg>