<svg xmlns="http://www.w3.org/2000/svg" width="55" height="55" viewBox="0 0 55 55"><defs><style>.a{fill:#fff;opacity:0;}.b{fill:none;stroke:#f40000;stroke-linecap:round;stroke-linejoin:round;}</style></defs><g transform="translate(0.057)"><rect class="a" width="55" height="55" transform="translate(-0.057)"/><g transform="translate(20.693 3.928)"><path class="b" d="M76.963,399.1c-.017-.1-.025-.2-.041-.294a45.478,45.478,0,0,0-12.125,1.5l-.536.127m-.052,1.909a40.515,40.515,0,0,1,12.873,1.2" transform="translate(-63.898 -379.235)"/><path class="b" d="M77.487,412.357a21.5,21.5,0,0,1-.6,4.05,16.706,16.706,0,0,0-.284,9.529c.663,1.672,1.985,5.695.061,6.633v.006h0a13.5,13.5,0,0,1-5.734.893h-.182a13.527,13.527,0,0,1-5.734-.893c-1.923-.93-.6-4.953.053-6.639a16.665,16.665,0,0,0-.283-9.529,22.342,22.342,0,0,1-.652-5.294l.053-1.98a23.37,23.37,0,0,1,1.578-7.293c.214-.519.418-.966.619-1.388a21.731,21.731,0,0,0,1.771-5.239c.14-.633.816-3.83.288-4.576a.611.611,0,0,0-.141-.143.736.736,0,0,1-.322-.552,2.034,2.034,0,0,1,.669-1.353.612.612,0,0,0-.02-.842.78.78,0,0,1-.242-.723c.071-.58.374-.674,1.307-.674h2.3c.926,0,1.224.094,1.3.676a.779.779,0,0,1-.244.723.609.609,0,0,0-.02.842,2.053,2.053,0,0,1,.671,1.351.783.783,0,0,1-.357.578.594.594,0,0,0-.145.149c-.506.748.233,4.16.322,4.549a21.62,21.62,0,0,0,1.769,5.228c.2.434.409.874.625,1.4a22.4,22.4,0,0,1,1.447,5.9Z" transform="translate(-64.011 -386.35)"/></g></g></svg>