<svg xmlns="http://www.w3.org/2000/svg" width="55" height="55" viewBox="0 0 55 55"><defs><style>.a{fill:#fff;opacity:0;}.b,.c,.d{fill:none;stroke:#f40000;}.c,.d{stroke-linecap:round;}.c{stroke-linejoin:round;}.d{stroke-width:0.5px;}.e,.f{fill:#f40000;}.f{fill-rule:evenodd;}</style></defs><g transform="translate(-216 -64)"><rect class="a" width="55" height="55" transform="translate(216 64)"/><g transform="translate(232.5 68.125)"><path class="b" d="M7.438,0A7.438,7.438,0,1,1,0,7.438,7.438,7.438,0,0,1,7.438,0Z" transform="translate(3.792)"/><path class="c" d="M177.254,439.641h-1.933a7.433,7.433,0,0,1-14.3,0h-2.281a1.757,1.757,0,0,0-1.8,1.706V475.21a1.757,1.757,0,0,0,1.8,1.706h18.513a1.757,1.757,0,0,0,1.8-1.706V441.347A1.757,1.757,0,0,0,177.254,439.641Z" transform="translate(-156.941 -430.166)"/><path class="d" d="M.382,0H15.688a.382.382,0,0,1,.382.382V7.7a.382.382,0,0,1-.382.382H.382A.382.382,0,0,1,0,7.7V.382A.382.382,0,0,1,.382,0Z" transform="translate(3.011 17.116)"/><g transform="translate(13.848 19.426)"><path class="e" d="M166.089,448.95a2.516,2.516,0,0,1-1.225-.474l.332-.435a1.958,1.958,0,0,0,.912.412v-.939c-.755-.182-1.108-.446-1.108-.981v-.01c0-.516.44-.865,1.089-.912v-.278h.449v.287a2.084,2.084,0,0,1,.975.364l-.29.451a1.855,1.855,0,0,0-.7-.308v.909c.788.182,1.126.474,1.126.986v.01c0,.521-.446.871-1.106.923v.474h-.449Zm.019-2.856c-.325.024-.5.187-.5.4v.011c0,.2.1.325.5.435Zm.923,1.972v-.01c0-.21-.108-.339-.512-.449v.867C166.846,448.449,167.031,448.295,167.031,448.066Z" transform="translate(-164.864 -445.334)"/></g><path class="d" d="M.382,0H15.688a.382.382,0,0,1,.382.382V7.7a.382.382,0,0,1-.382.382H.382A.382.382,0,0,1,0,7.7V.382A.382.382,0,0,1,.382,0Z" transform="translate(3.011 26.714)"/><g transform="translate(13.848 29.023)"><path class="e" d="M166.089,454.443a2.536,2.536,0,0,1-1.225-.475l.332-.435a1.96,1.96,0,0,0,.912.412v-.938c-.755-.182-1.108-.444-1.108-.981v-.009c0-.517.44-.867,1.089-.914v-.278h.449v.287a2.082,2.082,0,0,1,.975.364l-.29.451a1.825,1.825,0,0,0-.7-.306v.907c.788.182,1.126.474,1.126.986v.01c0,.521-.446.87-1.106.923v.474h-.449Zm.019-2.858c-.325.024-.5.187-.5.4v.011c0,.2.1.325.5.435Zm.923,1.971v-.01c0-.21-.108-.339-.512-.449v.867C166.846,453.94,167.031,453.786,167.031,453.557Z" transform="translate(-164.864 -450.825)"/></g><path class="d" d="M.382,0H15.688a.382.382,0,0,1,.382.382V7.7a.382.382,0,0,1-.382.382H.382A.382.382,0,0,1,0,7.7V.382A.382.382,0,0,1,.382,0Z" transform="translate(3.011 36.311)"/><g transform="translate(13.848 38.621)"><path class="e" d="M166.089,459.932a2.515,2.515,0,0,1-1.225-.474l.332-.435a1.939,1.939,0,0,0,.912.411V458.5c-.755-.182-1.108-.446-1.108-.981v-.01c0-.516.44-.865,1.089-.912v-.278h.449v.287a2.083,2.083,0,0,1,.975.363l-.29.451a1.853,1.853,0,0,0-.7-.308v.909c.788.182,1.126.474,1.126.986v.01c0,.521-.446.871-1.106.923v.474h-.449Zm.019-2.856c-.325.025-.5.187-.5.4v.01c0,.2.1.325.5.435Zm.923,1.972v-.01c0-.21-.108-.339-.512-.449v.865C166.846,459.431,167.031,459.277,167.031,459.048Z" transform="translate(-164.864 -456.316)"/></g><path class="f" d="M163.961,445.781a3.44,3.44,0,0,0,1.2-.171c.274-.156.194-.76.119-1a2.827,2.827,0,0,1-.171-1.044,17.5,17.5,0,0,1,.218-1.942c.016-.126.047-.253-.023-.281a4.152,4.152,0,0,0-.131-1.692c.075,0,.047-.175.031-.3-.028-.222-.224-.744-.392-1.311a7,7,0,0,1-.232-.919,5.946,5.946,0,0,1-.028-.743.162.162,0,0,0,.068-.15,2.318,2.318,0,0,0-.107-.311.113.113,0,0,1,.037-.1.146.146,0,0,0,.021-.156c-.021-.065-.1-.084-.147-.094a3.492,3.492,0,0,0-.937,0c-.045.01-.124.03-.147.094a.146.146,0,0,0,.023.156.113.113,0,0,1,.037.1,2.324,2.324,0,0,0-.107.311.165.165,0,0,0,.066.15,5.635,5.635,0,0,1-.028.743,7,7,0,0,1-.231.919c-.168.566-.364,1.089-.393,1.311-.016.121-.042.3.033.3a4.151,4.151,0,0,0-.131,1.692c-.07.028-.038.156-.023.281a17.507,17.507,0,0,1,.218,1.942,2.825,2.825,0,0,1-.171,1.044c-.075.236-.156.841.117,1a3.447,3.447,0,0,0,1.2.171" transform="translate(-152.733 -433.227)"/></g></g></svg>