<svg xmlns="http://www.w3.org/2000/svg" width="55" height="55" viewBox="0 0 55 55"><defs><style>.a{fill:#f40000;opacity:0.83;}.b{fill:none;stroke:#fff;stroke-linecap:round;stroke-linejoin:round;}</style></defs><g transform="translate(0.486)"><rect class="a" width="55" height="55" transform="translate(-0.486)"/><g transform="translate(10.243 6.286)"><g transform="translate(0 31.53)"><path class="b" d="M132.345,410.745c-1.856-2.439-4.9-2.385-8.442-2.33l-1.122.019c-3.569.049-5.723.082-6.268,1.46-.3.751-.5,1.43-.6,1.743H113.2c-.889-.514-3.935-2.272-5.458-3.041a3.722,3.722,0,0,0-4.194-.066,1.842,1.842,0,0,0-.088,3.126,3.017,3.017,0,0,0,.506.314c3.294,2.285,7.023,4.354,7.06,4.375a1.113,1.113,0,0,0,.533.13h12.554c.069,0,.14-.009.209-.017a1.888,1.888,0,0,1,1.381.6c1.186,1.061,1.738,1.534,1.738,1.534a1.042,1.042,0,0,0,.671.226h.009l8.478-.058c.492,0,.886-.3.882-.673a.527.527,0,0,0-.1-.3C137.35,417.736,133.982,412.895,132.345,410.745Z" transform="translate(-102.637 -407.915)"/><line class="b" x2="7.625" transform="translate(13.144 3.746)"/></g><g transform="translate(4.087)"><rect class="b" width="26.672" height="26.672"/><line class="b" y2="26.618" transform="translate(13.336 0.054)"/><line class="b" x2="12.549" transform="translate(14.123 10.164)"/></g></g></g></svg>