<svg xmlns="http://www.w3.org/2000/svg" width="100" height="100" viewBox="0 0 100 100"><defs><style>.a{fill:#fff;opacity:0;}.b{fill:none;stroke:#f40000;stroke-linecap:round;stroke-linejoin:round;stroke-width:1.5px;}</style></defs><rect class="a" width="100" height="100" transform="translate(0)"/><g transform="translate(19.506 11.429)"><g transform="translate(0 57.328)"><path class="b" d="M156.651,413.061c-3.374-4.434-8.917-4.337-15.349-4.237l-2.04.034c-6.489.089-10.406.148-11.4,2.654-.537,1.366-.917,2.6-1.083,3.169h-4.937c-1.617-.934-7.154-4.131-9.923-5.529a6.767,6.767,0,0,0-7.626-.12,3.349,3.349,0,0,0-.16,5.683,5.484,5.484,0,0,0,.92.571c5.989,4.154,12.769,7.917,12.837,7.954a2.024,2.024,0,0,0,.969.237h22.826c.126-.006.254-.017.38-.031a3.433,3.433,0,0,1,2.511,1.083c2.157,1.929,3.16,2.788,3.16,2.788a1.894,1.894,0,0,0,1.22.411h.017l15.414-.106c.894-.006,1.611-.554,1.6-1.223a.958.958,0,0,0-.183-.537C165.751,425.772,159.628,416.969,156.651,413.061Z" transform="translate(-102.637 -407.915)"/><line class="b" x2="13.863" transform="translate(23.898 6.811)"/></g><g transform="translate(7.43)"><rect class="b" width="48.495" height="48.495"/><line class="b" y2="48.396" transform="translate(24.247 0.099)"/><line class="b" x2="22.816" transform="translate(25.679 18.481)"/></g></g></svg>