<svg xmlns="http://www.w3.org/2000/svg" width="70" height="70" viewBox="0 0 70 70"><defs><style>.a{fill:#fff;opacity:0;}.b{fill:#f40000;}.c{fill:none;stroke:#f40000;stroke-linecap:round;stroke-linejoin:round;stroke-width:1.5px;}</style></defs><g transform="translate(-471.387 -576.471)"><rect class="a" width="70" height="70" transform="translate(471.387 576.471)"/><g transform="translate(476.388 599.525)"><path class="b" d="M486.349,600.386a1.927,1.927,0,0,1,1.532-.838,5.17,5.17,0,0,1,3.144.928,7.87,7.87,0,0,0-1.952-1.6,5.446,5.446,0,0,0-2.84-.782c-2.872-.028-6,1.374-8.122,1.39-2.5.02-2.622-1.916-2.432-2.978a12.489,12.489,0,0,1,3.05-5.626,7.265,7.265,0,0,1,3.032-2.272c.9-.226.818.466.706.56a.96.96,0,0,0-.456.114,1,1,0,0,0-.472.774c-.028.608.748.712,1.31-.554a1.015,1.015,0,0,0-.38-1.384,1.04,1.04,0,0,0-.346-.122,4.924,4.924,0,0,0-3.01.976c-2.2,1.418-5.134,4.566-5.21,8.064a2.838,2.838,0,0,0,2.538,3.112,2.618,2.618,0,0,0,.486.008c1.852,0,4.19-1.09,6.544-1.114A3.02,3.02,0,0,1,486.349,600.386Z" transform="translate(-473.888 -587.998)"/><path class="b" d="M480.465,589.522c-1.2-.31-3.2,1.752-4.05,3.43-.52,1.034-.75,2.336.174,2.676s2.5-1.356,2.866-1.85.974-1.482.974-1.482.186-.036.306-.064.32-.088.32-.088-.23.41-.434.828c-.244.494-.91,2.148.368,2.644,1.222.476,2.962-1.5,3.054-1.534,0,0-.522,1.344.284,1.552.882.23,1.848-.908,1.848-.908s-.2.854.484.934c1.23.144,3.41-3.02,3.41-3.02h-.434a10.037,10.037,0,0,1-1.642,1.728c-.534.3-.342-.23-.2-.466.186-.3,2.544-4.254,2.544-4.254h-1.248l-.146.228a.827.827,0,0,0-.686-.366c-1.25.08-2.74,2.084-3.4,2.968s-2.068,2.572-2.81,2.27c-.81-.33,0-1.836.53-2.72.582-.962,1.61-1.914,2.018-1.922.5-.008.3.448.3.448a.757.757,0,0,0-.646.3c-.19.242-.346.6-.168.79.294.31.678,0,.906-.356.718-1.1.2-1.68-.364-1.766-1.2-.182-2.3,1.362-3.136,1.934-.58.4-.822.366-.822.366S481.683,589.836,480.465,589.522Zm5.4,3.56a15.242,15.242,0,0,1,1.5-2.11c.642-.8.96-.868,1.152-.858a.2.2,0,0,1,.186.18s-1.394,2.436-1.9,3.132c-.164.228-.306.42-.434.564a1.413,1.413,0,0,1-.608.494.339.339,0,0,1-.238-.024c-.224-.136-.048-.648.346-1.376Zm-5.9-.8a11.738,11.738,0,0,1-.75,1.128c-.36.462-1.026,1.162-1.422,1.016-.618-.232.044-1.58.49-2.238s.512-.744.52-.762.026-.032.036-.012a1.387,1.387,0,0,0,.46.514,2.714,2.714,0,0,0,.642.3c.026.012.042.022.024.06Zm.52-1.03a5.889,5.889,0,0,1-.238.54.1.1,0,0,1-.122.05c-.1-.006-.854-.18-.85-.792.006-.6.84-1.178,1.168-.93.3.238.158.832.042,1.134Z" transform="translate(-471.814 -586.505)"/><path class="b" d="M485.12,589.574h-1.186l-.67,1.092h1.184Z" transform="translate(-464.511 -586.422)"/><path class="b" d="M491.924,593.778a.764.764,0,0,0,0,1.08.725.725,0,0,0,.538.228.766.766,0,0,0,0-1.532A.728.728,0,0,0,491.924,593.778Zm1.186.542a.649.649,0,0,1-.652.662.636.636,0,0,1-.462-.192.661.661,0,0,1-.192-.472.654.654,0,0,1,1.3-.1.761.761,0,0,1,0,.1Z" transform="translate(-456.075 -582.442)"/><path class="b" d="M491.927,593.726v.84h.144v-.332h.12a.339.339,0,0,1,.16.028c.054.028.08.094.08.19v.1l.006.008v.01h.138v-.012c-.008-.006-.008-.018-.01-.046a.593.593,0,0,1,0-.06v-.06a.267.267,0,0,0-.044-.132.2.2,0,0,0-.144-.08.282.282,0,0,0,.12-.046.174.174,0,0,0,.082-.164.2.2,0,0,0-.128-.212.589.589,0,0,0-.228-.028Zm.5.26a.139.139,0,0,1-.086.134.468.468,0,0,1-.14.016h-.128v-.306h.128a.369.369,0,0,1,.172.034.125.125,0,0,1,.054.118Z" transform="translate(-455.848 -582.272)"/><path class="b" d="M493.526,592.089a26.2,26.2,0,0,0-2.588,4.278,2.438,2.438,0,0,1-.446.134.513.513,0,0,1-.234.012l-.014-.012s1.194-2.242-.026-2.542c-1.178-.288-3.22,1.9-3.948,3.428-.5,1.046-.782,2.364.072,2.68.924.34,2.5-1.358,2.864-1.852a15.183,15.183,0,0,0,.834-1.314s.224-.012.346-.03a3.384,3.384,0,0,0,.348-.064s-.154.4-.32.914c-.308.956-.59,2.316.52,2.38.708.042,1.746-1.242,1.746-1.242s-.282,1.142.638,1.246c.676.074,1.664-.978,1.664-.978s-.214.908.472.988c.588.07,1.424-.624,2.11-1.388a15.16,15.16,0,0,0,1.322-1.744h-.434a7.952,7.952,0,0,1-1.64,1.86c-.554.322-.364-.2-.2-.466.186-.3,2.518-4.276,2.518-4.276h-1.246l-.2.316a.881.881,0,0,0-.684-.454c-.74.012-1.476.578-2.338,1.562a28.329,28.329,0,0,0-1.676,2.326s-.8,1.242-1.208,1.144c-.69-.166.584-2.738.584-2.738a14.523,14.523,0,0,0,1.534-1.146c.546-.46,1.172-1.1,1.75-1.682a19.994,19.994,0,0,0,1.73-2.056,4.612,4.612,0,0,1-.462.048,19.663,19.663,0,0,1-1.568,1.818,21.531,21.531,0,0,1-1.844,1.73,6.185,6.185,0,0,1-.746.536,27.518,27.518,0,0,1,2.322-3.78c1.45-1.984,3.482-3.826,3.322-2.952a3.935,3.935,0,0,1-.434,1.042q.243-.051.48-.126c.346-.726.47-1.324.208-1.5C497.59,587.483,494.884,590.395,493.526,592.089Zm-3.9,4.776a8.283,8.283,0,0,1-.664,1.016c-.36.464-1.02,1.16-1.416,1.012-.618-.23.064-1.588.51-2.246s.5-.7.508-.72.026-.032.038-.012a1.9,1.9,0,0,0,.434.526,2.58,2.58,0,0,0,.574.37c.018,0,.034.01.016.05Zm.28-.488c-.038.066-.066.068-.148.046a1.03,1.03,0,0,1-.73-.926c.006-.6.84-1.178,1.168-.93.3.234.158.828.042,1.13a5.441,5.441,0,0,1-.332.676Zm4.736,1.116a10.368,10.368,0,0,1,1.468-2.094c.688-.768.954-.8,1.146-.8a.2.2,0,0,1,.184.178.408.408,0,0,1-.038.086c-.226.4-1.374,2.366-1.828,2.99-.166.228-.3.434-.428.578-.266.308-.434.452-.594.488a.346.346,0,0,1-.24-.024c-.226-.144-.066-.684.33-1.41Z" transform="translate(-461.979 -587.913)"/><path class="b" d="M491.785,590.161c-.3.308-.608.662-.932,1.052a5.237,5.237,0,0,0,4.742-1.932,6.308,6.308,0,0,0,.88-1.27,7.821,7.821,0,0,1-1.432,1.184A5.382,5.382,0,0,1,491.785,590.161Z" transform="translate(-456.922 -587.985)"/><path class="b" d="M484.821,600.142c1.914-.026,3.74-2.17,4.36-3.938s-.112-2.248-.672-2.2a3.21,3.21,0,0,0-2.32,1.832,5.077,5.077,0,0,0-.6,1.98,6.145,6.145,0,0,1,.8-.714,3.543,3.543,0,0,1,.846-.492,4.224,4.224,0,0,1,.314-.918,1.808,1.808,0,0,1,.99-1.042c.868-.218.448,1.37-.19,2.406-.34.554-1.552,2.154-2.6,2.152s-1.242-1.014-1.02-1.96a11.115,11.115,0,0,1,2.048-4.326A13.8,13.8,0,0,1,490.9,588.9c.978-.558,1.378-.312,1.378-.312a8.506,8.506,0,0,0-1.964,1.7c-.68.89-1.086,1.89-.772,2.382.3.468,1.358.478,2.526-1.214,1.154-1.672.864-2.666.864-2.666a1.472,1.472,0,0,1,.23-.058,2.7,2.7,0,0,1,1.708.434c.728.378,1.426.982,2.382,1.476.292-.318.608-.656.948-.986-1.29-.634-2.27-1.536-3.536-1.626a4.438,4.438,0,0,0-1.972.328s-.336-.462-1.374-.312-4.236,1.49-6.96,5.872C481.9,597.892,483.057,600.166,484.821,600.142Zm7.454-9.818a4.752,4.752,0,0,1-1.264,1.762c-.6.54-.928.52-1.068.412-.372-.284.128-1.358.992-2.316a4.911,4.911,0,0,1,1.6-1.25A2.4,2.4,0,0,1,492.275,590.324Z" transform="translate(-464.826 -587.972)"/></g><path class="c" d="M507.626,596.71h-11.11v-9.592" transform="translate(25.128 10.647)"/><path class="c" d="M524.778,620.776h5.06a1.243,1.243,0,0,0,1.244-1.244V603.416a1.27,1.27,0,0,0-.092-.47L525.258,589a1.244,1.244,0,0,0-1.15-.77H516.34v-3.694a1.244,1.244,0,0,0-1.244-1.244h-38.4m17.53,37.482h19.032m-36.564,0H482.7m35.648,5.186a5.227,5.227,0,0,1,.55-10.41,5.69,5.69,0,0,1,5.292,5.958,5.237,5.237,0,0,1-5.842,4.448Zm-30.774,0a5.227,5.227,0,0,1,.55-10.41,5.69,5.69,0,0,1,5.292,5.958,5.237,5.237,0,0,1-5.842,4.448Z" transform="translate(5.305 6.823)"/></g></svg>