<svg xmlns="http://www.w3.org/2000/svg" width="70" height="70" viewBox="0 0 70 70"><defs><style>.a{fill:#fff;opacity:0;}.b{fill:none;stroke:#fff;stroke-linecap:round;stroke-linejoin:round;stroke-width:1.5px;}</style></defs><g transform="translate(5383 -10318)"><rect class="a" width="70" height="70" transform="translate(-5383 10318)"/><path class="b" d="M208.345,575.384h49.85m-44.61,0V556.146m12.294,19.238V556.146m27.076,19.238V556.146m-39.018-24.32h38.672l5.574,13a5.479,5.479,0,0,1,.088.982,5.565,5.565,0,0,1-10.424,2.714,5.565,5.565,0,0,1-9.718,0,5.565,5.565,0,0,1-9.718,0,5.565,5.565,0,0,1-9.718,0,5.564,5.564,0,0,1-10.422-2.714,5.486,5.486,0,0,1,.086-.982l5.58-13Zm4.674,16.262,2.472-15.586m7.212,15.586q.411-7.791.824-15.586m8.858,15.586q-.411-7.791-.824-15.586m10.506,15.586-2.47-15.586m-23.4,33.508v-3.63m14.24,6.216,11.242-11.4M240,571.738l7.6-7.71" transform="translate(-5580.88 9799.846)"/></g></svg>