<svg xmlns="http://www.w3.org/2000/svg" width="126" height="126" viewBox="0 0 126 126"><defs><style>.a{fill:#fff;stroke:#707070;}.b{fill:#f40000;}.c{fill:#fff151;opacity:0;}.d,.f{fill:none;}.d{stroke:#fff;stroke-miterlimit:10;stroke-width:2px;}.e{stroke:none;}</style></defs><g transform="translate(-618 -532)"><g class="a" transform="translate(618 532)"><circle class="e" cx="63" cy="63" r="63"/><circle class="f" cx="63" cy="63" r="62.5"/></g><path class="b" d="M49,0A49,49,0,1,1,0,49,49,49,0,0,1,49,0Z" transform="translate(632 546)"/><g transform="translate(474 127)"><g transform="translate(-91.689 -95.024)"><rect class="c" width="72" height="72" transform="translate(262.689 523.024)"/></g><g transform="translate(-659 -8.674)"><path class="d" d="M864.383,448.935a2.408,2.408,0,0,1,4.235,0L881.13,471.4l12.545,22.528a2.5,2.5,0,0,1-2.117,3.743H841.441a2.5,2.5,0,0,1-2.116-3.743L851.87,471.4Z"/><path class="d" d="M861,473.674h0a2,2,0,0,1-2-2v-12a2,2,0,0,1,2-2h0a2,2,0,0,1,2,2v12A2,2,0,0,1,861,473.674Z" transform="translate(5.5 4.167)"/><circle class="d" cx="3" cy="3" r="3" transform="translate(863.5 487.674)"/></g></g></g></svg>