<svg xmlns="http://www.w3.org/2000/svg" width="25.19" height="30.314" viewBox="0 0 25.19 30.314"><defs><style>.a{fill:#252525;}.a,.b{fill-rule:evenodd;}.b{fill:#f40000;}</style></defs><path class="a" d="M283.106-671.5l-.607,3.376a.946.946,0,0,1-1.781.247l-2.4-4.926a.946.946,0,0,0-.85-.531h-5.481a.946.946,0,0,1-.559-1.709l2.772-2.029a.946.946,0,0,0,.334-1.077l-.16-.455a.946.946,0,0,0-1.451-.45l-9.151,6.7a.946.946,0,0,0,.559,1.709h11.458a.946.946,0,0,1,.85.531l5.022,10.3a.946.946,0,0,0,1.781-.247l2.007-11.157a.946.946,0,0,0-1.041-1.107l-.479.056A.946.946,0,0,0,283.106-671.5Z" transform="translate(-263.38 689.595)"/><path class="b" d="M401.633-756.473l1.758-9.77a.936.936,0,0,0-1.474-.921l-8.011,5.863a.936.936,0,0,0,.057,1.549l.44.275h0a.934.934,0,0,0,.7.119c.3-.351,1.178-1.029,2.06-1.809a14.042,14.042,0,0,0,1.374-1.32,11.734,11.734,0,0,0,.841-1.239.331.331,0,0,1,.047-.329,4.634,4.634,0,0,1,.513-.416.232.232,0,0,0,.038-.205.3.3,0,0,1,.13-.288c.105-.087.262-.035.351-.005a6.326,6.326,0,0,1,.833.447,6.3,6.3,0,0,1,.767.553c.066.068.181.185.149.318a.3.3,0,0,1-.2.243.231.231,0,0,0-.168.125,4.676,4.676,0,0,1-.149.644.331.331,0,0,1-.276.186,11.742,11.742,0,0,0-.745,1.3,14.065,14.065,0,0,0-.585,1.814c-.314,1.135-.536,2.225-.722,2.644a.935.935,0,0,0,.414.579l.44.275A.936.936,0,0,0,401.633-756.473Z" transform="translate(-378.216 767.347)"/></svg>