<svg xmlns="http://www.w3.org/2000/svg" width="100" height="100" viewBox="0 0 100 100"><defs><style>.a{fill:#fff;stroke:#707070;}.b{fill:#f40000;}.c{fill:#fff151;opacity:0;}.d,.f{fill:none;}.d{stroke:#fff;stroke-linejoin:round;stroke-width:2px;}.e{stroke:none;}</style></defs><g transform="translate(-144 -98)"><g transform="translate(144 98)"><g class="a"><circle class="e" cx="50" cy="50" r="50"/><circle class="f" cx="50" cy="50" r="49.5"/></g><path class="b" d="M38.889,0A38.889,38.889,0,1,1,0,38.889,38.889,38.889,0,0,1,38.889,0Z" transform="translate(11.111 11.111)"/></g><g transform="translate(165.429 119.429)"><rect class="c" width="57.143" height="57.143"/><g transform="translate(10.317 7.143)"><path class="d" d="M311.045,129.013c-1.754,2.49-13.453,7.594-18.045,7.594v18.035c0,8.479,17.032,17.755,18.035,18.022,1-.268,18.035-10.192,18.035-17.073V136.607C324.06,136.607,312.8,131.5,311.045,129.013Z" transform="translate(-293 -129.013)"/><line class="d" y2="11.39" transform="translate(18.035 20.87)"/><path class="d" d="M322.781,146v11.39l-11.39,4.746L300,157.39V146" transform="translate(-293.356 -129.876)"/><path class="d" d="M322.781,145.7l-11.39,4.746L300,145.7v-.949L311.39,140l11.39,4.746Z" transform="translate(-293.356 -129.571)"/><line class="d" x1="12.277" y1="5.326" transform="translate(12.369 12.79)"/></g></g></g></svg>