<svg xmlns="http://www.w3.org/2000/svg" width="126" height="126" viewBox="0 0 126 126"><defs><style>.a{fill:#fff;stroke:#707070;}.b{fill:#f40000;}.c{fill:#fff151;opacity:0;}.d,.f{fill:none;}.d{stroke:#fff;stroke-linejoin:round;stroke-width:2px;}.e{stroke:none;}</style></defs><g transform="translate(-779 -532)"><g class="a" transform="translate(779 532)"><circle class="e" cx="63" cy="63" r="63"/><circle class="f" cx="63" cy="63" r="62.5"/></g><path class="b" d="M49,0A49,49,0,1,1,0,49,49,49,0,0,1,49,0Z" transform="translate(793 546)"/><g transform="translate(458 19)"><g transform="translate(85.311 16.976)"><rect class="c" width="72" height="72" transform="translate(262.689 523.024)"/></g><g transform="translate(-3423.505 -1203.085)"><path class="d" d="M3831.5,1761.346l-6.261-6.261-17.739,17.739-17.739-17.739-6.261,6.261,17.739,17.739-17.739,17.739,6.261,6.261,17.739-17.739,17.739,17.739,6.261-6.261-17.739-17.739Z"/></g></g></g></svg>