<svg xmlns="http://www.w3.org/2000/svg" width="126" height="126" viewBox="0 0 126 126"><defs><style>.a,.c{fill:#fff;}.a{stroke:#707070;}.b{fill:#f40000;}.c{opacity:0;}.d,.f{fill:none;}.d{stroke:#fff;stroke-linecap:round;stroke-linejoin:round;stroke-width:2px;}.e{stroke:none;}</style></defs><g transform="translate(-618 -370)"><g class="a" transform="translate(618 370)"><circle class="e" cx="63" cy="63" r="63"/><circle class="f" cx="63" cy="63" r="62.5"/></g><path class="b" d="M49,0A49,49,0,1,1,0,49,49,49,0,0,1,49,0Z" transform="translate(632 384)"/><g transform="translate(5477 3611)"><rect class="c" width="72" height="72" transform="translate(-4832 -3213)"/><g transform="translate(-4839.12 -3213.12)"><g transform="translate(9.12 9.12)"><path class="d" d="M9.12,18.852,77.307,9.12,34.787,63.306,32.4,39.829,32.29,35.57l-.356-.255-.044-.436L28.255,32.66Zm66.175-8.569L32.094,35.23" transform="translate(-9.12 -9.12)"/></g></g></g></g></svg>