<svg xmlns="http://www.w3.org/2000/svg" width="43" height="43" viewBox="0 0 43 43"><defs><style>.a{fill:#ed441b;}.b{fill:rgba(255,241,81,0);}.c{fill:#fff;opacity:0;}.d{fill:none;stroke:#fff;stroke-linecap:round;stroke-linejoin:round;}</style></defs><g transform="translate(16522 7592)"><path class="a" d="M21.5,0A21.5,21.5,0,1,1,0,21.5,21.5,21.5,0,0,1,21.5,0Z" transform="translate(-16522 -7592)"/><rect class="b" width="35.833" height="35.833" transform="translate(-16518.416 -7588.417)"/><g transform="translate(-16518.416 -7588.417)"><rect class="c" width="35.833" height="35.833" transform="translate(0 0)"/><path class="d" d="M208.311,555.815h26.794m-23.978,0v-10.6m6.608,10.6v-10.6m14.553,10.6v-10.6m-20.972-13.394H232.1l3,7.16a3.094,3.094,0,0,1,.047.541,3.029,3.029,0,0,1-2.992,3.065,2.978,2.978,0,0,1-2.611-1.571,2.957,2.957,0,0,1-5.223,0,2.957,2.957,0,0,1-5.223,0,2.957,2.957,0,0,1-5.223,0,2.978,2.978,0,0,1-2.611,1.571,3.028,3.028,0,0,1-2.991-3.065,3.094,3.094,0,0,1,.046-.541l3-7.16Zm2.512,8.956,1.329-8.584m3.876,8.584q.221-4.291.443-8.584m4.761,8.584q-.221-4.291-.443-8.584m5.647,8.584-1.328-8.584m-12.578,18.455v-2m7.654,3.423,6.043-6.276m-3.91,8.007,4.087-4.246" transform="translate(-203.792 -525.904)"/></g></g></svg>