<svg xmlns="http://www.w3.org/2000/svg" width="174.726" height="65" viewBox="0 0 174.726 65"><defs><style>.a,.c{fill:#f40000;}.b,.d{fill:#404041;}.b,.c{fill-rule:evenodd;}</style></defs><g transform="translate(-82 -45)"><g transform="translate(165.525 92.026)"><path class="a" d="M693.052-482.246a7.338,7.338,0,0,0-4.463-1.315,2.728,2.728,0,0,0-2.177,1.188c-.679-1.191-2.018-1.924-4.089-1.909-3.345.036-6.666,1.588-9.294,1.585a4.034,4.034,0,0,1-4.3-4.432c.111-4.966,4.285-9.437,7.4-11.449a6.975,6.975,0,0,1,4.273-1.387,1.442,1.442,0,0,1,1.032,2.138c-.8,1.8-1.9,1.644-1.86.787a1.423,1.423,0,0,1,.669-1.1,1.336,1.336,0,0,1,.649-.16c.157-.134.279-1.117-1-.794a10.32,10.32,0,0,0-4.3,3.224c-1.476,1.633-3.77,4.732-4.339,7.983-.265,1.51-.091,4.257,3.457,4.23,3.008-.024,7.454-2.014,11.534-1.973a7.736,7.736,0,0,1,4.034,1.115A11.164,11.164,0,0,1,693.052-482.246Z" transform="translate(-668.733 499.984)"/><path class="a" d="M723.6-465.647c-.758.42-.484-.328-.278-.662.263-.424,3.611-6.041,3.611-6.041l-1.772,0-.206.326a1.184,1.184,0,0,0-.976-.522c-1.776.115-3.892,2.962-4.824,4.217s-2.937,3.651-3.991,3.223c-1.151-.467-.005-2.606.754-3.861.825-1.366,2.286-2.719,2.863-2.729.71-.013.431.635.431.635a1.072,1.072,0,0,0-.917.42c-.272.344-.5.848-.24,1.121.418.443.963-.005,1.288-.506,1.016-1.561.275-2.385-.52-2.506-1.7-.258-3.262,1.934-4.451,2.747-.824.565-1.168.52-1.168.52s1.432-2.822-.3-3.267c-1.709-.441-4.552,2.487-5.753,4.87-.739,1.471-1.066,3.319.247,3.8s3.546-1.928,4.072-2.629,1.385-2.1,1.385-2.1.263-.05.435-.09.452-.12.452-.12-.324.581-.617,1.174c-.346.7-1.29,3.051.525,3.756,1.733.675,4.2-2.126,4.335-2.18,0,0-.737,1.91.4,2.205,1.252.324,2.626-1.289,2.626-1.289s-.29,1.213.687,1.327c1.747.2,4.843-4.29,4.843-4.29h-.617A14.259,14.259,0,0,1,723.6-465.647Zm-11.4-2.962a16.336,16.336,0,0,1-1.065,1.6c-.512.657-1.458,1.651-2.02,1.441-.879-.328.061-2.243.7-3.177s.727-1.055.744-1.08.035-.046.051-.017a1.931,1.931,0,0,0,.652.727,3.855,3.855,0,0,0,.912.422C712.2-468.678,712.225-468.664,712.2-468.609Zm.737-1.46a7.821,7.821,0,0,1-.341.766.149.149,0,0,1-.171.07c-.136-.007-1.214-.255-1.206-1.123.007-.846,1.193-1.673,1.657-1.319C713.311-471.344,713.1-470.5,712.939-470.069Zm8.361,3.885a2.023,2.023,0,0,1-.863.7.469.469,0,0,1-.338-.036c-.323-.2-.075-.925.486-1.957a21.5,21.5,0,0,1,2.124-3c.911-1.14,1.362-1.232,1.637-1.22a.293.293,0,0,1,.264.255s-1.98,3.461-2.7,4.45C721.678-466.662,721.477-466.389,721.3-466.184Z" transform="translate(-700.643 476.836)"/><path class="a" d="M842.64-471.059l-1.685,0-.952,1.55,1.684,0Z" transform="translate(-813.391 475.555)"/><g transform="translate(50.571 15.801)"><path class="a" d="M996.044-397.975a1.051,1.051,0,0,0-.765-.318,1.029,1.029,0,0,0-.759.318,1.042,1.042,0,0,0-.32.765,1.05,1.05,0,0,0,.314.77,1.023,1.023,0,0,0,.763.321,1.028,1.028,0,0,0,.767-.32,1.052,1.052,0,0,0,.313-.768A1.041,1.041,0,0,0,996.044-397.975Zm-.107,1.438a.925.925,0,0,1-.659.27.9.9,0,0,1-.654-.271.933.933,0,0,1-.271-.673.9.9,0,0,1,.271-.659.9.9,0,0,1,.656-.275.9.9,0,0,1,.659.276.9.9,0,0,1,.268.66A.931.931,0,0,1,995.937-396.537Z" transform="translate(-994.201 398.293)"/><path class="a" d="M999.247-394.06c0-.027,0-.056,0-.085v-.084a.365.365,0,0,0-.063-.188.27.27,0,0,0-.2-.112.482.482,0,0,0,.171-.066.251.251,0,0,0,.116-.232.291.291,0,0,0-.183-.3.883.883,0,0,0-.324-.043l-.41,0,0,1.192h.2l0-.471h.168a.5.5,0,0,1,.229.039c.077.042.111.134.113.271l0,.1,0,.041c0,.007,0,.007.006.011v.014h.2l0-.017C999.251-394,999.251-394.023,999.247-394.06Zm-.309-.56a.724.724,0,0,1-.2.024h-.189v-.435h.181a.526.526,0,0,1,.251.047.186.186,0,0,1,.078.176A.2.2,0,0,1,998.938-394.621Z" transform="translate(-997.701 395.658)"/></g><g transform="translate(33.803 0.058)"><path class="a" d="M984.688-497.933a7.636,7.636,0,0,1-4.63,1.371c-.42.437-.869.942-1.321,1.493,2.875.574,5.391-1.216,6.733-2.742a9.048,9.048,0,0,0,1.25-1.8A11.215,11.215,0,0,1,984.688-497.933Z" transform="translate(-964.372 499.614)"/><path class="a" d="M905.234-489.759l-1.772,0-.288.449a1.251,1.251,0,0,0-.973-.647c-1.049.016-2.1.821-3.321,2.218-.894,1.024-2.379,3.3-2.379,3.3s-1.139,1.763-1.714,1.624c-.98-.236.828-3.887.828-3.887a20.637,20.637,0,0,0,2.178-1.627c.775-.655,1.666-1.555,2.485-2.389a28.191,28.191,0,0,0,2.458-2.918,6.469,6.469,0,0,1-.655.068,28.775,28.775,0,0,1-2.227,2.583,30.948,30.948,0,0,1-2.617,2.455,8.9,8.9,0,0,1-1.063.76,39.09,39.09,0,0,1,3.3-5.366c2.06-2.818,4.944-5.432,4.717-4.19a5.6,5.6,0,0,1-.619,1.475,6.711,6.711,0,0,0,.681-.18c.5-1.03.667-1.878.3-2.123-1.508-1-5.353,3.133-7.279,5.536a37.17,37.17,0,0,0-3.675,6.076,3.526,3.526,0,0,1-.633.19.708.708,0,0,1-.335.017.026.026,0,0,1-.019-.019s1.7-3.183-.036-3.609c-1.674-.409-4.573,2.7-5.608,4.868-.709,1.486-1.109,3.356.1,3.8,1.313.484,3.546-1.927,4.072-2.627a21.55,21.55,0,0,0,1.182-1.867s.319-.016.495-.043c.336-.049.492-.09.492-.09s-.218.572-.455,1.3c-.438,1.352-.836,3.288.741,3.38,1,.06,2.479-1.765,2.479-1.765s-.4,1.622.905,1.77c.962.106,2.365-1.388,2.365-1.388s-.307,1.29.669,1.4c.837.1,2.021-.887,2.995-1.97a20.91,20.91,0,0,0,1.879-2.479h-.618a11.279,11.279,0,0,1-2.328,2.643c-.788.458-.518-.277-.278-.662C901.923-484.113,905.234-489.759,905.234-489.759Zm-13.506,3.914a11.878,11.878,0,0,1-.943,1.443c-.512.659-1.449,1.649-2.012,1.437-.878-.327.092-2.255.725-3.19s.706-1,.723-1.022.036-.047.052-.017a2.711,2.711,0,0,0,.613.747,3.611,3.611,0,0,0,.815.523C891.731-485.914,891.753-485.9,891.728-485.845Zm.4-.693c-.055.093-.1.1-.211.065a1.461,1.461,0,0,1-1.035-1.316c.007-.846,1.192-1.673,1.656-1.319.433.331.225,1.176.061,1.606A7.613,7.613,0,0,1,892.126-486.538Zm8.048,2.1c-.234.322-.43.614-.607.819-.377.439-.622.643-.842.7a.485.485,0,0,1-.34-.036c-.322-.2-.095-.965.467-2a14.8,14.8,0,0,1,2.083-2.973c.979-1.09,1.352-1.142,1.627-1.129a.288.288,0,0,1,.261.254.52.52,0,0,1-.052.12C902.448-488.119,900.819-485.324,900.173-484.436Z" transform="translate(-886.288 498.514)"/></g><path class="a" d="M984.688-497.933a7.636,7.636,0,0,1-4.63,1.371c-.42.437-.869.942-1.321,1.493,2.875.574,5.391-1.216,6.733-2.742a9.048,9.048,0,0,0,1.25-1.8A11.215,11.215,0,0,1,984.688-497.933Z" transform="translate(-930.569 499.672)"/><path class="a" d="M850.887-499.317a6.285,6.285,0,0,0-2.8.465s-.478-.656-1.951-.444-6.015,2.118-9.885,8.34c-3.5,5.626-1.856,8.853.654,8.819,2.721-.037,5.313-3.08,6.192-5.592s-.157-3.192-.953-3.127a4.552,4.552,0,0,0-3.295,2.6,7.178,7.178,0,0,0-.856,2.808,8.863,8.863,0,0,1,1.136-1.011,5.073,5.073,0,0,1,1.2-.7,6.2,6.2,0,0,1,.445-1.3,2.581,2.581,0,0,1,1.405-1.476c1.228-.309.637,1.946-.267,3.416-.484.79-2.206,3.059-3.686,3.057s-1.763-1.439-1.45-2.781a15.768,15.768,0,0,1,2.909-6.146,19.593,19.593,0,0,1,5.856-5.7c1.389-.791,1.956-.443,1.956-.443a12.122,12.122,0,0,0-2.786,2.419c-.966,1.264-1.543,2.686-1.1,3.385.426.664,1.928.679,3.586-1.724,1.636-2.372,1.226-3.784,1.226-3.784a2.431,2.431,0,0,1,.329-.083,3.852,3.852,0,0,1,2.423.618c1.034.535,2.027,1.394,3.385,2.1.411-.451.867-.93,1.346-1.4C854.078-497.909,852.687-499.191,850.887-499.317Zm-3.4,3.237a6.759,6.759,0,0,1-1.8,2.5c-.851.767-1.318.742-1.519.586-.527-.4.181-1.928,1.411-3.289a6.99,6.99,0,0,1,2.278-1.777A3.437,3.437,0,0,1,847.492-496.08Z" transform="translate(-808.529 499.438)"/></g><g transform="translate(82 45)"><path class="b" d="M295.342-666.7l-.984,5.471a1.532,1.532,0,0,1-2.886.4l-3.892-7.982a1.533,1.533,0,0,0-1.378-.861h-8.88a1.533,1.533,0,0,1-.905-2.769l4.491-3.287a1.533,1.533,0,0,0,.541-1.744l-.259-.737a1.533,1.533,0,0,0-2.351-.729l-14.828,10.852a1.533,1.533,0,0,0,.905,2.769l18.566,0a1.533,1.533,0,0,1,1.378.861L293-647.767a1.533,1.533,0,0,0,2.886-.4l3.252-18.078a1.532,1.532,0,0,0-1.687-1.793l-.776.091A1.533,1.533,0,0,0,295.342-666.7Z" transform="translate(-263.38 696.023)"/><path class="c" d="M406.663-749.727l2.848-15.83a1.516,1.516,0,0,0-2.388-1.492l-12.98,9.5a1.516,1.516,0,0,0,.092,2.509l.713.445h0a1.514,1.514,0,0,0,1.137.192c.479-.569,1.908-1.667,3.337-2.931a22.744,22.744,0,0,0,2.226-2.14,19.027,19.027,0,0,0,1.363-2.007.536.536,0,0,1,.075-.534,7.514,7.514,0,0,1,.832-.673.376.376,0,0,0,.062-.333.48.48,0,0,1,.21-.466c.171-.141.424-.057.569-.009a10.237,10.237,0,0,1,1.35.724,10.2,10.2,0,0,1,1.242.9c.108.11.294.3.242.516a.481.481,0,0,1-.327.393.375.375,0,0,0-.272.2,7.584,7.584,0,0,1-.241,1.043.537.537,0,0,1-.447.3,19.028,19.028,0,0,0-1.207,2.1,22.783,22.783,0,0,0-.947,2.939c-.509,1.839-.869,3.6-1.171,4.285a1.514,1.514,0,0,0,.671.937l.713.445A1.516,1.516,0,0,0,406.663-749.727Z" transform="translate(-368.721 767.347)"/></g><g transform="translate(130.43 52.921)"><path class="d" d="M518.064-696.861v-26.063a2.181,2.181,0,0,1,2.2-2.243,2.218,2.218,0,0,1,2.243,2.243v26.063a.665.665,0,0,0,.641.687,2.238,2.238,0,0,1,2.243,2.2,2.247,2.247,0,0,1-2.243,2.243A5.109,5.109,0,0,1,518.064-696.861Z" transform="translate(-518.064 725.286)"/><path class="d" d="M577.652-649.672v-18.312a2.277,2.277,0,0,1,2.289-2.335,2.345,2.345,0,0,1,2.335,2.335v18.312a2.345,2.345,0,0,1-2.335,2.335A2.277,2.277,0,0,1,577.652-649.672Z" transform="translate(-566.296 680.889)"/><path class="d" d="M641.79-715.594v18.357a11.479,11.479,0,0,1-11.491,11.4,11.429,11.429,0,0,1-11.4-11.4,11.478,11.478,0,0,1,11.4-11.49,11.564,11.564,0,0,1,6.867,2.289v-9.156a2.336,2.336,0,0,1,2.335-2.289A2.326,2.326,0,0,1,641.79-715.594Zm-4.624,18.357A6.858,6.858,0,0,0,630.3-704.1a6.848,6.848,0,0,0-6.821,6.867,6.839,6.839,0,0,0,6.821,6.821A6.848,6.848,0,0,0,637.166-697.237Z" transform="translate(-599.684 719.389)"/><path class="d" d="M776.41-658.3a1.78,1.78,0,0,1-1.923,1.831H758.83a6.6,6.6,0,0,0,6.455,4.9A6.624,6.624,0,0,0,770-653.586a2.269,2.269,0,0,1,3.113,0,2.14,2.14,0,0,1,0,3.2c-4.395,4.395-12.132,5.036-16.618-.961-6-8.011.091-18.495,8.79-18.495A11.2,11.2,0,0,1,776.41-658.3Zm-17.488-2.609H771.6a6.755,6.755,0,0,0-6.317-4.486A6.77,6.77,0,0,0,758.922-660.911Z" transform="translate(-709.112 680.5)"/><path class="d" d="M901.182-667.595a2.345,2.345,0,0,1-2.335,2.335,6.887,6.887,0,0,0-6.867,6.867v9.11a2.327,2.327,0,0,1-2.243,2.335,2.344,2.344,0,0,1-2.335-2.335v-18.312a2.328,2.328,0,0,1,2.335-2.243,2.308,2.308,0,0,1,2.243,2.243v.046a11.564,11.564,0,0,1,6.867-2.289A2.328,2.328,0,0,1,901.182-667.595Z" transform="translate(-817.017 680.5)"/><path class="d" d="M981.538-658.3a1.78,1.78,0,0,1-1.923,1.831H963.958a6.6,6.6,0,0,0,6.455,4.9,6.625,6.625,0,0,0,4.715-2.014,2.269,2.269,0,0,1,3.113,0,2.14,2.14,0,0,1,0,3.2c-4.395,4.395-12.132,5.036-16.618-.961-6-8.011.091-18.495,8.79-18.495A11.2,11.2,0,0,1,981.538-658.3Zm-17.488-2.609h12.681a6.755,6.755,0,0,0-6.318-4.486A6.77,6.77,0,0,0,964.05-660.911Z" transform="translate(-875.149 680.5)"/><path class="d" d="M1090.2-649.191a2.37,2.37,0,0,1-.458-3.25,2.32,2.32,0,0,1,3.2-.458,6.782,6.782,0,0,0,4.074,1.328c1.6,0,3.479-.549,4.074-1.557a.536.536,0,0,0,0-.732c-.778-.778-9.751-4.212-11.4-5.814a5.178,5.178,0,0,1-.733-6.363c1.6-2.655,5.036-3.8,8.057-3.8a11.487,11.487,0,0,1,6.821,2.243,2.279,2.279,0,0,1,.458,3.2,2.239,2.239,0,0,1-3.2.458,6.881,6.881,0,0,0-4.074-1.328c-1.6,0-3.479.55-4.074,1.511-.458.87,2.014,2.152,4.807,3.479,2.747,1.282,5.814,2.61,6.593,3.342a4.912,4.912,0,0,1,.732,6.18c-1.6,2.655-5.036,3.8-8.057,3.8A11.487,11.487,0,0,1,1090.2-649.191Z" transform="translate(-979.547 680.5)"/><g transform="translate(12.4)"><path class="d" d="M583.362-720.844l1.983-3.8a2.034,2.034,0,0,1,2.743-.928,2.117,2.117,0,0,1,.886,2.785l-1.941,3.8a2.056,2.056,0,0,1-2.785.928A2.02,2.02,0,0,1,583.362-720.844Z" transform="translate(-583.131 725.784)"/></g></g></g></svg>