<svg xmlns="http://www.w3.org/2000/svg" width="270.165" height="169.501" viewBox="0 0 270.165 169.501"><defs><style>.a{fill:#ffb822;}.b{fill:#ed441b;}.c{fill:#30d9c8;}.c,.f{mix-blend-mode:multiply;isolation:isolate;}.d{fill:#6ec737;opacity:0.8;}.e{fill:#fff;}.f{opacity:0.06;}</style></defs><g transform="translate(-118.083 -49.462)"><g transform="translate(118.083 49.462)"><path class="a" d="M205.969,172.432l-62.77,7.041a10.66,10.66,0,0,1-11.076-8.234l-13.736-62.057c-1.39-6.282,2.093-11.9,7.8-12.446l70.553-7.78c5.712-.543,10.84,4.26,11.444,10.616l5.967,62.8A9.153,9.153,0,0,1,205.969,172.432Z" transform="translate(-118.083 -60.094)"/><path class="b" d="M354.229,164.69l71.732,7.8c4.42.481,8.892-3.162,10.006-8.212l13.675-61.963c1.384-6.273-1.563-11.89-6.606-12.438l-78.6-8.544c-5.043-.548-9.7,4.243-10.391,10.592l-6.816,62.708C346.67,159.74,349.809,164.21,354.229,164.69Z" transform="translate(-179.819 -58.039)"/><path class="c" d="M283.941,50.006a56.795,56.795,0,0,0-24.009,108.265l14.194,23.216,1.957-18.447a56.79,56.79,0,1,0,7.859-113.034Z" transform="translate(-147.475 -49.609)"/><path class="d" d="M283.815,49.462a57.138,57.138,0,0,0-24.154,108.919l14.279,23.356,1.968-18.558a57.134,57.134,0,1,0,7.907-113.718Z" transform="translate(-147.349 -49.462)"/><path class="a" d="M226.97,222.345l-3.65-19.359-16.781,1Z" transform="translate(-141.921 -90.837)"/><path class="b" d="M358.967,219.563l19.069-24.177-16-2.724Z" transform="translate(-183.001 -88.054)"/><g transform="translate(34.816 55.593)"><path class="e" d="M175.9,142.731a21.444,21.444,0,0,0,2.24-1.17,9.818,9.818,0,0,0,2.028-1.593,5.893,5.893,0,0,0,1.307-2.045,4.253,4.253,0,0,0,.064-2.576,3.885,3.885,0,0,0-2.357-2.865,6.992,6.992,0,0,0-4.354-.094q-1.043.264-1.842.545a10.243,10.243,0,0,0-1.453.629c-.434.232-.874.483-1.315.753s-.9.571-1.383.9a16.338,16.338,0,0,1-1.817-2.394,12.288,12.288,0,0,1-1.271-2.744q1.178-.771,2.189-1.368t2-1.059a18.935,18.935,0,0,1,2.017-.8c.683-.222,1.422-.437,2.216-.636q5.957-1.5,9.667.445a9.745,9.745,0,0,1,4.9,6.66,8.74,8.74,0,0,1,.119,4.246,10.858,10.858,0,0,1-1.442,3.4,13.171,13.171,0,0,1-2.132,2.544q-1.16,1.056-1.917,1.617l1.137,4.517a20.332,20.332,0,0,1-3.251,1.136,16.435,16.435,0,0,1-3.2.488Zm4.477,19.887a23.448,23.448,0,0,1-1.21-3.552,24.438,24.438,0,0,1-.627-3.747,23.315,23.315,0,0,1,3.551-1.211,24.267,24.267,0,0,1,3.749-.626,23.933,23.933,0,0,1,1.21,3.549,23.659,23.659,0,0,1,.627,3.75,24.164,24.164,0,0,1-3.549,1.21A23.8,23.8,0,0,1,180.373,162.618Z" transform="translate(-165.743 -125.565)"/></g><g transform="translate(213.705 48.171)"><path class="e" d="M410.629,151.641a23.437,23.437,0,0,1,.378-3.731,24.4,24.4,0,0,1,.992-3.67,23.423,23.423,0,0,1,3.731.378,24.366,24.366,0,0,1,3.669.992,23.966,23.966,0,0,1-.378,3.731,23.427,23.427,0,0,1-.992,3.669,23.1,23.1,0,0,1-7.4-1.37Zm6.5-36.236a25.932,25.932,0,0,1,3.932.417,26.4,26.4,0,0,1,3.872,1.028l-5.063,24.525a19.507,19.507,0,0,1-6.8-1.258Z" transform="translate(-410.629 -115.405)"/></g><path class="e" d="M288.926,148.755l-26.571-24.91,11.334-10.626L288.926,127.5,319.552,98.8l11.334,10.625Z" transform="translate(-156.964 -62.757)"/></g><ellipse class="f" cx="81.202" cy="6.109" rx="81.202" ry="6.109" transform="translate(169.772 206.746)"/></g></svg>