<svg xmlns="http://www.w3.org/2000/svg" width="126" height="126" viewBox="0 0 126 126"><defs><style>.a{fill:#fff;stroke:#707070;}.b{fill:#f40000;}.c{fill:#fff151;opacity:0;}.d,.f{fill:none;}.d{stroke:#fff;stroke-linecap:round;stroke-linejoin:round;stroke-width:2px;}.e{stroke:none;}</style></defs><g transform="translate(-783 -366)"><g class="a" transform="translate(783 366)"><circle class="e" cx="63" cy="63" r="63"/><circle class="f" cx="63" cy="63" r="62.5"/></g><path class="b" d="M49,0A49,49,0,1,1,0,49,49,49,0,0,1,49,0Z" transform="translate(797 380)"/><g transform="translate(547.311 -134.024)"><rect class="c" width="72" height="72" transform="translate(262.689 523.024)"/><g transform="translate(272.974 535.656)"><path class="d" d="M275.736,550.881l12.676-11.7,4.388-8.868c.952-1.925,4.715-1.267,5.478.74.759,1.991-.089,7.27-1.138,9.163l-4.016,7.245,14.75-.911a3.842,3.842,0,0,1,4.19,3.606h0a4.034,4.034,0,0,1-3.606,4.193h0a3.9,3.9,0,0,1,1.411,2.715h0a3.924,3.924,0,0,1-3.047,4.11,3.916,3.916,0,0,1,1.86,3.036v0a3.923,3.923,0,0,1-3.049,4.108,3.905,3.905,0,0,1,1.86,3.038h0a3.853,3.853,0,0,1-3.606,4.193l-15.815.344a16.275,16.275,0,0,1-13.713-7.465" transform="translate(-260.637 -529.165)"/><path class="d" d="M270.707,537.352h7.235a3.024,3.024,0,0,1,3.016,3.014v23.865a3.024,3.024,0,0,1-3.016,3.016h-7.235a3.024,3.024,0,0,1-3.018-3.016V540.366a3.024,3.024,0,0,1,3.018-3.014Zm3.407,21.474a1.353,1.353,0,1,1-1.354,1.352,1.351,1.351,0,0,1,1.354-1.352Z" transform="translate(-267.689 -520.51)"/></g></g></g></svg>