<svg xmlns="http://www.w3.org/2000/svg" width="195.604" height="36.186" viewBox="0 0 195.604 36.186"><defs><style>.a{fill:none;stroke:#fff;stroke-linecap:round;stroke-linejoin:round;}.b,.c{fill:#fff;}.c{fill-rule:evenodd;}</style></defs><g transform="translate(-263.38 -181.282)"><g transform="translate(400.676 195.256)"><rect class="a" width="0.281" height="17.212" transform="translate(0 0)"/></g><g transform="translate(408.248 193.468)"><path class="b" d="M1317.212,284.1a6.63,6.63,0,0,0-4.033-1.188,2.465,2.465,0,0,0-1.967,1.074c-.613-1.076-1.823-1.738-3.694-1.724-3.023.033-6.023,1.435-8.4,1.432a3.644,3.644,0,0,1-3.88-4c.1-4.487,3.871-8.527,6.688-10.345a6.3,6.3,0,0,1,3.861-1.253,1.3,1.3,0,0,1,.933,1.932c-.723,1.624-1.718,1.486-1.681.711a1.287,1.287,0,0,1,.6-.993,1.208,1.208,0,0,1,.587-.145c.142-.121.253-1.009-.907-.718a9.323,9.323,0,0,0-3.888,2.913,16.011,16.011,0,0,0-3.921,7.213c-.24,1.364-.082,3.847,3.124,3.822,2.718-.021,6.735-1.82,10.421-1.783a6.991,6.991,0,0,1,3.645,1.007A10.085,10.085,0,0,1,1317.212,284.1Z" transform="translate(-1295.238 -268.076)"/><path class="b" d="M1348.459,301.745c-.685.379-.438-.3-.251-.6.238-.383,3.263-5.458,3.263-5.458l-1.6,0-.186.295a1.07,1.07,0,0,0-.881-.472c-1.6.1-3.517,2.676-4.359,3.81s-2.654,3.3-3.606,2.912c-1.04-.422,0-2.354.682-3.489.745-1.235,2.066-2.457,2.587-2.466.641-.011.389.574.389.574a.968.968,0,0,0-.829.38c-.245.311-.45.766-.217,1.013.378.4.87,0,1.164-.457.918-1.411.249-2.155-.47-2.265-1.533-.233-2.947,1.747-4.022,2.482-.745.511-1.056.47-1.056.47s1.294-2.55-.267-2.952c-1.544-.4-4.113,2.247-5.2,4.4-.668,1.329-.963,3,.223,3.436s3.2-1.742,3.679-2.375,1.251-1.9,1.251-1.9.238-.045.394-.082.409-.109.409-.109-.293.524-.558,1.061c-.312.636-1.165,2.756.474,3.394,1.566.61,3.8-1.921,3.917-1.97,0,0-.666,1.726.365,1.993,1.132.293,2.373-1.165,2.373-1.165s-.261,1.1.621,1.2c1.579.185,4.376-3.876,4.376-3.876h-.558A12.887,12.887,0,0,1,1348.459,301.745Zm-10.3-2.676a14.827,14.827,0,0,1-.962,1.45c-.463.594-1.317,1.491-1.825,1.3-.794-.3.055-2.026.628-2.871s.656-.953.673-.976.032-.042.046-.015a1.742,1.742,0,0,0,.589.657,3.477,3.477,0,0,0,.824.381C1338.159,299.006,1338.179,299.019,1338.157,299.069Zm.666-1.32a7.067,7.067,0,0,1-.308.692.134.134,0,0,1-.154.063c-.123-.006-1.1-.231-1.09-1.015.006-.764,1.078-1.512,1.5-1.192C1339.16,296.6,1338.972,297.359,1338.824,297.749Zm7.555,3.51a1.827,1.827,0,0,1-.78.634.424.424,0,0,1-.305-.032c-.292-.178-.068-.836.439-1.768a19.439,19.439,0,0,1,1.919-2.707c.823-1.03,1.231-1.113,1.479-1.1a.265.265,0,0,1,.239.23s-1.79,3.128-2.438,4.021C1346.72,300.827,1346.538,301.074,1346.379,301.259Z" transform="translate(-1327.714 -291.634)"/><path class="b" d="M1468.89,297l-1.522,0-.86,1.4,1.522,0Z" transform="translate(-1442.462 -292.938)"/><g transform="translate(45.694 14.277)"><path class="b" d="M1622.37,370.054a.95.95,0,0,0-.691-.287.93.93,0,0,0-.685.287.982.982,0,0,0-.005,1.386.969.969,0,0,0,1.382,0,.949.949,0,0,0,.283-.694A.94.94,0,0,0,1622.37,370.054Zm-.1,1.3a.836.836,0,0,1-.6.244.813.813,0,0,1-.591-.244.843.843,0,0,1-.245-.608.837.837,0,1,1,1.675,0A.841.841,0,0,1,1622.273,371.354Z" transform="translate(-1620.705 -369.767)"/><path class="b" d="M1625.664,373.892c0-.025,0-.051,0-.077v-.076a.331.331,0,0,0-.057-.17.244.244,0,0,0-.183-.1.436.436,0,0,0,.155-.06.226.226,0,0,0,.1-.21.263.263,0,0,0-.166-.271.8.8,0,0,0-.293-.038h-.371l0,1.077h.185v-.426h.152a.447.447,0,0,1,.207.035c.07.038.1.121.1.245v.086l0,.037c0,.006,0,.006.005.01v.012h.177l0-.015C1625.667,373.943,1625.667,373.926,1625.664,373.892Zm-.279-.506a.651.651,0,0,1-.178.021h-.171v-.393h.163a.475.475,0,0,1,.227.042.169.169,0,0,1,.071.159A.18.18,0,0,1,1625.385,373.386Z" transform="translate(-1624.267 -372.449)"/></g><g transform="translate(30.544 0.052)"><path class="b" d="M1610.618,269.965a6.9,6.9,0,0,1-4.183,1.239c-.38.4-.785.851-1.194,1.349,2.6.519,4.872-1.1,6.084-2.478a8.189,8.189,0,0,0,1.129-1.629A10.141,10.141,0,0,1,1610.618,269.965Z" transform="translate(-1592.262 -268.446)"/><path class="b" d="M1529.911,277.476l-1.6,0-.26.405a1.131,1.131,0,0,0-.879-.585c-.948.015-1.9.742-3,2-.808.925-2.15,2.984-2.15,2.984s-1.029,1.593-1.549,1.467c-.885-.213.748-3.512.748-3.512a18.68,18.68,0,0,0,1.968-1.47c.7-.591,1.505-1.405,2.245-2.159a25.462,25.462,0,0,0,2.221-2.637,5.9,5.9,0,0,1-.592.061,26.034,26.034,0,0,1-2.012,2.334,27.973,27.973,0,0,1-2.365,2.219,8.034,8.034,0,0,1-.96.687,35.313,35.313,0,0,1,2.98-4.849c1.861-2.546,4.467-4.909,4.262-3.786a5.051,5.051,0,0,1-.559,1.332,6.085,6.085,0,0,0,.615-.163c.449-.93.6-1.7.268-1.918-1.362-.906-4.837,2.831-6.577,5a33.585,33.585,0,0,0-3.32,5.49,3.184,3.184,0,0,1-.572.171.64.64,0,0,1-.3.016.024.024,0,0,1-.017-.017s1.534-2.877-.032-3.261c-1.512-.37-4.132,2.441-5.068,4.4-.641,1.343-1,3.033.092,3.437,1.187.437,3.2-1.741,3.679-2.374a19.473,19.473,0,0,0,1.068-1.687s.289-.014.447-.039c.3-.044.445-.081.445-.081s-.2.517-.411,1.173c-.4,1.221-.755,2.971.67,3.054.908.054,2.24-1.595,2.24-1.595s-.36,1.466.818,1.6c.869.1,2.137-1.255,2.137-1.255s-.277,1.165.6,1.269c.756.088,1.825-.8,2.706-1.78a18.9,18.9,0,0,0,1.7-2.24h-.558a10.191,10.191,0,0,1-2.1,2.388c-.712.414-.468-.25-.251-.6C1526.92,282.577,1529.911,277.476,1529.911,277.476Zm-12.2,3.537a10.767,10.767,0,0,1-.852,1.3c-.463.6-1.31,1.49-1.818,1.3-.794-.3.083-2.037.655-2.882s.638-.9.653-.923.032-.042.047-.015a2.442,2.442,0,0,0,.554.675,3.257,3.257,0,0,0,.736.473C1517.711,280.951,1517.731,280.963,1517.708,281.013Zm.359-.626c-.05.084-.086.087-.191.059a1.32,1.32,0,0,1-.935-1.189c.006-.764,1.077-1.511,1.5-1.192.392.3.2,1.063.055,1.451A6.917,6.917,0,0,1,1518.067,280.387Zm7.272,1.9c-.211.291-.388.555-.549.74-.341.4-.562.581-.761.628a.437.437,0,0,1-.307-.032c-.291-.178-.085-.872.422-1.8a13.369,13.369,0,0,1,1.882-2.687c.885-.985,1.222-1.032,1.47-1.02a.26.26,0,0,1,.236.23.469.469,0,0,1-.047.109C1527.395,278.958,1525.922,281.484,1525.339,282.286Z" transform="translate(-1512.793 -269.566)"/></g><path class="b" d="M1610.618,269.965a6.9,6.9,0,0,1-4.183,1.239c-.38.4-.785.851-1.194,1.349,2.6.519,4.872-1.1,6.084-2.478a8.189,8.189,0,0,0,1.129-1.629A10.141,10.141,0,0,1,1610.618,269.965Z" transform="translate(-1561.718 -268.394)"/><path class="b" d="M1475.787,268.741a5.679,5.679,0,0,0-2.53.42s-.432-.592-1.763-.4-5.435,1.914-8.932,7.536c-3.161,5.083-1.677,8,.591,7.969,2.458-.034,4.8-2.783,5.595-5.053s-.142-2.884-.861-2.825a4.113,4.113,0,0,0-2.977,2.351,6.484,6.484,0,0,0-.774,2.537,8,8,0,0,1,1.026-.914,4.587,4.587,0,0,1,1.085-.633,5.6,5.6,0,0,1,.4-1.178,2.333,2.333,0,0,1,1.27-1.333c1.11-.279.575,1.758-.241,3.086-.437.714-1.993,2.764-3.33,2.763s-1.593-1.3-1.31-2.513a14.247,14.247,0,0,1,2.629-5.553,17.707,17.707,0,0,1,5.291-5.153c1.255-.715,1.767-.4,1.767-.4a10.956,10.956,0,0,0-2.518,2.186c-.873,1.142-1.394,2.427-.991,3.058.385.6,1.742.613,3.24-1.558,1.479-2.143,1.108-3.419,1.108-3.419a2.193,2.193,0,0,1,.3-.075,3.48,3.48,0,0,1,2.189.559c.935.484,1.831,1.259,3.059,1.894.372-.408.783-.841,1.216-1.263C1478.67,270.014,1477.413,268.855,1475.787,268.741Zm-3.067,2.924a6.11,6.11,0,0,1-1.622,2.262c-.769.693-1.191.67-1.372.529-.477-.366.163-1.742,1.275-2.972a6.319,6.319,0,0,1,2.058-1.606A3.105,3.105,0,0,1,1472.719,271.666Z" transform="translate(-1437.513 -268.631)"/></g><path class="c" d="M286.927,278.631l-.725,4.03a1.129,1.129,0,0,1-2.126.295l-2.867-5.88a1.129,1.129,0,0,0-1.015-.634h-6.542a1.129,1.129,0,0,1-.667-2.04l3.309-2.421a1.129,1.129,0,0,0,.4-1.285l-.191-.543a1.129,1.129,0,0,0-1.732-.537l-10.924,7.995a1.129,1.129,0,0,0,.667,2.04h13.678a1.129,1.129,0,0,1,1.015.634l5.995,12.294a1.129,1.129,0,0,0,2.126-.295l2.4-13.318a1.129,1.129,0,0,0-1.243-1.321l-.572.067A1.129,1.129,0,0,0,286.927,278.631Z" transform="translate(0 -75.744)"/><path class="c" d="M403.2,194.263l2.1-11.662a1.117,1.117,0,0,0-1.759-1.1l-9.562,7a1.117,1.117,0,0,0,.068,1.849l.525.328h0a1.117,1.117,0,0,0,.837.142c.352-.42,1.406-1.228,2.459-2.159a16.757,16.757,0,0,0,1.64-1.576,14.018,14.018,0,0,0,1-1.479.4.4,0,0,1,.056-.393,5.535,5.535,0,0,1,.613-.5.276.276,0,0,0,.046-.245.353.353,0,0,1,.155-.343c.126-.1.312-.042.419-.006a8.53,8.53,0,0,1,1.909,1.193c.079.081.217.221.178.38a.354.354,0,0,1-.241.29.275.275,0,0,0-.2.149,5.577,5.577,0,0,1-.177.768.4.4,0,0,1-.329.222,14.025,14.025,0,0,0-.889,1.551,16.781,16.781,0,0,0-.7,2.165c-.375,1.355-.64,2.656-.862,3.157a1.117,1.117,0,0,0,.494.691l.525.328A1.117,1.117,0,0,0,403.2,194.263Z" transform="translate(-111.871 0)"/><path class="b" d="M518.064,244.315v-19.2a1.606,1.606,0,0,1,1.619-1.653,1.634,1.634,0,0,1,1.653,1.653v19.2a.49.49,0,0,0,.472.506,1.636,1.636,0,1,1,0,3.271A3.764,3.764,0,0,1,518.064,244.315Z" transform="translate(-218.927 -36.257)"/><path class="b" d="M577.652,293.519v-13.49a1.678,1.678,0,0,1,1.686-1.72,1.727,1.727,0,0,1,1.72,1.72v13.49a1.727,1.727,0,0,1-1.72,1.72A1.677,1.677,0,0,1,577.652,293.519Z" transform="translate(-270.15 -83.405)"/><path class="b" d="M635.763,232.432v13.524a8.482,8.482,0,1,1-3.406-6.779v-6.745a1.7,1.7,0,0,1,3.406,0Zm-3.406,13.524a5.042,5.042,0,1,0-5.059,5.025A5.052,5.052,0,0,0,632.357,245.956Z" transform="translate(-305.606 -42.519)"/><path class="b" d="M770.534,287.289a1.311,1.311,0,0,1-1.417,1.349H757.583a4.891,4.891,0,0,0,8.229,2.125,1.671,1.671,0,0,1,2.294,0,1.577,1.577,0,0,1,0,2.361c-3.238,3.238-8.938,3.71-12.242-.708a8.467,8.467,0,0,1,6.475-13.625A8.251,8.251,0,0,1,770.534,287.289Zm-12.883-1.922h9.342a4.953,4.953,0,0,0-9.342,0Z" transform="translate(-421.819 -83.818)"/><path class="b" d="M897.553,280.443a1.727,1.727,0,0,1-1.72,1.72,5.074,5.074,0,0,0-5.059,5.059v6.711a1.687,1.687,0,1,1-3.373,0v-13.49a1.687,1.687,0,0,1,3.373,0v.034a8.518,8.518,0,0,1,5.059-1.686A1.715,1.715,0,0,1,897.553,280.443Z" transform="translate(-536.412 -83.818)"/><path class="b" d="M975.662,287.289a1.311,1.311,0,0,1-1.417,1.349H962.711a4.891,4.891,0,0,0,8.229,2.125,1.671,1.671,0,0,1,2.294,0,1.577,1.577,0,0,1,0,2.361c-3.238,3.238-8.938,3.71-12.242-.708a8.467,8.467,0,0,1,6.475-13.625A8.251,8.251,0,0,1,975.662,287.289Zm-12.884-1.922h9.342a4.953,4.953,0,0,0-9.342,0Z" transform="translate(-598.148 -83.818)"/><path class="b" d="M1089.672,294a1.746,1.746,0,0,1-.337-2.395,1.709,1.709,0,0,1,2.361-.337,5,5,0,0,0,3,.978c1.18,0,2.563-.4,3-1.147a.4.4,0,0,0,0-.539c-.573-.574-7.184-3.1-8.4-4.283a3.814,3.814,0,0,1-.54-4.688c1.18-1.956,3.71-2.8,5.936-2.8a8.462,8.462,0,0,1,5.025,1.653,1.678,1.678,0,0,1,.337,2.361,1.65,1.65,0,0,1-2.361.337,5.069,5.069,0,0,0-3-.978c-1.181,0-2.563.4-3,1.113-.337.641,1.484,1.585,3.541,2.563a32.219,32.219,0,0,1,4.857,2.462,3.619,3.619,0,0,1,.54,4.553c-1.18,1.956-3.71,2.8-5.936,2.8A8.462,8.462,0,0,1,1089.672,294Z" transform="translate(-709.018 -83.818)"/><g transform="translate(308.272 187.117)"><path class="b" d="M583.3,226.484l1.461-2.8a1.5,1.5,0,0,1,2.021-.684,1.559,1.559,0,0,1,.653,2.052l-1.43,2.8a1.515,1.515,0,0,1-2.052.684A1.488,1.488,0,0,1,583.3,226.484Z" transform="translate(-583.131 -222.844)"/></g></g></svg>