<svg xmlns="http://www.w3.org/2000/svg" width="32" height="32" viewBox="0 0 32 32"><defs><style>.a{fill:#fff;opacity:0;}.b{fill:none;stroke:#fff;stroke-miterlimit:10;}</style></defs><g transform="translate(4216 1217)"><rect class="a" width="32" height="32" transform="translate(-4216 -1217)"/><g transform="translate(-4241.366 -1691)"><g transform="translate(32.366 491.644)"><path class="b" d="M171.683,303.614H157.756a2.253,2.253,0,0,1-2.246-2.261,2.225,2.225,0,0,1,.056-.491c.083-.384.156-.764.226-1.132.637-3.344,1.188-6.231,8.928-6.231s8.288,2.887,8.927,6.229c.07.369.143.75.229,1.142a2.256,2.256,0,0,1-1.714,2.691,2.3,2.3,0,0,1-.477.054Z" transform="translate(-155.51 -293.5)"/></g><circle class="b" cx="5.437" cy="5.437" r="5.437" transform="translate(36.138 479)"/></g></g></svg>