<svg xmlns="http://www.w3.org/2000/svg" width="104" height="125.155" viewBox="0 0 104 125.155">
  <g id="isotipo_lideres" transform="translate(-82 -45)">
    <path id="Trazado_7498" data-name="Trazado 7498" d="M344.82-647.292l-2.508,13.939a3.9,3.9,0,0,1-7.353,1.02l-9.917-20.338a3.906,3.906,0,0,0-3.511-2.193l-22.628,0a3.905,3.905,0,0,1-2.306-7.057l11.444-8.375a3.906,3.906,0,0,0,1.379-4.445l-.66-1.878a3.9,3.9,0,0,0-5.991-1.858l-37.782,27.651a3.905,3.905,0,0,0,2.307,7.056l47.307,0a3.9,3.9,0,0,1,3.51,2.194l20.733,42.521a3.905,3.905,0,0,0,7.354-1.02l8.287-46.063a3.9,3.9,0,0,0-4.3-4.57l-1.978.232A3.905,3.905,0,0,0,344.82-647.292Z" transform="translate(-181.38 767.019)" fill="#404041" fill-rule="evenodd"/>
    <path id="Trazado_7499" data-name="Trazado 7499" d="M427.006-722.451l7.256-40.336a3.864,3.864,0,0,0-6.084-3.8l-33.073,24.2a3.863,3.863,0,0,0,.234,6.394l1.816,1.135h0a3.858,3.858,0,0,0,2.9.49c1.219-1.451,4.862-4.247,8.5-7.468a57.969,57.969,0,0,0,5.672-5.452A48.489,48.489,0,0,0,417.7-752.4a1.367,1.367,0,0,1,.192-1.36,19.149,19.149,0,0,1,2.12-1.716.957.957,0,0,0,.159-.848,1.223,1.223,0,0,1,.536-1.188c.435-.359,1.08-.146,1.451-.022a26.087,26.087,0,0,1,3.439,1.845,26,26,0,0,1,3.165,2.282c.274.279.749.765.617,1.314a1.225,1.225,0,0,1-.832,1,.955.955,0,0,0-.692.514,19.325,19.325,0,0,1-.613,2.658,1.368,1.368,0,0,1-1.138.769,48.466,48.466,0,0,0-3.076,5.362,58.045,58.045,0,0,0-2.414,7.488c-1.3,4.686-2.214,9.185-2.983,10.917a3.859,3.859,0,0,0,1.71,2.388l1.816,1.135A3.864,3.864,0,0,0,427.006-722.451Z" transform="translate(-248.328 812.347)" fill="#f40000" fill-rule="evenodd"/>
  </g>
</svg>
