<svg xmlns="http://www.w3.org/2000/svg" width="45" height="45" viewBox="0 0 45 45"><defs><style>.a{fill:#fff;opacity:0;}.b{fill:none;stroke:#f40000;stroke-miterlimit:10;stroke-width:2px;}</style></defs><g transform="translate(15466 1994)"><rect class="a" width="45" height="45" transform="translate(-15466 -1994)"/><g transform="translate(-15456.999 -1987.7)"><path class="b" d="M927.4,734.1l2.625,2.625,6.125-6.125" transform="translate(-927.395 -730.597)"/><path class="b" d="M927.4,744.1l2.625,2.625,6.125-6.125" transform="translate(-927.395 -731.847)"/><path class="b" d="M927.4,754.1l2.625,2.625,6.125-6.125" transform="translate(-927.395 -733.097)"/><g transform="translate(0.875 28)"><line class="b" x2="7" y2="7"/><line class="b" x1="7" y2="7"/></g><line class="b" x2="19.25" transform="translate(13.125 1.75)"/><line class="b" x2="19.25" transform="translate(13.125 5.25)"/><line class="b" x2="19.25" transform="translate(13.125 10.5)"/><line class="b" x2="19.25" transform="translate(13.125 14)"/><line class="b" x2="19.25" transform="translate(13.125 19.25)"/><line class="b" x2="19.25" transform="translate(13.125 22.75)"/><line class="b" x2="19.25" transform="translate(13.125 29.75)"/><line class="b" x2="19.25" transform="translate(13.125 33.25)"/></g></g></svg>