<svg xmlns="http://www.w3.org/2000/svg" width="32" height="32" viewBox="0 0 32 32"><defs><style>.a,.d{fill:#fff;}.a{opacity:0;}.b,.c{fill:none;stroke:#fff;}.b{stroke-linecap:round;stroke-linejoin:round;}.c{stroke-miterlimit:22.926;}</style></defs><g transform="translate(-46 -269)"><rect class="a" width="32" height="32" transform="translate(46 269)"/><g transform="translate(51.689 272.2)"><g transform="translate(0 19.151)"><path class="b" d="M491.418,407.153c1.1-1.444,2.9-1.413,5-1.38l.665.01c2.112.029,3.387.048,3.709.865.174.445.3.846.353,1.032h1.606c.526-.305,2.33-1.345,3.229-1.8a2.2,2.2,0,0,1,2.482-.039,1.089,1.089,0,0,1,.052,1.849,1.755,1.755,0,0,1-.3.187c-1.949,1.352-4.156,2.576-4.179,2.588a.656.656,0,0,1-.315.078h-7.429c-.042,0-.083-.006-.124-.011a1.12,1.12,0,0,0-.817.354c-.7.627-1.029.906-1.029.906a.611.611,0,0,1-.4.135h0l-5.018-.034c-.291,0-.524-.181-.521-.4a.321.321,0,0,1,.059-.175C488.456,411.29,490.449,408.425,491.418,407.153Z" transform="translate(-488.377 -405.478)"/><line class="b" x1="4.512" transform="translate(8.331 2.217)"/></g><g transform="translate(2.914)"><path class="c" d="M492.73,388.755h12.234a.658.658,0,0,1,.64.64l.641,11.494a.636.636,0,0,1-.632.64H492.09a.632.632,0,0,1-.64-.625v-.015l.64-11.494A.655.655,0,0,1,492.73,388.755Z" transform="translate(-491.45 -385.46)"/><path class="d" d="M496.281,390.2a.791.791,0,1,1-.792.791h0A.791.791,0,0,1,496.281,390.2Zm5.552,0a.791.791,0,1,1-.792.791h0A.791.791,0,0,1,501.833,390.2Z" transform="translate(-491.659 -385.535)"/><path class="c" d="M501.8,390.334v-2.36a2.7,2.7,0,0,0-2.694-2.694h0a2.7,2.7,0,0,0-2.694,2.694v2.36" transform="translate(-491.707 -385.28)"/></g></g></g></svg>