<svg xmlns="http://www.w3.org/2000/svg" width="30" height="30" viewBox="0 0 30 30"><defs><style>.a{fill:#fff;opacity:0;}.b,.c,.d{fill:none;stroke:#f40000;}.b{stroke-linecap:round;}.b,.c{stroke-linejoin:round;}.d{stroke-miterlimit:10;}</style></defs><g transform="translate(-145 -1005)"><g transform="translate(145 1005)"><rect class="a" width="30" height="30"/><g transform="translate(0.75 2.25)"><g transform="translate(0 12.115)"><line class="b" x1="5.385" transform="translate(4.712)"/><path class="b" d="M2126,324.289h8.077V312.174h-5.384" transform="translate(-2114.558 -312.174)"/><path class="c" d="M2140.019,325.27H2138v-10.1h5.384l3.366,5.385v4.712h-2.692" transform="translate(-2118.481 -313.155)"/><circle class="c" cx="2.019" cy="2.019" r="2.019" transform="translate(21.538 10.096)"/><circle class="c" cx="2.019" cy="2.019" r="2.019" transform="translate(7.404 10.096)"/><line class="b" x2="4.712" transform="translate(2.019 2.692)"/><line class="b" x2="4.712" transform="translate(1.346 8.75)"/><line class="b" x2="3.365" transform="translate(3.365 12.115)"/><line class="b" x2="2.692" transform="translate(4.038 5.385)"/><line class="b" x2="1.346" transform="translate(0 5.385)"/></g><g transform="translate(6.731)"><path class="d" d="M2129.77,299.638a5.385,5.385,0,1,0-9.5,3.489l2.233,3.089,1.881,2.766,4.112-5.854A5.467,5.467,0,0,0,2129.77,299.638Z" transform="translate(-2119 -294.174)"/><path class="d" d="M2126.088,302.877a1.906,1.906,0,1,1,1.878-1.906A1.892,1.892,0,0,1,2126.088,302.877Z" transform="translate(-2120.703 -295.773)"/></g><line class="c" x1="8.75" transform="translate(19.519 19.519)"/></g></g></g></svg>