<svg xmlns="http://www.w3.org/2000/svg" width="43" height="43" viewBox="0 0 43 43"><defs><style>.a{fill:#f40000;stroke:#f40000;stroke-width:1.5px;}.b,.f,.g{fill:#fff;}.b{opacity:0;}.c,.d,.e,.i{fill:none;}.c,.d,.e{stroke:#fff;}.d,.e{stroke-linecap:round;}.d{stroke-linejoin:round;}.e{stroke-width:0.5px;}.g{fill-rule:evenodd;}.h{stroke:none;}</style></defs><g transform="translate(-923 -330)"><g class="a" transform="translate(923 330)"><circle class="h" cx="21.5" cy="21.5" r="21.5"/><circle class="i" cx="21.5" cy="21.5" r="20.75"/></g><g transform="translate(925.867 332.867)"><rect class="b" width="38.222" height="38.222" transform="translate(0 0)"/><g transform="translate(10.511 0.956)"><path class="c" d="M5.321,0A5.321,5.321,0,1,1,0,5.321,5.321,5.321,0,0,1,5.321,0Z" transform="translate(2.713)"/><path class="d" d="M171.473,439.641H170.09a5.317,5.317,0,0,1-10.229,0h-1.632a1.257,1.257,0,0,0-1.288,1.22v24.225a1.257,1.257,0,0,0,1.288,1.22h13.244a1.257,1.257,0,0,0,1.288-1.22V440.861A1.257,1.257,0,0,0,171.473,439.641Z" transform="translate(-156.941 -432.862)"/><path class="e" d="M.273,0h10.95A.273.273,0,0,1,11.5.273V5.508a.273.273,0,0,1-.273.273H.273A.273.273,0,0,1,0,5.508V.273A.273.273,0,0,1,.273,0Z" transform="translate(2.154 12.245)"/><g transform="translate(9.907 13.897)"><path class="f" d="M165.741,447.921a1.8,1.8,0,0,1-.877-.339l.238-.311a1.4,1.4,0,0,0,.653.3v-.671c-.54-.13-.793-.319-.793-.7v-.007c0-.369.315-.619.779-.653v-.2h.321v.205a1.49,1.49,0,0,1,.7.26l-.208.323a1.327,1.327,0,0,0-.5-.22v.65c.564.13.805.339.805.705v.007c0,.373-.319.623-.792.66v.339h-.321Zm.014-2.043c-.233.018-.355.134-.355.284v.008c0,.14.07.232.355.311Zm.66,1.41v-.007c0-.15-.078-.243-.366-.321v.62C166.282,447.562,166.414,447.452,166.414,447.288Z" transform="translate(-164.864 -445.334)"/></g><path class="e" d="M.273,0h10.95A.273.273,0,0,1,11.5.273V5.508a.273.273,0,0,1-.273.273H.273A.273.273,0,0,1,0,5.508V.273A.273.273,0,0,1,.273,0Z" transform="translate(2.154 19.111)"/><g transform="translate(9.907 20.763)"><path class="f" d="M165.741,453.413a1.814,1.814,0,0,1-.877-.34l.238-.311a1.4,1.4,0,0,0,.653.3v-.671c-.54-.13-.793-.318-.793-.7v-.006c0-.37.315-.62.779-.654v-.2h.321v.205a1.489,1.489,0,0,1,.7.26l-.208.323a1.3,1.3,0,0,0-.5-.219v.649c.564.13.805.339.805.705v.008c0,.373-.319.623-.792.66v.339h-.321Zm.014-2.044c-.233.017-.355.134-.355.284v.008c0,.14.07.233.355.311Zm.66,1.41v-.008c0-.15-.078-.243-.366-.321v.62C166.282,453.053,166.414,452.943,166.414,452.779Z" transform="translate(-164.864 -450.825)"/></g><path class="e" d="M.273,0h10.95A.273.273,0,0,1,11.5.273V5.508a.273.273,0,0,1-.273.273H.273A.273.273,0,0,1,0,5.508V.273A.273.273,0,0,1,.273,0Z" transform="translate(2.154 25.976)"/><g transform="translate(9.907 27.629)"><path class="f" d="M165.741,458.9a1.8,1.8,0,0,1-.877-.339l.238-.311a1.387,1.387,0,0,0,.653.294v-.67c-.54-.13-.793-.319-.793-.7v-.007c0-.369.315-.619.779-.653v-.2h.321v.205a1.491,1.491,0,0,1,.7.26l-.208.323a1.325,1.325,0,0,0-.5-.22v.65c.564.13.805.339.805.705v.007c0,.373-.319.623-.792.66v.339h-.321Zm.014-2.043c-.233.018-.355.134-.355.284v.007c0,.14.07.233.355.311Zm.66,1.41v-.008c0-.15-.078-.243-.366-.321v.619C166.282,458.544,166.414,458.434,166.414,458.27Z" transform="translate(-164.864 -456.316)"/></g><path class="g" d="M163.565,442.868a2.461,2.461,0,0,0,.861-.123c.2-.111.139-.544.085-.713a2.022,2.022,0,0,1-.123-.747,12.519,12.519,0,0,1,.156-1.389c.011-.09.034-.181-.016-.2a2.971,2.971,0,0,0-.094-1.21c.054,0,.034-.125.022-.211-.02-.159-.16-.533-.28-.938a5.013,5.013,0,0,1-.166-.658,4.255,4.255,0,0,1-.02-.531.116.116,0,0,0,.049-.108,1.655,1.655,0,0,0-.076-.223.081.081,0,0,1,.026-.069.1.1,0,0,0,.015-.111c-.015-.046-.071-.06-.105-.067a2.508,2.508,0,0,0-.67,0c-.032.008-.089.021-.105.067a.1.1,0,0,0,.016.111.081.081,0,0,1,.026.069,1.666,1.666,0,0,0-.076.223.118.118,0,0,0,.048.108,4.027,4.027,0,0,1-.02.531,5.01,5.01,0,0,1-.165.658c-.12.405-.26.779-.281.938-.011.086-.03.211.024.211a2.97,2.97,0,0,0-.094,1.21c-.05.02-.028.111-.016.2a12.531,12.531,0,0,1,.156,1.389,2.02,2.02,0,0,1-.123.747c-.054.169-.111.6.084.713a2.466,2.466,0,0,0,.862.123" transform="translate(-155.532 -433.887)"/></g></g></g></svg>