<svg xmlns="http://www.w3.org/2000/svg" width="55" height="55" viewBox="0 0 55 55"><defs><style>.a{fill:#fff;opacity:0;}.b{fill:none;stroke:#f40000;stroke-linecap:round;stroke-linejoin:round;}</style></defs><g transform="translate(5166 -12393)"><rect class="a" width="55" height="55" transform="translate(-5166 12393)"/><g transform="translate(-5151.563 12399.188)"><path class="b" d="M604.881,824.382h7.065V808.2l-3.795-26.437h-3.27Z" transform="translate(-604.881 -781.758)"/><line class="b" y2="5.79" transform="translate(19.698 26.786)"/><line class="b" y2="3.418" transform="translate(19.698 20.048)"/><line class="b" y2="3.32" transform="translate(19.698 13.409)"/><line class="b" y2="3.241" transform="translate(19.698 6.77)"/><path class="b" d="M681.022,822.755v1.631h7.066V808.2l-3.794-26.438h-3.272v3.173" transform="translate(-661.324 -781.761)"/><line class="b" x2="19.279" transform="translate(3.27)"/><line class="b" x2="16.923" transform="translate(7.065 40.994)"/><line class="b" y1="8.418" transform="translate(23.988 32.576)"/><line class="b" x1="16.923" transform="translate(7.065 32.576)"/><line class="b" x2="16.548" transform="translate(7.065 26.292)"/><line class="b" x1="15.967" transform="translate(6.243 19.574)"/><line class="b" x1="15.967" transform="translate(5.637 12.935)"/><line class="b" x1="15.967" transform="translate(4.926 6.217)"/></g></g></svg>