<svg xmlns="http://www.w3.org/2000/svg" width="60" height="60" viewBox="0 0 60 60"><defs><style>.a{fill:#fff;opacity:0;}.b{fill:none;stroke:#f40000;stroke-linecap:round;stroke-linejoin:round;}</style></defs><g transform="translate(5166 -12393)"><rect class="a" width="60" height="60" transform="translate(-5166 12393)"/><g transform="translate(-5150.25 12399.75)"><path class="b" d="M604.881,828.256h7.707V810.6l-4.14-28.841h-3.568Z" transform="translate(-604.881 -781.758)"/><line class="b" y2="6.316" transform="translate(21.489 29.221)"/><line class="b" y2="3.729" transform="translate(21.489 21.871)"/><line class="b" y2="3.622" transform="translate(21.489 14.628)"/><line class="b" y2="3.535" transform="translate(21.489 7.385)"/><path class="b" d="M681.022,826.481v1.78h7.708V810.6l-4.139-28.842h-3.57v3.461" transform="translate(-659.533 -781.761)"/><line class="b" x2="21.031" transform="translate(3.567)"/><line class="b" x2="18.462" transform="translate(7.707 44.72)"/><line class="b" y1="9.183" transform="translate(26.169 35.537)"/><line class="b" x1="18.462" transform="translate(7.707 35.537)"/><line class="b" x2="18.052" transform="translate(7.707 28.683)"/><line class="b" x1="17.419" transform="translate(6.81 21.354)"/><line class="b" x1="17.419" transform="translate(6.15 14.111)"/><line class="b" x1="17.419" transform="translate(5.374 6.782)"/></g></g></svg>