<svg xmlns="http://www.w3.org/2000/svg" width="43" height="43" viewBox="0 0 43 43"><defs><style>.a{fill:#f40000;stroke:#f40000;stroke-width:1.5px;}.b{fill:#fff;opacity:0;}.c,.e{fill:none;}.c{stroke:#fff;stroke-linecap:round;stroke-linejoin:round;}.d{stroke:none;}</style></defs><g transform="translate(-923 -75)"><g class="a" transform="translate(923 75)"><circle class="d" cx="21.5" cy="21.5" r="21.5"/><circle class="e" cx="21.5" cy="21.5" r="20.75"/></g><g transform="translate(6091 -12316)"><rect class="b" width="38.22" height="38.22" transform="translate(-5166 12393)"/><g transform="translate(-5155.967 12397.3)"><path class="c" d="M604.881,811.378h4.909V800.13l-2.637-18.371h-2.272Z" transform="translate(-604.881 -781.758)"/><line class="c" y2="4.023" transform="translate(13.688 18.614)"/><line class="c" y2="2.376" transform="translate(13.688 13.932)"/><line class="c" y2="2.307" transform="translate(13.688 9.318)"/><line class="c" y2="2.252" transform="translate(13.688 4.704)"/><path class="c" d="M681.022,810.248v1.134h4.91V800.134L683.3,781.762h-2.274v2.2" transform="translate(-667.333 -781.761)"/><line class="c" x2="13.397" transform="translate(2.272)"/><line class="c" x2="11.76" transform="translate(4.909 28.487)"/><line class="c" y1="5.849" transform="translate(16.67 22.637)"/><line class="c" x1="11.76" transform="translate(4.909 22.637)"/><line class="c" x2="11.499" transform="translate(4.909 18.271)"/><line class="c" x1="11.096" transform="translate(4.338 13.602)"/><line class="c" x1="11.096" transform="translate(3.917 8.989)"/><line class="c" x1="11.096" transform="translate(3.423 4.32)"/></g></g></g></svg>