<svg xmlns="http://www.w3.org/2000/svg" width="55.937" height="154.001" viewBox="0 0 55.937 154.001">
  <defs>
    <style>
      .cls-1 {
        fill: #f40000;
      }

      .cls-2 {
        fill: #fff;
      }
    </style>
  </defs>
  <g id="Grupo_6826" data-name="Grupo 6826" transform="translate(-2442.58 -1813)">
    <g id="Grupo_6825" data-name="Grupo 6825">
      <rect id="Rect치ngulo_2633" data-name="Rect치ngulo 2633" class="cls-1" width="48" height="3" transform="translate(2446 1964)"/>
      <g id="Grupo_6824" data-name="Grupo 6824" transform="translate(-4 -6)">
        <path id="Sustracci칩n_1" data-name="Sustracci칩n 1" class="cls-2" d="M75.516,154H19.58V0H46.794A53.208,53.208,0,0,0,39.7.5c-.768.184-2.566.616-3.118,2.272a3.4,3.4,0,0,0,.674,3.7l0,0c.09.083.114.105.12.3-.069.2-.237.594-.392.958a12.049,12.049,0,0,0-1.184,3.731,3.471,3.471,0,0,0,.992,2.807v.451a75.554,75.554,0,0,1-.407,9.816,93.454,93.454,0,0,1-3.087,12.4l-.286.964c-.944,3.179-1.985,6.389-2.821,8.968A78.212,78.212,0,0,0,27.174,57.49l-.031.236c-.253,1.919-.408,3.469.072,4.492a22.44,22.44,0,0,0-1.243,5.719,117.892,117.892,0,0,0-.806,12.072,33.816,33.816,0,0,0,.313,6.676c-.612,1.027-.4,2.53-.211,3.856.035.248.076.538.112.826.02.139.092.625.223,1.466l0,.017c.736,4.721,2.976,19.086,2.985,27.039a40.135,40.135,0,0,1-2.183,14.187c-.1.306-.194.581-.274.836-.851,2.675-2.948,13.278,2.349,16.282,2.992,1.7,11.733,2.711,18.455,2.711s15.466-1.017,18.46-2.72c5.3-3.006,3.2-13.607,2.348-16.281-.082-.258-.173-.533-.275-.839a40.139,40.139,0,0,1-2.181-14.184c.008-7.966,2.25-22.331,2.987-27.051.126-.807.2-1.31.223-1.47.03-.24.065-.5.112-.827.182-1.256.408-2.819-.212-3.857a33.765,33.765,0,0,0,.313-6.685,117.715,117.715,0,0,0-.81-12.076,22.315,22.315,0,0,0-1.24-5.7c.481-1.033.325-2.579.072-4.493l-.03-.233a78.158,78.158,0,0,0-3.028-10.626c-.837-2.578-1.878-5.785-2.821-8.963l-.281-.948a93.847,93.847,0,0,1-3.091-12.418,76.013,76.013,0,0,1-.407-9.814v-.453a3.469,3.469,0,0,0,.992-2.806,12.079,12.079,0,0,0-1.184-3.732c-.209-.492-.338-.806-.393-.959.006-.19.025-.213.126-.3a3.4,3.4,0,0,0,.676-3.7C56.738,1.11,54.943.68,54.176.5A53.208,53.208,0,0,0,47.086,0H75.516V154Z" transform="translate(2427 1819)"/>
      </g>
    </g>
  </g>
</svg>
