<svg xmlns="http://www.w3.org/2000/svg" width="43" height="43" viewBox="0 0 43 43"><defs><style>.a{fill:#f40000;stroke:#f40000;stroke-width:1.5px;}.b{fill:#fff;opacity:0;}.c,.e{fill:none;}.c{stroke:#fff;stroke-linecap:round;stroke-linejoin:round;}.d{stroke:none;}</style></defs><g transform="translate(-925 -261)"><g class="a" transform="translate(925 261)"><circle class="d" cx="21.5" cy="21.5" r="21.5"/><circle class="e" cx="21.5" cy="21.5" r="20.75"/></g><g transform="translate(927.866 263.867)"><rect class="b" width="38.222" height="38.222" transform="translate(0)"/><g transform="translate(1.911 7.645)"><g transform="translate(0)"><path class="c" d="M211.934,398.872v-5.327a2.127,2.127,0,0,0-2.117-2.114h-.232c-.516,0-.935.437-2.048,1.6-1.894,1.978-5.42,5.661-8.912,5.661h-6.547a2.634,2.634,0,0,0-2.617,2.622V404.3a2.635,2.635,0,0,0,2.622,2.617h6.542c3.49,0,7.016,3.682,8.912,5.66,1.115,1.165,1.533,1.6,2.049,1.6h.233a2.125,2.125,0,0,0,2.114-2.116v-5.32a4.3,4.3,0,0,0,0-7.873Z" transform="translate(-189.462 -391.43)"/><line class="c" y2="7.526" transform="translate(6.766 7.612)"/><line class="c" y2="7.526" transform="translate(22.468 7.612)"/></g><g transform="translate(28.03 6.605)"><line class="c" x2="6.37" transform="translate(0 4.77)"/><line class="c" y1="2.661" x2="4.608"/><line class="c" x2="4.608" y2="2.661" transform="translate(0 6.879)"/></g></g></g></g></svg>