<svg xmlns="http://www.w3.org/2000/svg" width="43" height="43" viewBox="0 0 43 43"><defs><style>.a{fill:#f40000;stroke:#f40000;stroke-width:1.5px;}.b{fill:#fff;opacity:0;}.c,.e{fill:none;}.c{stroke:#fff;stroke-linecap:round;stroke-linejoin:round;}.d{stroke:none;}</style></defs><g transform="translate(-921 -139)"><g class="a" transform="translate(921 139)"><circle class="d" cx="21.5" cy="21.5" r="21.5"/><circle class="e" cx="21.5" cy="21.5" r="20.75"/></g><g transform="translate(923.867 141.867)"><rect class="b" width="38.222" height="38.222" transform="translate(0 0)"/><g transform="translate(6.688 4.778)"><g transform="translate(0 21.303)"><path class="c" d="M122.709,409.827c-1.254-1.648-3.314-1.612-5.7-1.575l-.758.013c-2.411.033-3.867.055-4.235.986-.2.508-.341.966-.4,1.177h-1.835c-.6-.347-2.659-1.535-3.687-2.054a2.515,2.515,0,0,0-2.834-.045,1.244,1.244,0,0,0-.059,2.112,2.041,2.041,0,0,0,.342.212c2.225,1.544,4.745,2.942,4.77,2.956a.752.752,0,0,0,.36.088h8.482c.047,0,.094-.006.141-.012a1.276,1.276,0,0,1,.933.4c.8.717,1.174,1.036,1.174,1.036a.7.7,0,0,0,.453.153h.006l5.728-.039c.332,0,.6-.206.6-.454a.356.356,0,0,0-.068-.2C126.091,414.551,123.815,411.28,122.709,409.827Z" transform="translate(-102.637 -407.915)"/><line class="c" x2="5.152" transform="translate(8.881 2.531)"/></g><g transform="translate(2.761)"><rect class="c" width="18.021" height="18.021"/><line class="c" y2="17.984" transform="translate(9.011 0.037)"/><line class="c" x2="8.479" transform="translate(9.542 6.868)"/></g></g></g></g></svg>