<svg xmlns="http://www.w3.org/2000/svg" width="60" height="60" viewBox="0 0 60 60"><defs><style>.a{fill:#fff;opacity:0;}.rojo,.c,.d{fill:none;stroke:#f40000;}.c,.d{stroke-linecap:round;}.c{stroke-linejoin:round;}.d{stroke-width:0.5px;}.e,.f{fill:#f40000;}.f{fill-rule:evenodd;}</style></defs><g transform="translate(-216 -64)"><rect class="a" width="60" height="60" transform="translate(216 64)"/><g transform="translate(234 68.5)"><path class="rojo" d="M8.115,0A8.115,8.115,0,1,1,0,8.115,8.115,8.115,0,0,1,8.115,0Z" transform="translate(4.137)"/><path class="c" d="M179.1,439.641h-2.109a8.108,8.108,0,0,1-15.6,0H158.9a1.917,1.917,0,0,0-1.964,1.861v36.941A1.917,1.917,0,0,0,158.9,480.3h20.2a1.917,1.917,0,0,0,1.964-1.861V441.5A1.917,1.917,0,0,0,179.1,439.641Z" transform="translate(-156.941 -429.304)"/><path class="d" d="M.416,0h16.7a.416.416,0,0,1,.416.416V8.4a.416.416,0,0,1-.416.416H.416A.416.416,0,0,1,0,8.4V.416A.416.416,0,0,1,.416,0Z" transform="translate(3.284 18.672)"/><g transform="translate(15.107 21.192)"><path class="e" d="M166.2,449.279a2.745,2.745,0,0,1-1.337-.517l.362-.475a2.136,2.136,0,0,0,1,.45v-1.024c-.824-.2-1.209-.486-1.209-1.07v-.011c0-.562.48-.944,1.188-1v-.3h.49v.313a2.274,2.274,0,0,1,1.064.4l-.316.492a2.025,2.025,0,0,0-.768-.336v.992c.86.2,1.228.517,1.228,1.075v.011c0,.568-.486.95-1.207,1.007v.517h-.49Zm.021-3.116c-.355.027-.541.2-.541.433v.012c0,.213.107.355.541.475Zm1.007,2.151V448.3c0-.229-.118-.37-.559-.49v.946C167.026,448.732,167.228,448.564,167.228,448.314Z" transform="translate(-164.864 -445.334)"/></g><path class="d" d="M.416,0h16.7a.416.416,0,0,1,.416.416V8.4a.416.416,0,0,1-.416.416H.416A.416.416,0,0,1,0,8.4V.416A.416.416,0,0,1,.416,0Z" transform="translate(3.284 29.142)"/><g transform="translate(15.107 31.662)"><path class="e" d="M166.2,454.772a2.767,2.767,0,0,1-1.337-.519l.362-.475a2.138,2.138,0,0,0,1,.45V453.2c-.824-.2-1.209-.484-1.209-1.07v-.01c0-.564.48-.946,1.188-1v-.3h.49v.313a2.272,2.272,0,0,1,1.064.4l-.316.492a1.991,1.991,0,0,0-.768-.334v.99c.86.2,1.228.517,1.228,1.075v.011c0,.568-.486.95-1.207,1.007v.517h-.49Zm.021-3.117c-.355.027-.541.2-.541.433v.012c0,.214.107.355.541.475Zm1.007,2.151v-.011c0-.229-.118-.37-.559-.49v.946C167.026,454.223,167.228,454.055,167.228,453.805Z" transform="translate(-164.864 -450.825)"/></g><path class="d" d="M.416,0h16.7a.416.416,0,0,1,.416.416V8.4a.416.416,0,0,1-.416.416H.416A.416.416,0,0,1,0,8.4V.416A.416.416,0,0,1,.416,0Z" transform="translate(3.284 39.612)"/><g transform="translate(15.107 42.132)"><path class="e" d="M166.2,460.261a2.744,2.744,0,0,1-1.337-.517l.362-.475a2.114,2.114,0,0,0,1,.448V458.7c-.824-.2-1.209-.486-1.209-1.07v-.011c0-.562.48-.944,1.188-1v-.3h.49v.313a2.272,2.272,0,0,1,1.064.4l-.316.492a2.022,2.022,0,0,0-.768-.336v.992c.86.2,1.228.517,1.228,1.075v.011c0,.568-.486.95-1.207,1.007v.517h-.49Zm.021-3.116c-.355.027-.541.2-.541.433v.011c0,.214.107.355.541.475Zm1.007,2.151v-.011c0-.229-.118-.37-.559-.49v.944C167.026,459.714,167.228,459.546,167.228,459.3Z" transform="translate(-164.864 -456.316)"/></g><path class="f" d="M164.088,446.711a3.753,3.753,0,0,0,1.314-.187c.3-.17.212-.83.13-1.087a3.084,3.084,0,0,1-.187-1.138,19.082,19.082,0,0,1,.238-2.118c.017-.137.051-.276-.025-.307a4.529,4.529,0,0,0-.143-1.846c.082,0,.051-.191.034-.322-.031-.242-.244-.812-.427-1.43a7.639,7.639,0,0,1-.254-1,6.489,6.489,0,0,1-.031-.81.177.177,0,0,0,.074-.164,2.527,2.527,0,0,0-.116-.339.123.123,0,0,1,.04-.1.159.159,0,0,0,.023-.17c-.023-.07-.109-.091-.16-.1a3.817,3.817,0,0,0-1.022,0c-.05.011-.135.032-.16.1a.159.159,0,0,0,.025.17.123.123,0,0,1,.04.1,2.533,2.533,0,0,0-.116.339.18.18,0,0,0,.072.164,6.146,6.146,0,0,1-.031.81,7.641,7.641,0,0,1-.252,1c-.183.618-.4,1.188-.429,1.43-.017.132-.046.322.036.322a4.528,4.528,0,0,0-.143,1.846c-.076.031-.042.17-.025.307a19.1,19.1,0,0,1,.238,2.118,3.082,3.082,0,0,1-.187,1.138c-.082.257-.17.917.128,1.087a3.762,3.762,0,0,0,1.314.187" transform="translate(-151.839 -433.016)"/></g></g></svg>