<svg xmlns="http://www.w3.org/2000/svg" width="50" height="50" viewBox="0 0 50 50"><defs><style>.a{fill:#ff5722;}.b{fill:none;stroke:#fff;stroke-linecap:round;stroke-linejoin:round;stroke-width:1.2px;}</style></defs><circle class="a" cx="25" cy="25" r="25" transform="translate(0)"/><g transform="translate(15.482 8.847)"><path class="b" d="M-195.71,15.022V26.2a1.909,1.909,0,0,1-1.323,1.323h-15.789a1.909,1.909,0,0,1-1.323-1.323V15.022" transform="translate(214.144 3.441)"/><line class="b" y1="5.603" transform="translate(2.556 21.368)"/><path class="b" d="M-212.821,2.5h15.789a1.912,1.912,0,0,1,1.323,1.323V20.8h-18.434V3.823A1.888,1.888,0,0,1-212.821,2.5Z" transform="translate(214.144 -2.5)"/><line class="b" y1="5.602" transform="translate(2.556 9.637)"/><line class="b" y2="6.767" transform="translate(12.372 2.91)"/><line class="b" x2="5.861" y2="3.384" transform="translate(9.441 4.601)"/><line class="b" y1="3.384" x2="5.861" transform="translate(9.441 4.601)"/></g></svg>