<svg xmlns="http://www.w3.org/2000/svg" width="50" height="50" viewBox="0 0 50 50"><defs><style>.a{fill:#ff9901;}.b{fill:none;stroke:#fff;stroke-miterlimit:10;stroke-width:1.2px;}</style></defs><g transform="translate(7071 -1795)"><circle class="a" cx="25" cy="25" r="25" transform="translate(-7071 1795)"/><g transform="translate(-7061 1803.847)"><circle class="b" cx="2.699" cy="2.699" r="2.699" transform="translate(22.942 25.566)"/><circle class="b" cx="2.699" cy="2.699" r="2.699" transform="translate(6.748 25.566)"/><path class="b" d="M0,0H25.642a0,0,0,0,1,0,0V5.591a6.555,6.555,0,0,1-6.555,6.555H4.827A4.827,4.827,0,0,1,0,7.319V0A0,0,0,0,1,0,0Z" transform="translate(4.049 10.721)"/><path class="b" d="M-244.734,4.228l-1.611,9.585h11.471V12.672A9.66,9.66,0,0,0-243.22,3.1,1.359,1.359,0,0,0-244.734,4.228Z" transform="translate(264.564 -3.092)"/><path class="b" d="M-258,7.362h2.7l1.35,4.049" transform="translate(258.004 -0.69)"/></g></g></svg>