<svg xmlns="http://www.w3.org/2000/svg" width="50" height="50" viewBox="0 0 50 50"><defs><style>.a,.b{fill:#607d8b;}.b,.c{stroke:#fff;stroke-linecap:round;stroke-linejoin:round;stroke-width:1.2px;}.c{fill:none;}</style></defs><g transform="translate(0)"><circle class="a" cx="25" cy="25" r="25"/><g transform="translate(15.482 6.635)"><rect class="b" width="18.463" height="20.002" rx="0.826" transform="translate(0 7.693)"/><path class="b" d="M24.254,11.192H8.87c1.181-.991,2.516-3.647,2.946-6.407A1.521,1.521,0,0,1,13.325,3.5h6.457a1.523,1.523,0,0,1,1.512,1.3C21.693,7.551,22.993,10.194,24.254,11.192Z" transform="translate(-7.331 -3.5)"/><path class="b" d="M8.87,18.37H24.254c-1.181.991-2.516,3.647-2.946,6.407A1.521,1.521,0,0,1,19.8,26.062H13.342a1.523,1.523,0,0,1-1.512-1.3C11.431,22.011,10.131,19.368,8.87,18.37Z" transform="translate(-7.331 9.325)"/><line class="c" y2="6.154" transform="translate(9.232 12.309)"/><line class="c" x1="4.616" y1="4.616" transform="translate(9.232 18.463)"/></g></g></svg>