<svg xmlns="http://www.w3.org/2000/svg" xmlns:xlink="http://www.w3.org/1999/xlink" width="50" height="50" viewBox="0 0 50 50"><defs><style>.a{fill:#1d1d1b;}.b,.c{fill-rule:evenodd;}.b{fill:url(#a);}.c{fill:url(#b);}.d,.e{stroke:none;}.e{fill:#707070;}</style><linearGradient id="a" x1="0.677" y1="0.031" x2="0.31" y2="1.213" gradientUnits="objectBoundingBox"><stop offset="0" stop-color="#c1c400"/><stop offset="0.16" stop-color="#bcc001"/><stop offset="0.347" stop-color="#adb404"/><stop offset="0.547" stop-color="#96a20a"/><stop offset="0.757" stop-color="#758812"/><stop offset="0.972" stop-color="#4b671d"/><stop offset="1" stop-color="#46631f"/></linearGradient><linearGradient id="b" x1="0.962" y1="-0.949" x2="0.228" y2="1.422" xlink:href="#a"/></defs><g transform="translate(-136 -186)"><g class="a" transform="translate(136 186)"><path class="d" d="M 25 49.5 C 21.69230079650879 49.5 18.48381042480469 48.85229110717773 15.46364974975586 47.57487106323242 C 12.54625988006592 46.3409309387207 9.926079750061035 44.57432174682617 7.675879955291748 42.32411956787109 C 5.425680160522461 40.07392120361328 3.659070014953613 37.45373916625977 2.425129890441895 34.53635025024414 C 1.147709965705872 31.51618957519531 0.5 28.30769920349121 0.5 25 C 0.5 21.69230079650879 1.147709965705872 18.48381042480469 2.425129890441895 15.46364974975586 C 3.659070014953613 12.54625988006592 5.425680160522461 9.926079750061035 7.675879955291748 7.675879955291748 C 9.926079750061035 5.425680160522461 12.54625988006592 3.659070014953613 15.46364974975586 2.425129890441895 C 18.48381042480469 1.147709965705872 21.69230079650879 0.5 25 0.5 C 28.30769920349121 0.5 31.51618957519531 1.147709965705872 34.53635025024414 2.425129890441895 C 37.45373916625977 3.659070014953613 40.07392120361328 5.425680160522461 42.32411956787109 7.675879955291748 C 44.57432174682617 9.926079750061035 46.3409309387207 12.54625988006592 47.57487106323242 15.46364974975586 C 48.85229110717773 18.48381042480469 49.5 21.69230079650879 49.5 25 C 49.5 28.30769920349121 48.85229110717773 31.51618957519531 47.57487106323242 34.53635025024414 C 46.3409309387207 37.45373916625977 44.57432174682617 40.07392120361328 42.32411956787109 42.32411956787109 C 40.07392120361328 44.57432174682617 37.45373916625977 46.3409309387207 34.53635025024414 47.57487106323242 C 31.51618957519531 48.85229110717773 28.30769920349121 49.5 25 49.5 Z"/><path class="e" d="M 25 1 C 21.75958061218262 1 18.61661911010742 1.634418487548828 15.65842056274414 2.885631561279297 C 12.80064010620117 4.094371795654297 10.23387908935547 5.825000762939453 8.029441833496094 8.029441833496094 C 5.825000762939453 10.23387908935547 4.094371795654297 12.80064010620117 2.885631561279297 15.65842056274414 C 1.634418487548828 18.61661911010742 1 21.75958061218262 1 25 C 1 28.24041938781738 1.634418487548828 31.38338088989258 2.885631561279297 34.34157943725586 C 4.094371795654297 37.19935989379883 5.825000762939453 39.76612091064453 8.029441833496094 41.97055816650391 C 10.23387908935547 44.17499923706055 12.80064010620117 45.90563201904297 15.65842056274414 47.1143684387207 C 18.61661911010742 48.36558151245117 21.75958061218262 49 25 49 C 28.24041938781738 49 31.38338088989258 48.36558151245117 34.34157943725586 47.1143684387207 C 37.19935989379883 45.90563201904297 39.76612091064453 44.17499923706055 41.97055816650391 41.97055816650391 C 44.17499923706055 39.76612091064453 45.90563201904297 37.19935989379883 47.1143684387207 34.34157943725586 C 48.36558151245117 31.38338088989258 49 28.24041938781738 49 25 C 49 21.75958061218262 48.36558151245117 18.61661911010742 47.1143684387207 15.65842056274414 C 45.90563201904297 12.80064010620117 44.17499923706055 10.23387908935547 41.97055816650391 8.029441833496094 C 39.76612091064453 5.825000762939453 37.19935989379883 4.094371795654297 34.34157943725586 2.885631561279297 C 31.38338088989258 1.634418487548828 28.24041938781738 1 25 1 M 25 0 C 38.80712127685547 0 50 11.19287872314453 50 25 C 50 38.80712127685547 38.80712127685547 50 25 50 C 11.19287872314453 50 0 38.80712127685547 0 25 C 0 11.19287872314453 11.19287872314453 0 25 0 Z"/></g><g transform="translate(3.792 -392.948)"><path class="b" d="M154.5,615.429a10.081,10.081,0,0,1,.507-4.9c2-6.177,5.854-7.185,9.185-9.415,2.473-1.66,6.01-4.413,5.769-8.164-.083.287,4.489,3.926,3.767,7.381-.753,3.612-3.732,5.4-6.292,6.872C163.895,609.228,157,611.315,154.5,615.429Z" transform="translate(-1.597)"/><path class="c" d="M142.242,603.32a12.321,12.321,0,0,1,.355-2.278,7.665,7.665,0,0,0,2.407,2.6,22.151,22.151,0,0,0,2.649,1.219,9.515,9.515,0,0,1,3.146,1.8c1.544,1.38,1.713,4.342,1.44,6.085,0,0-1.7-1.368-2.647-1.948-1.517-.927-3.85-1.406-5.538-2.579a4.707,4.707,0,0,1-1.654-2.289A8.809,8.809,0,0,1,142.242,603.32Z" transform="translate(0 -1.063)"/></g></g></svg>