<svg xmlns="http://www.w3.org/2000/svg" width="32" height="32" viewBox="0 0 32 32"><defs><style>.a{fill:#fff151;opacity:0;}.b{fill:none;stroke:#fff;stroke-linecap:round;stroke-linejoin:round;}.c{fill:#fff;}</style></defs><g transform="translate(-371.192 -162.146)"><rect class="a" width="32" height="32" transform="translate(371.192 162.146)"/><g transform="translate(376.313 166.26)"><path class="b" d="M376.793,190.417a10.135,10.135,0,0,1,9.873-7.923m0,0a7.924,7.924,0,1,1,7.923-7.924,7.924,7.924,0,0,1-7.923,7.924Z" transform="translate(-376.793 -166.646)"/><path class="c" d="M399.057,187.151h-2.38V184.77a.789.789,0,0,0-.79-.791h0a.791.791,0,0,0-.791.791v2.381h-2.379a.79.79,0,0,0-.792.789v0a.792.792,0,0,0,.79.792H395.1v2.379a.79.79,0,0,0,.79.791h0a.789.789,0,0,0,.791-.789v-2.381h2.38a.792.792,0,0,0,.792-.79v0a.791.791,0,0,0-.789-.791Z" transform="translate(-378.09 -168.132)"/></g></g></svg>