<svg xmlns="http://www.w3.org/2000/svg" width="60" height="60" viewBox="0 0 60 60"><defs><style>.a{fill:#fff;opacity:0;}.b{fill:none;stroke:#707070;stroke-linecap:round;stroke-linejoin:round;}</style></defs><g transform="translate(0.057)"><rect class="a" width="60" height="60" transform="translate(-0.057)"/><g transform="translate(22.579 4.285)"><path class="b" d="M78.122,399.126c-.019-.108-.027-.216-.045-.321a49.614,49.614,0,0,0-13.227,1.639l-.585.139m-.057,2.083a44.2,44.2,0,0,1,14.043,1.308" transform="translate(-63.87 -377.456)"/><path class="b" d="M78.713,414.721a23.45,23.45,0,0,1-.655,4.418,18.224,18.224,0,0,0-.31,10.4c.723,1.824,2.165,6.213.067,7.236v.007h0a14.731,14.731,0,0,1-6.255.974h-.2a14.756,14.756,0,0,1-6.255-.974c-2.1-1.015-.658-5.4.058-7.243a18.18,18.18,0,0,0-.309-10.4,24.372,24.372,0,0,1-.711-5.775l.058-2.16a25.5,25.5,0,0,1,1.721-7.956c.233-.566.456-1.054.675-1.514a23.707,23.707,0,0,0,1.932-5.715c.153-.691.89-4.178.314-4.992a.666.666,0,0,0-.154-.156.8.8,0,0,1-.351-.6,2.219,2.219,0,0,1,.73-1.476.668.668,0,0,0-.022-.919.851.851,0,0,1-.264-.789c.077-.633.408-.735,1.426-.735h2.511c1.01,0,1.335.1,1.418.737a.85.85,0,0,1-.266.789.664.664,0,0,0-.022.919,2.24,2.24,0,0,1,.732,1.474.854.854,0,0,1-.389.631.647.647,0,0,0-.158.163c-.552.816.254,4.538.351,4.963a23.586,23.586,0,0,0,1.93,5.7c.221.473.446.953.682,1.524a24.436,24.436,0,0,1,1.579,6.437Z" transform="translate(-64.011 -386.35)"/></g></g></svg>