<svg xmlns="http://www.w3.org/2000/svg" width="40" height="40" viewBox="0 0 40 40"><defs><style>.a{fill:#fff;opacity:0;}.b{fill:none;stroke:#f40000;stroke-miterlimit:10;}</style></defs><g transform="translate(-34 -528)"><path class="a" d="M0,0H40V40H0Z" transform="translate(34 528)"/><g transform="translate(37.333 535.333)"><path class="b" d="M1597.048,1307.748l-1.14,1.14h-5.7l-1.14-1.14H1576.25v1.994a1.425,1.425,0,0,0,1.425,1.425h30.484a1.425,1.425,0,0,0,1.425-1.425v-1.994Z" transform="translate(-1576.25 -1285.811)"/><path class="b" d="M1625.025,1134.906v-18.234a1.425,1.425,0,0,0-1.425-1.425h-25.926a1.425,1.425,0,0,0-1.425,1.425v18.234" transform="translate(-1593.971 -1115.248)"/><g transform="translate(7.55 3.96)"><path class="b" d="M1689.558,1262.876a.544.544,0,1,1-.544-.544A.544.544,0,0,1,1689.558,1262.876Z" transform="translate(-1683.231 -1249.531)"/><path class="b" d="M1658.369,1160.613h-10.855L1645.349,1150l-2.849.127" transform="translate(-1642.5 -1150)"/><path class="b" d="M1684.426,1163.87H1694.8a.983.983,0,0,1,.963,1.178l-.767,3.789a.983.983,0,0,1-.964.788h-10.045" transform="translate(-1679.261 -1162.289)"/><path class="b" d="M1767.705,1262.876a.544.544,0,1,1-.544-.544A.544.544,0,0,1,1767.705,1262.876Z" transform="translate(-1752.473 -1249.531)"/></g></g></g></svg>