<svg xmlns="http://www.w3.org/2000/svg" width="40" height="40" viewBox="0 0 40 40"><defs><style>.a{fill:#fff;opacity:0;}.b{fill:none;stroke:#f40000;stroke-linejoin:round;}</style></defs><g transform="translate(-34 -830)"><path class="a" d="M0,0H40V40H0Z" transform="translate(34 830)"/><g transform="translate(38.667 836)"><path class="b" d="M209,317l10,4.667,5.333-3.333v-.667l-10-4.667L209,316.333Z" transform="translate(-209 -299.667)"/><path class="b" d="M247.333,317l-10,4.667L232,318.333v-.667L242,313l5.333,3.333Z" transform="translate(-216.667 -299.667)"/><path class="b" d="M221.667,305l-7.333,4L209,306.333v-.667L219,301l2.667,1.333" transform="translate(-209 -295.667)"/><path class="b" d="M236,305l7.333,4,5.333-2.667v-.667l-10-4.667L236,302.333" transform="translate(-218 -295.667)"/><line class="b" y2="9.333" transform="translate(15.333 18.667)"/><path class="b" d="M237,323v3.333L227,331l-10-4.667V323" transform="translate(-211.667 -303)"/><path class="b" d="M233.333,311l-2.667,2.667L228,311" transform="translate(-215.333 -299)"/><path class="b" d="M227.667,307.667v-9.333A5.334,5.334,0,0,0,222.333,293H219" transform="translate(-212.333 -293)"/></g></g></svg>