<svg xmlns="http://www.w3.org/2000/svg" width="24" height="24" viewBox="0 0 24 24"><defs><style>.a{fill:#252525;}.b{fill:#f40000;}</style></defs><g transform="translate(-3739 48)"><path class="a" d="M13.939,6.2H9.289V1.546A1.546,1.546,0,0,0,7.746,0h0A1.547,1.547,0,0,0,6.2,1.546V6.2H1.546A1.546,1.546,0,0,0,0,7.743v0A1.544,1.544,0,0,0,1.543,9.292H6.2v4.65A1.544,1.544,0,0,0,7.74,15.489h0a1.542,1.542,0,0,0,1.546-1.54V9.292h4.65a1.542,1.542,0,0,0,1.546-1.543v0A1.544,1.544,0,0,0,13.945,6.2Z" transform="translate(3750.973 -46.98) rotate(45)"/><path class="b" d="M61.542,48.458A10.667,10.667,0,1,0,64.666,56a10.633,10.633,0,0,0-3.124-7.542M54,44a12,12,0,1,1-8.485,3.515A11.962,11.962,0,0,1,54,44Z" transform="translate(3697.001 -92)"/></g></svg>