<svg xmlns="http://www.w3.org/2000/svg" width="30" height="30" viewBox="0 0 30 30"><defs><style>.a{fill:#fff;opacity:0;}.b{fill:none;stroke:#707070;stroke-miterlimit:10;}</style></defs><g transform="translate(-353 -409)"><rect class="a" width="30" height="30" transform="translate(353 409)"/><g transform="translate(333.254 296)"><path class="b" d="M0,0H15.479a0,0,0,0,1,0,0V15.69a2,2,0,0,1-2,2H2a2,2,0,0,1-2-2V0A0,0,0,0,1,0,0Z" transform="translate(26.852 121.31)"/><rect class="b" width="17.69" height="2.211" transform="translate(25.746 119.098)"/><path class="b" d="M39,118.9V117h4.758v1.9" transform="translate(-6.788)"/><line class="b" y2="11.056" transform="translate(31.274 124.627)"/><line class="b" y2="11.056" transform="translate(34.591 124.627)"/><line class="b" y2="11.056" transform="translate(37.908 124.627)"/><line class="b" x2="13.268" transform="translate(27.957 124.627)"/></g></g></svg>