<svg xmlns="http://www.w3.org/2000/svg" width="30.069" height="36.186" viewBox="0 0 30.069 36.186"><defs><style>.a{fill:#fff;fill-rule:evenodd;}</style></defs><g transform="translate(-16 -14)"><path class="a" d="M286.927,278.631l-.725,4.03a1.129,1.129,0,0,1-2.126.295l-2.867-5.88a1.129,1.129,0,0,0-1.015-.634h-6.542a1.129,1.129,0,0,1-.667-2.04l3.309-2.421a1.129,1.129,0,0,0,.4-1.285l-.191-.543a1.129,1.129,0,0,0-1.732-.537l-10.924,7.995a1.129,1.129,0,0,0,.667,2.04h13.678a1.129,1.129,0,0,1,1.015.634l5.995,12.294a1.129,1.129,0,0,0,2.126-.295l2.4-13.318a1.129,1.129,0,0,0-1.243-1.321l-.572.067A1.129,1.129,0,0,0,286.927,278.631Z" transform="translate(-247.38 -243.026)"/><path class="a" d="M403.2,194.263l2.1-11.662a1.117,1.117,0,0,0-1.759-1.1l-9.562,7a1.117,1.117,0,0,0,.068,1.849l.525.328h0a1.117,1.117,0,0,0,.837.142c.352-.42,1.406-1.228,2.459-2.159a16.757,16.757,0,0,0,1.64-1.576,14.018,14.018,0,0,0,1-1.479.4.4,0,0,1,.056-.393,5.535,5.535,0,0,1,.613-.5.276.276,0,0,0,.046-.245.353.353,0,0,1,.155-.343c.126-.1.312-.042.419-.006a8.53,8.53,0,0,1,1.909,1.193c.079.081.217.221.178.38a.354.354,0,0,1-.241.29.275.275,0,0,0-.2.149,5.577,5.577,0,0,1-.177.768.4.4,0,0,1-.329.222,14.025,14.025,0,0,0-.889,1.551,16.781,16.781,0,0,0-.7,2.165c-.375,1.355-.64,2.656-.862,3.157a1.117,1.117,0,0,0,.494.691l.525.328A1.117,1.117,0,0,0,403.2,194.263Z" transform="translate(-359.251 -167.282)"/></g></svg>