<svg xmlns="http://www.w3.org/2000/svg" width="32" height="32" viewBox="0 0 32 32">
  <defs>
    <style>
      .cls-1 {
        fill: #f40000;
        stroke: #f40000;
        stroke-width: 1.5px;
      }

      .cls-2 {
        fill: #fff;
      }

      .cls-3 {
        stroke: none;
      }

      .cls-4 {
        fill: none;
      }
    </style>
  </defs>
  <g id="Grupo_7302" data-name="Grupo 7302" transform="translate(-928 -350)">
    <g id="Elipse_82" data-name="Elipse 82" class="cls-1" transform="translate(928 350)">
      <circle class="cls-3" cx="16" cy="16" r="16"/>
      <circle class="cls-4" cx="16" cy="16" r="15.25"/>
    </g>
    <path id="Trazado_6882" data-name="Trazado 6882" class="cls-2" d="M389.115,985.635h0v0c0-.01-.006-.018-.009-.028a.444.444,0,0,0-.017-.052.4.4,0,0,0-.026-.047c0-.008-.009-.017-.014-.025a.439.439,0,0,0-.044-.054l-.008-.01a.459.459,0,0,0-.057-.047l-.007-.006a.445.445,0,0,0-.064-.034l-.01-.006a.447.447,0,0,0-.068-.021l-.014,0a.434.434,0,0,0-.07-.007h-9.047a.42.42,0,0,0-.069.007h0l-.014,0a.453.453,0,0,0-.061.019l-.005,0c-.01,0-.019.01-.029.016a.4.4,0,0,0-.039.021l-.006,0c-.011.007-.02.016-.03.025s-.02.015-.029.024l0,0c-.009.009-.016.02-.025.03s-.017.019-.024.029l0,.006c-.007.011-.013.023-.019.035s-.012.021-.017.032l0,.006c-.006.014-.009.029-.014.044s0,.014-.006.021,0,.007,0,.011h0v.007h0l-3.5,16.62a.435.435,0,0,0,.85.179l.236-1.123h4.7a.435.435,0,0,0,0-.869h-4.52l2.663-12.65,3.18,14.644a.434.434,0,0,0,.424.342.443.443,0,0,0,.092-.01.434.434,0,0,0,.332-.517l-.2-.941h8.124l.244,1.125a.435.435,0,0,0,.424.342.442.442,0,0,0,.092-.01.435.435,0,0,0,.333-.517Zm-8.9.522h8.124l1.018,4.689a21.419,21.419,0,0,0-5.064.681c-.758.175-1.693.413-2.768.666Zm3.1,14.293-1.7-7.829a21.382,21.382,0,0,1,8.2.357l1.623,7.471Z" transform="translate(560.26 -628.288)"/>
  </g>
</svg>
