<svg xmlns="http://www.w3.org/2000/svg" width="70" height="70" viewBox="0 0 70 70"><defs><style>.a{fill:#fff;opacity:0;}.b,.c{fill:none;}.c{stroke:#f40000;stroke-linecap:round;stroke-linejoin:round;stroke-width:1.5px;}</style></defs><g transform="translate(-50.357 -525.638)"><rect class="a" width="70" height="70" transform="translate(50.357 525.638)"/><path class="b" d="M60.856,550.638a15,15,0,0,0,15,15h.124a15,15,0,1,0-15.124-15Z" transform="translate(10.055 10.001)"/><g transform="translate(63.185 535.638)"><path class="c" d="M93.356,546.547V530.638H63.811l-6.818,6.818v43.182H93.356V567" transform="translate(-56.993 -530.638)"/><path class="c" d="M58.129,538.592h6.818v-6.818" transform="translate(-55.856 -529.501)"/><path class="c" d="M75.743,560.751l-9.091-9.091,4.545-4.546,4.545,4.546,12.5-12.5,4.545,4.545Z" transform="translate(-47.333 -522.115)"/></g></g></svg>