<svg xmlns="http://www.w3.org/2000/svg" width="35" height="35" viewBox="0 0 35 35"><defs><style>.a{fill:#fff;opacity:0;}.b{fill:none;stroke:#fff;stroke-linecap:round;stroke-linejoin:round;stroke-width:1.2px;}</style></defs><g transform="translate(-453.431 -215.388)"><rect class="a" width="35" height="35" transform="translate(453.431 215.388)"/><g transform="translate(457.494 222.015)"><path class="b" d="M457.431,222.015h5.211L467.192,239h12.692" transform="translate(-457.431 -222.015)"/><path class="b" d="M469.942,242.108a1.653,1.653,0,1,1-1.653-1.653A1.654,1.654,0,0,1,469.942,242.108Z" transform="translate(-457.431 -222.015)"/><path class="b" d="M480.572,242.108a1.654,1.654,0,1,1-1.654-1.653A1.655,1.655,0,0,1,480.572,242.108Z" transform="translate(-457.431 -222.015)"/><path class="b" d="M463.706,225.987h19.725l-3.547,9.745H466.317" transform="translate(-457.431 -222.015)"/></g></g></svg>