<svg xmlns="http://www.w3.org/2000/svg" width="50.18" height="176" viewBox="0 0 50.18 176"><defs><style>.a{fill:#d3d3d3;}</style></defs><path class="a" d="M245.2,385c-7.685,0-17.681-1.16-21.1-3.1-6.061-3.438-3.659-15.56-2.686-18.62.094-.3.2-.614.314-.956a46.058,46.058,0,0,0,2.5-16.224c-.01-9.105-2.574-25.539-3.416-30.94-.141-.9-.229-1.487-.255-1.677-.039-.316-.083-.632-.128-.945-.21-1.487-.457-3.237.241-4.41a38.588,38.588,0,0,1-.358-7.636,134.219,134.219,0,0,1,.922-13.8,25.671,25.671,0,0,1,1.421-6.54c-.546-1.162-.376-2.9-.082-5.137l.035-.27a89.17,89.17,0,0,1,3.459-12.146c1.013-3.122,2.16-6.659,3.227-10.255l.327-1.1a106.477,106.477,0,0,0,3.53-14.18,86.194,86.194,0,0,0,.465-11.225v-.516a3.983,3.983,0,0,1-1.134-3.21,13.807,13.807,0,0,1,1.354-4.268c.158-.372.366-.862.448-1.094-.007-.229-.035-.252-.143-.35a3.889,3.889,0,0,1-.771-4.231c.63-1.891,2.686-2.387,3.564-2.6a60.682,60.682,0,0,1,16.551,0c.876.21,2.932.707,3.565,2.6a3.9,3.9,0,0,1-.773,4.231c-.114.1-.137.125-.144.343.082.229.292.725.449,1.1a13.84,13.84,0,0,1,1.355,4.268,3.981,3.981,0,0,1-1.134,3.209v.518a86.547,86.547,0,0,0,.465,11.223,106.983,106.983,0,0,0,3.535,14.2l.321,1.083c1.067,3.593,2.214,7.13,3.227,10.25a89.11,89.11,0,0,1,3.462,12.153l.034.266c.3,2.232.457,3.976-.082,5.138a25.52,25.52,0,0,1,1.418,6.518,134.036,134.036,0,0,1,.926,13.81,38.516,38.516,0,0,1-.358,7.646c.7,1.172.457,2.925.241,4.411-.045.311-.089.628-.128.946-.023.185-.114.775-.255,1.681-.843,5.4-3.407,21.832-3.416,30.935a46.064,46.064,0,0,0,2.493,16.22c.114.343.221.662.316.959.975,3.058,3.378,15.181-2.685,18.618C262.882,383.837,252.887,385,245.2,385Zm19.962-103.634-39.93,0" transform="translate(-220.117 -208.996)"/></svg>