<svg xmlns="http://www.w3.org/2000/svg" width="40" height="40" viewBox="0 0 40 40"><defs><style>.a{fill:#fff;opacity:0;}.b{fill:none;stroke:#f40000;stroke-linecap:round;stroke-linejoin:round;}</style></defs><g transform="translate(-34 -125)"><path class="a" d="M0,0H40V40H0Z" transform="translate(34 125)"/><g transform="translate(39.333 128.333)"><g transform="translate(17.333 19.104)"><path class="b" d="M311.968,417.814a1.383,1.383,0,0,1-.3-.034,1.2,1.2,0,0,1-.753-.536l-2.01-3.551-1.918,1.86a.9.9,0,0,1-.974.238.87.87,0,0,1-.512-.824V404.153a.566.566,0,0,1,.565-.568.573.573,0,0,1,.336.109l8.734,6.366a1.12,1.12,0,0,1,.472,1.24,1.15,1.15,0,0,1-1.134.808h-2l1.782,3.089a1.329,1.329,0,0,1-.52,1.766l-.987.622A1.464,1.464,0,0,1,311.968,417.814Z" transform="translate(-305.5 -403.585)"/></g><g transform="translate(0)"><path class="b" d="M303.982,416.2h0l-.062,0a14.546,14.546,0,1,1,14.574-8.738" transform="translate(-290.6 -387.163)"/><g transform="translate(4.361 4.354)"><path class="b" d="M303.718,411.233h0l-.042,0a10.182,10.182,0,1,1,10.2-6.118" transform="translate(-294.349 -390.906)"/></g><g transform="translate(8.73 8.716)"><path class="b" d="M303.452,406.259h0l-.024,0a5.812,5.812,0,1,1,5.824-3.491" transform="translate(-298.104 -394.655)"/></g></g></g></g></svg>