<svg id="profesional" xmlns="http://www.w3.org/2000/svg" width="130" height="130" viewBox="0 0 130 130">
  <rect id="Rectángulo_2423" data-name="Rectángulo 2423" width="130" height="130" transform="translate(0)" fill="none"/>
  <g id="Grupo_7915" data-name="Grupo 7915" transform="translate(18.571 20.28)">
    <g id="Grupo_7911" data-name="Grupo 7911" transform="translate(0 16.813)">
      <g id="Grupo_7909" data-name="Grupo 7909">
        <g id="Grupo_7905" data-name="Grupo 7905" transform="translate(4.55)">
          <path id="Trazado_7795" data-name="Trazado 7795" d="M231.194,668.689a9.923,9.923,0,1,0,9.925,9.925A9.937,9.937,0,0,0,231.194,668.689Z" transform="translate(-221.269 -668.689)" fill="none" stroke="#252525" stroke-linejoin="round" stroke-width="2"/>
        </g>
        <g id="Grupo_7906" data-name="Grupo 7906" transform="translate(5.332 36.728)">
          <line id="Línea_175" data-name="Línea 175" y2="35.842" fill="none" stroke="#252525" stroke-linejoin="round" stroke-width="2"/>
        </g>
        <g id="Grupo_7907" data-name="Grupo 7907" transform="translate(0 24.302)">
          <path id="Trazado_7796" data-name="Trazado 7796" d="M234.519,675.232H225.1a5.065,5.065,0,0,0-5.059,5.059v20.588a5.065,5.065,0,0,0,5.059,5.063" transform="translate(-220.044 -675.232)" fill="none" stroke="#252525" stroke-linejoin="round" stroke-width="2"/>
        </g>
        <g id="Grupo_7908" data-name="Grupo 7908" transform="translate(14.475 24.302)">
          <path id="Trazado_7797" data-name="Trazado 7797" d="M232.283,723.555l-.119-35.891A1.683,1.683,0,0,1,234.14,686l8.576,1.53,11.9-8.413L253.585,676l-8.981,4.918a1.68,1.68,0,0,1-1.965-.253c-4.977-4.721-6.192-5.43-9.282-5.43h-9.416" transform="translate(-223.941 -675.232)" fill="none" stroke="#252525" stroke-linejoin="round" stroke-width="2"/>
        </g>
      </g>
      <g id="Grupo_7910" data-name="Grupo 7910" transform="translate(14.474 52.122)">
        <line id="Línea_176" data-name="Línea 176" y1="20.499" fill="none" stroke="#252525" stroke-linejoin="round" stroke-width="2"/>
      </g>
    </g>
    <g id="Grupo_7912" data-name="Grupo 7912" transform="translate(44.285)">
      <line id="Línea_177" data-name="Línea 177" y1="89.383" fill="none" stroke="#252525" stroke-linejoin="round" stroke-width="2"/>
    </g>
    <g id="Grupo_7913" data-name="Grupo 7913" transform="translate(44.285 0.585)">
      <path id="Trazado_7798" data-name="Trazado 7798" d="M259.345,690.6H233.494a1.53,1.53,0,0,1-1.527-1.53V665.85a1.53,1.53,0,0,1,1.527-1.53h25.851a1.533,1.533,0,0,1,1.53,1.53v23.222A1.533,1.533,0,0,1,259.345,690.6Z" transform="translate(-231.967 -664.32)" fill="none" stroke="#252525" stroke-linejoin="round" stroke-width="2"/>
    </g>
    <g id="Grupo_7914" data-name="Grupo 7914" transform="translate(63.949 9.243)">
      <path id="Trazado_7799" data-name="Trazado 7799" d="M242.33,673.143" transform="translate(-223.502 -649.03)" fill="none" stroke="#252525" stroke-linejoin="round" stroke-width="2"/>
      <path id="Trazado_7800" data-name="Trazado 7800" d="M246.532,666.651h18.111a1.53,1.53,0,0,1,1.155,2.529l-8.877,10.307,8.907,10.95a1.531,1.531,0,0,1-1.185,2.5H238.791a1.533,1.533,0,0,1-1.53-1.53v-7.577" transform="translate(-237.261 -666.651)" fill="none" stroke="#252525" stroke-linejoin="round" stroke-width="2"/>
    </g>
  </g>
</svg>
