<svg xmlns="http://www.w3.org/2000/svg" width="23.387" height="22" viewBox="0 0 23.387 22">
  <g id="Grupo_7925" data-name="Grupo 7925" transform="translate(-41.998 -44)">
    <path id="Trazado_7425" data-name="Trazado 7425" d="M59.913,48.086A9.778,9.778,0,1,0,62.777,55a9.747,9.747,0,0,0-2.864-6.914M53,44a11,11,0,1,1-7.778,3.222A10.965,10.965,0,0,1,53,44Z" transform="translate(0 0)" fill="#449d44"/>
    <path id="Trazado_7427" data-name="Trazado 7427" d="M71.173,61.725l8.88-8.879a1.881,1.881,0,0,1,2.66,2.66L72.62,65.6l-.03.029-.029.03a1.8,1.8,0,0,1-2.543,0L69.96,65.6,64.973,60.61a1.8,1.8,0,0,1,2.543-2.543Z" transform="translate(-17.876 -6.607)" fill="#449d44" fill-rule="evenodd"/>
  </g>
</svg>
