<svg xmlns="http://www.w3.org/2000/svg" width="30" height="30" viewBox="0 0 30 30"><defs><style>.a{fill:#fff;opacity:0;}.b{fill:none;stroke:#f40000;stroke-linecap:round;stroke-linejoin:round;}</style></defs><g transform="translate(-453.431 -215.388)"><rect class="a" width="30" height="30" transform="translate(453.431 215.388)"/><g transform="translate(456.913 221.068)"><path class="b" d="M457.431,222.015H461.9l3.9,14.557h10.879" transform="translate(-457.431 -222.015)"/><path class="b" d="M469.47,241.872a1.417,1.417,0,1,1-1.417-1.417A1.417,1.417,0,0,1,469.47,241.872Z" transform="translate(-458.746 -224.649)"/><path class="b" d="M480.1,241.872a1.417,1.417,0,1,1-1.418-1.417A1.418,1.418,0,0,1,480.1,241.872Z" transform="translate(-460.265 -224.649)"/><path class="b" d="M463.706,225.987h16.907l-3.04,8.353H465.944" transform="translate(-458.328 -222.582)"/></g></g></svg>