<svg xmlns="http://www.w3.org/2000/svg" width="40" height="40" viewBox="0 0 40 40"><defs><style>.a{fill:#fff;opacity:0;}.b,.c{fill:none;stroke:#f40000;}.b{stroke-miterlimit:10;}.c{stroke-linejoin:round;}</style></defs><g transform="translate(-34 -241)"><path class="a" d="M0,0H40V40H0Z" transform="translate(34 241)"/><g transform="translate(42 244.333)"><circle class="b" cx="4.815" cy="4.815" r="4.815" transform="translate(14.081)"/><path class="b" d="M396.022,67.222a4.815,4.815,0,1,1,.725,6.068" transform="translate(-381.184 -53.148)"/><circle class="b" cx="4.815" cy="4.815" r="4.815" transform="translate(14.081 23.704)"/><path class="c" d="M385.627,76.791l1.481-5.631h5.926a1.481,1.481,0,0,0,0-2.963h-10.37v-.741s2.083-2.014,2.222-2.963-.956-2.287-2.963-.741c-.54.416-5.526,4.189-5.925,4.444-.017.01,0,8.889,0,8.889a7.368,7.368,0,0,0,2.963.741h5.185A1.484,1.484,0,0,0,385.627,76.791Z" transform="translate(-375.991 -52.642)"/></g></g></svg>