<?xml version="1.0" standalone="no"?>
<!DOCTYPE svg PUBLIC "-//W3C//DTD SVG 1.1//EN" "http://www.w3.org/Graphics/SVG/1.1/DTD/svg11.dtd">
<svg xmlns="http://www.w3.org/2000/svg">
<metadata>Copyright (C) 2019 by original authors @ fontello.com</metadata>
<defs>
<font id="fontello" horiz-adv-x="1000" >
<font-face font-family="fontello" font-weight="400" font-stretch="normal" units-per-em="1000" ascent="850" descent="-150" />
<missing-glyph horiz-adv-x="1000" />
<glyph glyph-name="beneficios" unicode="&#xe800;" d="M787 106a98 98 0 0 1-111 0c-31-16-91-51-119-67h-46c-2 8-6 19-10 30-16 40-69 41-155 42h-26c-79 0-155 2-202-59-36-48-113-157-113-158a26 26 0 0 1-5-13 28 28 0 0 1 8-20 36 36 0 0 1 27-11h191a39 39 0 0 1 25 9l39 36a31 31 0 0 0 19 10h289a39 39 0 0 1 19 5s86 47 158 98a92 92 0 0 1 14 8 59 59 0 0 1 25 48 60 60 0 0 1-27 42z m-17-72l-10-6c-72-51-157-97-158-98a15 15 0 0 0-4 0h-286a62 62 0 0 1-42-17c-27-24-39-36-39-36a8 8 0 0 0-5 0l-191 4h-3c12 16 77 110 111 154s99 48 177 47h26c68 0 118 0 126-24l7-18h-147a16 16 0 0 1 0-31h229a14 14 0 0 1 7 2c26 14 91 50 127 69a68 68 0 0 0 76 0 26 26 0 0 0 0-46z m-620 175h516a39 39 0 0 1 26 12 40 40 0 0 1 11 29l-24 436a40 40 0 0 1-40 39h-114v7a118 118 0 1 1-236 0v-7h-115a40 40 0 0 1-39-39l-24-438a40 40 0 0 1 11-28 39 39 0 0 1 28-11z m170 523a87 87 0 1 0 174 0v-7h-174z m-154-47a9 9 0 0 0 9 9h114v-39a30 30 0 1 1 43-28 30 30 0 0 1-12 24v43h174v-43a30 30 0 0 1-12-24 30 30 0 0 1 30-30 30 30 0 0 1 13 58v39h114a10 10 0 0 0 9-10l24-435a10 10 0 0 0-2-7 9 9 0 0 0-7-2h-513s-5 1-6 1a8 8 0 0 0-3 5z" horiz-adv-x="814" />

<glyph glyph-name="mis_objetivos" unicode="&#xe801;" d="M435-61l-5-31a447 447 0 0 0-372 372l31 5a414 414 0 0 1 346-346z m130 0l5-31a446 446 0 0 1 373 374l-32 5a414 414 0 0 0-346-348z m347 476l31 5a446 446 0 0 1-373 372l-5-31a414 414 0 0 0 346-346z m-476 347l-5 31a446 446 0 0 1-373-373l31-5a414 414 0 0 0 346 346z m-219-457l-32-5a318 318 0 0 1 265-265l5 32a286 286 0 0 0-238 238z m598-3l-31 5a286 286 0 0 0-239-240l5-32a317 317 0 0 1 265 267z m-31 93l31 5a319 319 0 0 1-265 265l-5-31a286 286 0 0 0 239-239z m-599 5l32-5a285 285 0 0 0 238 239l-5 31a317 317 0 0 1-265-265z m815-34v-32h-312a189 189 0 0 0-172-172v-312h-32v312a189 189 0 0 0-172 172h-312v32h312a189 189 0 0 0 172 172v312h32v-312a189 189 0 0 0 172-172z m-342-16a158 158 0 0 1-158 158h0a158 158 0 1 1 158-158z" horiz-adv-x="1000" />

<glyph glyph-name="mismov" unicode="&#xe802;" d="M629 118a17 17 0 0 0-4-23 15 15 0 0 0-10-3 16 16 0 0 0-13 7l-121 169a17 17 0 0 0-3 10v314a17 17 0 1 0 33 0v-310z m371 232a500 500 0 0 0-1000 0h0a501 501 0 0 0 500 500h0a501 501 0 0 0 500-500z m-34-16h-71a17 17 0 0 0 0 32h71a467 467 0 0 1-450 448v-68a17 17 0 1 0-33 0v68a467 467 0 0 1-447-448h68a17 17 0 1 0 0-32h-68a467 467 0 0 1 447-450v70a17 17 0 0 0 33 0v-70a467 467 0 0 1 450 450z" horiz-adv-x="1000" />

<glyph glyph-name="salir" unicode="&#xe803;" d="M381-100a20 20 0 0 0-21-20h-311a54 54 0 0 0-49 58v842a54 54 0 0 0 49 58h297a21 21 0 1 0 0-41h-297a14 14 0 0 1-10-15v-845a14 14 0 0 1 12-17h308a20 20 0 0 0 22-20z m847 406l-475-439a62 62 0 0 0-43-17 48 48 0 0 0-23 4 59 59 0 0 0-38 55v216h-356a61 61 0 0 0-60 59v352a61 61 0 0 0 60 59h356v196a59 59 0 0 0 38 55 62 62 0 0 0 66-14l474-441h3a58 58 0 0 0-3-85z m-27 55h0l-476 443a21 21 0 0 1-23 3 18 18 0 0 1-12-16v-216a20 20 0 0 0-21-21h-375a20 20 0 0 1-20-19v-350a20 20 0 0 1 20-19h376a20 20 0 0 0 21-20v-238a19 19 0 0 1 12-17h8a23 23 0 0 1 15 6l475 440a18 18 0 0 1 0 24z" horiz-adv-x="1246" />

<glyph glyph-name="tienda" unicode="&#xe804;" d="M885 597a56 56 0 0 1-55 55h-189v19a179 179 0 0 1-358 0v-19h-190a56 56 0 0 1-54-55l-39-693a55 55 0 0 1 54-54h815a55 55 0 0 1 54 56z m-569 74a146 146 0 1 0 292 0v-19h-292z m553-789h-813a23 23 0 0 0-22 22l39 692a23 23 0 0 0 23 23h187v-69a47 47 0 1 1 59-45 46 46 0 0 1-26 41v73h292v-72a46 46 0 0 1-27-42 48 48 0 1 1 60 45v69h188a24 24 0 0 0 23-23l39-692a22 22 0 0 0-22-22z" horiz-adv-x="923" />

<glyph glyph-name="icon-acumulapuntos" unicode="&#xe805;" d="M406 755a48 48 0 1 1-48 47 48 48 0 0 1 48-47z m0 58a11 11 0 1 0-11-11 11 11 0 0 0 11 11z m-238-283v108a19 19 0 0 0 37 0v-108a19 19 0 0 0-37 0z m-82 27v163a19 19 0 0 0 37 0v-163a19 19 0 0 0-37 0z m165 28v218a19 19 0 0 0 37 0v-218a19 19 0 1 0-37 0z m82-41v66a19 19 0 0 0 37 0v-66a19 19 0 0 0-37 0z m213-181a310 310 0 1 0-546-203v433a19 19 0 0 0 37 0v-433a273 273 0 1 1 95 207 19 19 0 0 0-24 29 311 311 0 0 0 438-33z m75 337v-304a19 19 0 1 0-37 0v304a19 19 0 1 0 37 0z m-187-12a19 19 0 0 0 19-19v-84a19 19 0 0 0-37 0v84a19 19 0 0 0 18 19z m64-200v111a19 19 0 0 0 37 0v-111a19 19 0 0 0-37 0z m-9-294a37 37 0 0 1-31 41l-79 11-36 72h0a36 36 0 0 1-65 0l-35-72-80-11a36 36 0 0 1-20-62l57-56-13-79a36 36 0 0 1 53-39l70 38 72-38a37 37 0 0 1 17-4 37 37 0 0 1 36 43l-14 79 57 56a37 37 0 0 1 11 21z m-94-51a36 36 0 0 1-11-32l15-79-71 38a36 36 0 0 1-34 0l-71-39 14 80a37 37 0 0 1-11 32l-58 55 80 12a36 36 0 0 1 28 20l34 72 36-72a36 36 0 0 1 27-20l80-11z" horiz-adv-x="621" />

<glyph glyph-name="regalo" unicode="&#xe806;" d="M702 167v415c0 2 0 5-2 5l0 0-146 253c0 8-5 10-8 10h-141-105-141c-5 0-10-2-13-7l-146-254 0 0c0-2 0-2 0-5v-595c0-7 5-12 12-12h500c15-73 81-127 156-127 88 0 161 73 161 161 0 76-53 141-127 156z m-31 429h-203l-48 230h119l132-230z m-225-331l-87 53c-5 3-10 3-13 0l-87-53v307h187l0-307z m-51 561l49-230h-183l49 230h85z m-229 0h119l-48-230h-203l132 230z m-142-825v571h210v-327c0-5 3-7 8-10 4-2 7-2 12 0l100 61 100-61c2 0 5-2 7-2 2 0 5 0 5 2 5 3 7 8 7 10l0 327h210v-400c-2 0-5 0-10 0-88 0-161-73-161-161 0-2 0-5 0-10h-488z m647-127c-76 0-137 61-137 137s61 137 137 137 136-61 136-137-63-137-136-137z m53 188l-75-75-34 34c-5 5-13 5-17 0s-5-12 0-17l41-42c3-2 5-2 10-2s7 2 10 2l85 86c5 4 5 12 0 17s-15 2-20-3z" horiz-adv-x="829" />

<glyph glyph-name="icon-catalogopremium" unicode="&#xe807;" d="M1025 850h-950a74 74 0 0 1-75-74v-600c0 0 0-1 0-1s0-2 0-2v-44a74 74 0 0 1 75-75h341l-29-154h-112a25 25 0 0 1 0-50h549a25 25 0 0 1 0 50h-112l-28 154h341a74 74 0 0 1 75 74v648a74 74 0 0 1-75 74z m-950-49h950a25 25 0 0 0 25-25v-27h-292a25 25 0 0 1 0-49h292v-501h-1000v501h300a25 25 0 0 1 0 49h-300v27a25 25 0 0 0 25 25z m587-901h-224l28 154h167z m363 204h-351v0h-249v0h-350a25 25 0 0 0-25 24v22h1000v-22a25 25 0 0 0-25-24z m-666 512a74 74 0 0 1-60-72v-247a74 74 0 0 1 75-75h352a74 74 0 0 1 74 75v247a74 74 0 0 1-68 73 104 104 0 0 1-8 73 105 105 0 0 1-141 46 94 94 0 0 1-24-17 93 93 0 0 1-14-12 80 80 0 0 1-11 10 105 105 0 0 1-175-101z m15-48h12a103 103 0 0 1 27-19 103 103 0 0 1 112 12v-115h-176v98a25 25 0 0 0 25 24z m-25-271v99h176v-124h-151a25 25 0 0 0-25 25z m377-25h-151v124h176v-99a25 25 0 0 0-25-25z m25 272v-98h-176v108a106 106 0 0 1 23-11 107 107 0 0 1 32-5 102 102 0 0 1 74 31h22a25 25 0 0 0 25-25z m-160 138a57 57 0 0 0 14 10 56 56 0 0 0 75-24 55 55 0 0 0 3-43 52 52 0 0 0-4-7h-98l-1 2a45 45 0 0 0 11 62z m-180-14a56 56 0 0 0 49 30 55 55 0 0 0 25-6 68 68 0 0 0 17-12 44 44 0 0 0 9-60l-1-2h-98a52 52 0 0 0-5 7 55 55 0 0 0 4 43z" horiz-adv-x="1100" />

<glyph glyph-name="icon-certificados" unicode="&#xe808;" d="M886 595a59 59 0 0 1-58 58h-185v16a181 181 0 0 1-362 0v-16h-185a59 59 0 0 1-58-57l-38-689a58 58 0 0 1 58-57h809a58 58 0 0 1 57 59z m-565 74a141 141 0 0 0 282 0v-16h-282z m558-774a18 18 0 0 0-13-5h-808a19 19 0 0 0-18 17l38 688a19 19 0 0 0 19 18h184v-44a67 67 0 1 1 40-3v47h282v-47a67 67 0 1 1 40 3v44h184a19 19 0 0 0 19-19l38-686a18 18 0 0 0-5-13z m-595 633h24a27 27 0 1 0-24 0z m332 0h24a27 27 0 0 0 15-24 27 27 0 1 0-39 24z" horiz-adv-x="924" />

<glyph glyph-name="icon-creditopuntos" unicode="&#xe809;" d="M449 357a208 208 0 1 1 58-58h0a21 21 0 1 0 35 23 250 250 0 1 0-70 69h0a21 21 0 0 0-23-34z m-116 160a334 334 0 0 1-333-334 330 330 0 0 1 69-203 21 21 0 1 1 33 26 289 289 0 0 0-60 177 292 292 0 1 0 291-291 289 289 0 0 0-177 60 21 21 0 1 1-25-33 330 330 0 0 1 202-69 333 333 0 0 1 0 667z m63-292a21 21 0 0 1 21 21 81 81 0 0 1-63 81v23a21 21 0 0 1-41 0v-23a81 81 0 0 1-63-81c0-42 39-63 74-81 25-14 51-28 51-44a40 40 0 0 0-42-42 40 40 0 0 0-41 42 21 21 0 0 1-42 0 81 81 0 0 1 63-81v-23a21 21 0 0 1 41 0v23a81 81 0 0 1 63 81c0 41-39 62-74 81-25 13-51 27-51 44a40 40 0 0 0 37 42 41 41 0 0 0 4 0 40 40 0 0 0 42-42 21 21 0 0 1 21-21z m409 500a250 250 0 0 1-384-163 21 21 0 0 1 17-24 19 19 0 0 1 3 0 21 21 0 0 1 21 17 208 208 0 0 0 320 135 21 21 0 0 1 24 35z m-101-413a21 21 0 0 1 4-41 19 19 0 0 1 4 0 250 250 0 0 1 163 384 21 21 0 0 1-35-23h0a208 208 0 0 0-136-320z m-37 538a334 334 0 0 1-327-267c-1-7-3-14-4-22a21 21 0 0 1 42-5c1 6 2 13 3 19a292 292 0 1 0 344-344c-6-1-13-2-19-3a21 21 0 0 1 2-42h3q11 2 22 4a333 333 0 0 1-66 660z m-100-399l10 60-42 40a29 29 0 0 0-9 20 29 29 0 0 0 8 21 30 30 0 0 0 17 8l60 9 25 53a29 29 0 0 0 38 14 29 29 0 0 0 14-14l27-54 58-8a29 29 0 0 0 16-49l-44-42 11-58a29 29 0 0 0-24-33 29 29 0 0 0-18 3l-54 28-51-28a29 29 0 0 0-39 12 30 30 0 0 0-3 18z m33 80a29 29 0 0 0 8-26l-9-55 49 26a29 29 0 0 0 14 4 29 29 0 0 0 13-4l50-26-10 55a29 29 0 0 0 8 26l40 39-55 8a29 29 0 0 0-22 16l-26 53-23-53a29 29 0 0 0-22-16l-55-8z" horiz-adv-x="1000" />

<glyph glyph-name="icon-enviapremios" unicode="&#xe80a;" d="M262 135a143 143 0 0 1-140-119h-82v-47h82a143 143 0 1 1 140 166z m0-238a95 95 0 1 0 95 96 96 96 0 0 0-95-96z m798 433a24 24 0 0 0-24-24h-40a83 83 0 0 0-83 84v39a24 24 0 0 0 47 0v-39a36 36 0 0 1 36-36h40a24 24 0 0 0 24-24z m183 10l-225 257a103 103 0 0 1-78 35h-119v194a24 24 0 0 1-23 24h-699v-47h675v-787h-298v-47h420a142 142 0 0 1 280 0h19a83 83 0 0 1 83 83v194a143 143 0 0 1-35 94z m-207-443a95 95 0 1 0 95 96 96 96 0 0 0-95-96z m195 155a36 36 0 0 0-36-36h-19a142 142 0 0 1-280 0h-75v568h119a56 56 0 0 0 42-19l225-256a95 95 0 0 0 24-63z m-520 357l-258-159a23 23 0 0 0-12-3 24 24 0 0 0-24 24v36h-258v47h282a24 24 0 0 0 23-24v-17l190 116-190 117v-17a24 24 0 0 0-23-24h-242v47h218v36a24 24 0 0 0 36 20l258-158a24 24 0 0 0 0-41z m-584 96h-127v47h127z" horiz-adv-x="1278" />

<glyph glyph-name="icon-lifemiles" unicode="&#xe80b;" d="M614 322a65 65 0 0 1-51 12h-116a91 91 0 0 1-89 71h-107a91 91 0 0 1-89-71h-80a90 90 0 0 1-68-16 54 54 0 0 1-14-40v-284a56 56 0 0 1 55-55 72 72 0 0 1-2-16 73 73 0 0 1 147 0 72 72 0 0 1-2 16h230a73 73 0 1 1 145-16 72 72 0 0 1-1 16 56 56 0 0 1 55 55v285a59 59 0 0 1-13 43z m-363 43h107a51 51 0 0 0 47-31h-201a51 51 0 0 0 47 32z m247-386h-369v226h369z m-338-56a33 33 0 1 0-67 0 32 32 0 0 0 5 16h58a33 33 0 0 0 4-16z m340-33a33 33 0 0 0-33 33 32 32 0 0 0 4 16h58a33 33 0 0 0 4-16 33 33 0 0 0-33-33z m71 89h-33v247a20 20 0 0 1-20 20h-409a20 20 0 0 1-20-20v-247h-33a16 16 0 0 0-16 15v285a18 18 0 0 0 3 11 62 62 0 0 0 31 4h489c9 0 20 0 22 0a39 39 0 0 0 2-15v-285a16 16 0 0 0-16-15z m380 770a65 65 0 0 1-51 12h-96v33a56 56 0 0 1-55 56h-178a56 56 0 0 1-55-56v-33h-97a91 91 0 0 1-67-16 54 54 0 0 1-14-39v-249a20 20 0 0 1 40 0v249a18 18 0 0 0 2 11 86 86 0 0 0 39 4h482c9 0 20 0 22 0a39 39 0 0 0 1-15v-658a16 16 0 0 0-15-16h-33v389a56 56 0 0 1-56 56h-338a56 56 0 0 1-55-56v-18a20 20 0 0 1 40 0v18a16 16 0 0 0 15 16h338a16 16 0 0 0 16-16v-389h-158a20 20 0 0 1 0-40h88a75 75 0 0 1-2-15 73 73 0 1 1 145 15 56 56 0 0 1 55 56v658a59 59 0 0 1-13 43z m-395 45a16 16 0 0 0 15 16h178a16 16 0 0 0 15-16v-33h-208z m282-851a33 33 0 0 0-34 34 33 33 0 0 0 5 15h58a33 33 0 0 0 4-15 33 33 0 0 0-33-34z m-320 565h266a91 91 0 0 1 0 182h-266a91 91 0 0 1 0-182z m0 142h266a51 51 0 0 0 0-102h-266a51 51 0 0 0 0 102z" horiz-adv-x="964" />

<glyph glyph-name="icon-listadeseos" unicode="&#xe80c;" d="M372-9a353 353 0 0 1 36-43h-345a64 64 0 0 0-63 64v774h0a64 64 0 0 0 63 64h511a64 64 0 0 0 63-64v-540a154 154 0 0 1-42-14v554a21 21 0 0 1-21 21h-511a21 21 0 0 1-21-21v-774a21 21 0 0 1 21-21z m159 699h-425v-43h425z m0-129h-425v-43h425z m0-129h-425v-43h425z m0-128h-425v-43h425z m-425-172h230a149 149 0 0 0 10 43h-240z m670-17a256 256 0 0 0-8-61c-22-88-155-177-195-202a17 17 0 0 0-18 0 811 811 0 0 0-110 83 437 437 0 0 0-44 45 194 194 0 0 0-40 74 256 256 0 0 0-9 61 173 173 0 0 0 1 19 118 118 0 0 0 17 50 108 108 0 0 0 93 47 122 122 0 0 0 101-47 89 89 0 0 0 21 21 127 127 0 0 0 49 22 145 145 0 0 0 32 4 112 112 0 0 0 76-27 115 115 0 0 0 34-89z m-34 0a82 82 0 0 1-23 63 78 78 0 0 1-53 19 113 113 0 0 1-25-3 94 94 0 0 1-36-17 56 56 0 0 1-12-13l-14-21a17 17 0 0 0-29 0l-14 21a91 91 0 0 1-73 33h0a74 74 0 0 1-64-31 84 84 0 0 1-11-36 144 144 0 0 1-1-15 222 222 0 0 1 7-52 160 160 0 0 1 34-61 406 406 0 0 1 40-41 767 767 0 0 1 96-73c75 48 157 117 171 175a220 220 0 0 1 7 52z" horiz-adv-x="777" />

<glyph glyph-name="icon-outlet" unicode="&#xe80d;" d="M979 240l-377 382c33-8 64-13 74-14a616 616 0 0 1 92-8 192 192 0 0 1 136 39 59 59 0 0 1 4 83c-52 58-218 67-236 67a642 642 0 0 1-213-22l-75 77a20 20 0 0 1-15 6h-246a20 20 0 0 1-14-6l-103-104a21 21 0 0 1-6-15v-250a21 21 0 0 1 6-15l595-604a20 20 0 0 1 29 0l0 0 349 354a21 21 0 0 1 0 30z m-309 507v0c64-2 177-19 208-53a18 18 0 0 0-2-25c-17-16-65-40-194-20a373 373 0 0 0-147 44 20 20 0 0 1-8 5l-34 34a587 587 0 0 0 177 15z m-629-264v233l91 92h229l53-54a757 757 0 0 1-104-43 122 122 0 0 1-84 35 125 125 0 1 1 123-127v2a126 126 0 0 1-14 56 761 761 0 0 0 112 43l365-370-320-325z m267 138a82 82 0 1 0-82 83 82 82 0 0 0 82-83z m307-721l-94 96 320 324 94-95z m56 457l-185-187 0-1a20 20 0 0 0-29 1 21 21 0 0 0 0 29l185 187 0 1a20 20 0 0 0 29-1 21 21 0 0 0 0-29z m-62 63l-184-188-1 0a20 20 0 0 0-28 0 21 21 0 0 0 0 29l184 188 1 0a20 20 0 0 0 28 0 21 21 0 0 0 0-29z m-61 62l-185-187 0-1a20 20 0 0 0-29 1 21 21 0 0 0 0 29l185 188 0 0a20 20 0 0 0 29 0 21 21 0 0 0 0-30z" horiz-adv-x="985" />

<glyph glyph-name="materiales2" unicode="&#xe80e;" d="M436 650c0 0 0 0 0 0h-33c3 12 4 24 4 37 0 90-73 163-164 163-89 0-163-73-163-163 0-13 2-25 5-37h-41c-23 1-43-18-44-42l0-716c1-24 21-42 44-42 0 0 0 0 0 0h392c23 0 43 18 44 43v715c-1 23-21 42-44 42z m-193 187c83 0 151-67 151-150 0-15-3-28-6-42-1-3-3-8-4-11 0-1-1-3-1-3 0-3-2-6-3-9-1-2-2-4-2-6-1-2-2-3-3-5-2-3-3-5-5-9-1 0-1-1-2-2-2-4-5-7-8-10 0 0 0 0 0 0-3-4-6-7-10-11 0 0 0 0 0 0-3-3-7-6-10-9-1-1-1-1-2-2-3-2-6-5-9-7-2 0-4-1-5-3-3-2-5-3-8-4-3-1-4-3-7-4-2-1-4-2-7-3-1-1-3-2-6-3-2-1-5-2-8-3-1 0-3-1-4-1-3-1-7-2-11-3-1 0-1 0-1 0-5 0-9-1-14-1-1 0-1 0-2 0-4 0-9-1-13-1-1 0-3 0-4 0-3 0-8 0-11 1-3 0-4 1-7 1-2 0-5 0-7 0-3 1-6 1-9 2-2 1-4 1-6 2-2 0-3 1-4 2-4 0-7 2-10 3-1 0-1 0-2 1-4 2-9 4-13 6 0 0 0 0-1 0-25 14-46 34-60 60 0 1 0 1 0 2-2 4-4 8-6 11 0 2-1 4-1 5-1 2-2 5-3 6-1 3-2 5-2 7-4 14-6 28-6 42 2 84 70 151 152 151z m224-944c-1-17-14-30-31-30 0 0 0 0 0 0h-392c-17-1-30 13-31 30l0 715c1 16 14 29 31 29 0 0 0 0 0 0h44c1-1 1-2 2-4 1-2 1-5 2-8 1-1 2-3 2-5 15-33 39-60 72-77 0 0 0 0 0 0 4-3 9-6 13-7 0 0 0 0 1 0 5-2 8-4 12-4 2-1 3-1 4-2 1 0 2-1 2-1 2-1 4-1 5-1 4-1 6-2 10-2 2-1 6-1 8-2 3 0 4-1 7-1 4 0 9-1 13-1 1 0 2 0 2 0 0 0 0 0 1 0 5 0 11 0 16 1 0 0 1 0 1 0 5 1 10 2 14 3 1 0 1 0 2 0 4 0 8 1 13 3 0 0 2 1 3 1 3 1 6 2 9 3 2 1 5 2 6 3 3 1 5 2 8 3 3 1 5 3 7 4 0 0 1 0 1 0 3 2 6 4 8 6 1 0 3 1 4 1 24 17 42 39 55 65 4 7 6 14 9 22h36c0 0 0 0 0 0 17 0 30-13 31-30v-714z m-66 593h-323c-7 0-12-5-12-12v-154c0-7 5-12 12-12h323c7 0 12 5 12 12v154c0 7-5 12-12 12z m4-166c0-2-2-4-4-4h-323c-2 0-4 2-4 4v154c0 2 2 4 4 4h323c2 0 4-2 4-4v-154z m-71 77v19c5-1 10-3 14-7l6 10c-6 4-12 7-20 7v6h-9v-6c-14 0-23-8-23-19v0c0-11 7-17 23-21v-19c-7 1-14 4-20 8l-6-8c8-6 16-10 26-11l0-10h9v10c14 1 23 9 23 20v0c1 11-7 18-23 21z m-9 3c-8 3-10 5-10 9v0c0 5 4 8 10 9v-18z m20-24l0 0c0-5-4-8-11-8v17c8-2 11-5 11-9l0 0z m56-92h-323c-7 0-12-5-12-12v-155c0-6 5-12 12-12h323c7 0 12 6 12 12v155c0 6-5 12-12 12z m4-167c0-1-2-3-4-3h-323c-2 0-4 2-4 3v155c0 2 2 3 4 3h323c2 0 4-1 4-3v-155z m-71 78v19c5-1 10-4 14-7l6 9c-6 5-12 7-20 8v6h-9v-6c-14-1-23-8-23-20v0c0-11 7-17 23-20v-20c-7 1-14 5-20 9l-6-9c8-6 16-9 26-10l0-10h9v10c14 1 23 9 23 20v0c1 11-7 17-23 21z m-9 2c-8 2-10 5-10 9v0c0 4 4 8 10 9v-18z m20-24l0 0c0-5-4-8-11-9v18c8-1 11-4 11-9l0 0z m56-92h-323c-7 0-12-5-12-11v-155c0-7 5-12 12-12h323c7 0 12 5 12 12v154c0 6-5 12-12 12z m4-167c0-2-2-3-4-3h-323c-2 0-4 1-4 3v155c0 1 2 3 4 3h323c2 0 4-2 4-3v-155z m-71 78v19c5-1 10-4 14-7l6 9c-6 5-12 9-20 9v6h-9v-6c-14-1-23-9-23-20v0c0-11 7-17 23-21v-19c-7 1-14 4-20 8l-6-8c8-6 16-10 26-10l0-11h9v11c14 0 23 8 23 19v0c1 11-7 17-23 21z m-9 2c-8 3-10 5-10 10v0c0 4 4 7 10 8v-18z m20-24l0 0c0-5-4-7-11-8v18c8-2 11-5 11-10l0 0z m-127 612c8-3 17-4 25-4 9 0 18 1 26 4 6 3 4 16 3 21-3 7-4 15-4 22 1 14 3 28 4 41 0 3 1 6 0 6 1 2 0 35-3 36 2 0 1 4 1 6-1 5-5 16-9 28-1 6-3 12-5 19 0 5 0 10 0 16 1 0 2 1 2 3-1 3-2 4-3 7 0 1 0 2 1 2 1 0 1 2 1 3-1 2-2 2-3 2-7 1-13 1-20 0-1 0-3-1-3-2-1-1 0-3 0-3 1-1 1-1 1-2-1-2-1-4-2-7 0-1 0-3 1-3 0-6 0-11 0-16-1-7-3-13-6-19-3-12-7-23-8-28 0-2-1-6 1-6-4-1-4-34-3-36-1 0-1-3-1-6 3-13 4-27 5-41 0-7-1-15-4-22-1-5-2-18 3-21z" horiz-adv-x="480" />

<glyph glyph-name="icon-puntosnoven" unicode="&#xe80f;" d="M647 183a329 329 0 0 0-324-333 314 314 0 0 0-196 69 21 21 0 0 0-4 29l0 1a20 20 0 0 0 28 3 275 275 0 0 1 172-60 288 288 0 0 1 283 291 288 288 0 0 1-283 292 288 288 0 0 1-283-292 295 295 0 0 1 59-177 21 21 0 0 0-4-29l-1-1a20 20 0 0 0-27 4 337 337 0 0 0-67 203 329 329 0 0 0 323 334 329 329 0 0 0 324-334z m-219 355a20 20 0 0 1 20 17 204 204 0 0 0 199 170 197 197 0 0 0 112-35 20 20 0 0 1 27 5l1 1a21 21 0 0 1-6 29 236 236 0 0 1-134 42 244 244 0 0 1-239-205 21 21 0 0 1 16-24 18 18 0 0 1 4 0z m255-226a21 21 0 0 1-16-24 20 20 0 0 1 20-17 18 18 0 0 1 4 0 248 248 0 0 1 198 246 255 255 0 0 1-40 138 20 20 0 0 1-28 6l0 0a21 21 0 0 1-6-29 213 213 0 0 0 34-115 207 207 0 0 0-166-205z m4-126c1 0 2 0 3 0 7 1 14 2 21 4a332 332 0 0 1 259 327 329 329 0 0 1-323 333 327 327 0 0 1-317-267q-2-11-4-22a21 21 0 0 1 18-23 20 20 0 0 1 22 18v0c1 6 2 13 3 19a286 286 0 0 0 277 233 288 288 0 0 0 283-291 290 290 0 0 0-226-286c-6-1-12-3-19-3a21 21 0 0 1-17-24 20 20 0 0 1 20-18z m-229 205a236 236 0 0 1-134 42 247 247 0 0 1-243-250 247 247 0 0 1 243-250 247 247 0 0 1 242 250 255 255 0 0 1-41 139 20 20 0 0 1-27 6l-1 0a21 21 0 0 1-5-29 213 213 0 0 0 34-116 206 206 0 0 0-202-208 208 208 0 0 0 0 417 197 197 0 0 0 112-35 20 20 0 0 1 27 5l1 0a21 21 0 0 1-6 29z m-215-208a63 63 0 1 0 60 63 62 62 0 0 0-60-63z m0 42a21 21 0 1 1-21 21 21 21 0 0 1 21-21z m161-42a63 63 0 1 0 61 63 62 62 0 0 0-61-63z m20 63a20 20 0 1 1-20-21h0a21 21 0 0 1 20 21z m-101-208a122 122 0 0 1 120 75 21 21 0 0 1-11 27 20 20 0 0 1-26-11l0 0a84 84 0 0 0-83-50 84 84 0 0 0-82 50 20 20 0 0 1-26 11l0 0a21 21 0 0 1-11-27 122 122 0 0 1 119-75z m384-37a20 20 0 0 1-24 15l-1 0a21 21 0 0 1-14-25l20-83a20 20 0 0 1 19-16 20 20 0 0 1 5 0 21 21 0 0 1 15 25z m207 140l-81 21a20 20 0 0 1-24-15l0 0a21 21 0 0 1 15-25l80-21a19 19 0 0 1 5-1 20 20 0 0 1 20 16 21 21 0 0 1-15 25z m-132-68a20 20 0 0 1-28 1l-1-1a21 21 0 0 1 0-29l61-63a20 20 0 0 1 29 0 21 21 0 0 1 0 30z m-519 626a20 20 0 0 1 20-16 20 20 0 0 1 5 1 21 21 0 0 1 14 25l-20 84a20 20 0 0 1-24 15l0 0a21 21 0 0 1-15-25z m-207-140l81-21a19 19 0 0 1 5 0 20 20 0 0 1 19 15 21 21 0 0 1-14 26l-81 20a20 20 0 0 1-25-14l0-1a21 21 0 0 1 15-25z m132 68a20 20 0 0 1 28 0 21 21 0 0 1 0 29l-60 63a20 20 0 0 1-28 1l-1-1a21 21 0 0 1 0-29z m526-206l-53 28-52-28a29 29 0 0 0-39 12 30 30 0 0 0-3 18l10 60-42 40a29 29 0 0 0 16 49l60 9 25 53a29 29 0 0 0 38 13 29 29 0 0 0 14-13l26-54 58-8a29 29 0 0 0 17-49l-44-42 11-58a29 29 0 0 0-24-33 31 31 0 0 0-4-1 29 29 0 0 0-14 4z m-39 55l50-26-10 55a29 29 0 0 0 8 26l40 39-55 8a29 29 0 0 0-21 16l-26 53-24-53a29 29 0 0 0-22-16l-55-8 40-39a29 29 0 0 0 8-26l-9-55 49 26a29 29 0 0 0 27 0z" horiz-adv-x="970" />

<glyph glyph-name="activo" unicode="&#xe810;" d="M493 599c68 0 125 56 125 125 0 69-57 125-125 125-69 0-125-56-125-125 0-69 55-125 125-125z m0 220l0 0c51 0 93-43 93-94 0 0 0 0 0 0 0-51-42-94-93-94-52 0-94 43-94 94 0 51 41 94 94 94z m-103-590v-135h0v-1h213v1 136c33 9 58 40 58 76v195c0 44-36 80-80 80h-88v-31h88c27 0 48-21 48-47v-194c0-19-11-35-28-43v165h-31v-338h-61v150h-31v-150h-55v338h-32v-170c-20 7-33 24-33 45v195c0 27 21 48 47 48h89v31h-89c-44 0-80-35-80-80v-194c-1-38 28-71 65-77z m514-120c-15 59-109 107-254 130l-5-31c120-18 208-57 225-99h-82v-31h82c-24-53-165-107-362-109v86h-32v-86c-196 2-337 56-362 109h91v31h-91c19 41 104 79 221 97l-5 32c-142-22-235-70-249-129h-81v-31h81c19-79 182-138 395-142v-86h32v86c213 3 376 61 396 142h89v31h-89z" horiz-adv-x="1000" />

<glyph glyph-name="broxel_activo" unicode="&#xe811;" d="M173 257v46c0 7 7 14 14 14h110c6 0 13-7 13-14v-46c0-7-7-14-13-14h-110c-10 0-14 4-14 14z m240-94c0-6-6-13-13-13h-177c-6 0-13 7-13 13v47c0 7 7 13 13 13h177c7 0 13-6 13-13v-47z m74 94c0-7-7-14-14-14h-110c-6 0-13 7-13 14v46c0 7 7 14 13 14h110c7 0 14-7 14-14v-46z m173 0c0-7-7-14-13-14h-110c-7 0-14 7-14 14v46c0 7 7 14 14 14h110c6 0 13-7 13-14v-46z m177 43v-47c0-6-7-13-14-13h0 0-110c-6 0-13 7-13 13v47c0 7 7 13 13 13h110c7 0 14-3 14-13z m-180 170c0 0 0 0 0 0 0 0 0 0 0 0 0 0 0 0 0 0 0 0 0 0 0 0z m173 147h-60-223-367c-43 0-80-37-80-80v-374c0-43 37-80 80-80h653c44 0 80 37 80 80v374c-3 43-36 80-83 80z m53-454c0-30-23-53-53-53h-650c-30 0-53 23-53 53v374c0 30 23 53 53 53h350 260 43c30 0 54-23 54-53v-374z m-183 137v-47c0-6 7-13 13-13h110c7 0 14 7 14 13v47c0 7-7 13-14 13h-110c-6 0-13-3-13-13z m27-10h83v-20h-83v20z m-504-140h177c7 0 13 7 13 13v47c0 7-6 13-13 13h-177c-6 0-13-6-13-13v-47c0-6 7-13 13-13z m14 47h153v-20h-153 0v20z m60 116h-114c-6 0-13-6-13-13v-47c0-6 7-13 13-13h110c7 0 14 7 14 13v47c3 10-4 13-10 13z m-14-46h-86v20h83v-20z m364 46h-110c-7 0-14-6-14-13v-47c0-6 7-13 14-13h110c6 0 13 7 13 13v47c0 10-3 13-13 13z m-10-46h-84v20h84v-20z m-164 46h-110c-6 0-13-6-13-13v-47c0-6 7-13 13-13h110c7 0 14 7 14 13v47c0 10-7 13-14 13z m-13-46h-83v20h83v-20z m53 203c0-50 40-90 90-90 20 0 40 7 57 20 17-13 33-20 57-20 50 0 90 40 90 90 0 50-40 90-90 90-20 0-40-7-57-20-17 13-33 20-57 20-50 0-90-40-90-90z m90 57c14 0 24-4 34-14 0 0 0 0 0 0s0 0 0 0c0 0 3-3 6-6 7-4 20-7 34 6 0 0 0 0 0 0 0 0 0 0 0 0 10 7 20 14 33 14 30 0 57-27 57-57s-27-57-57-57c-13 0-23 4-33 14 0 0 0 0 0 0 0 0 0 0 0 0-17 16-27 13-37 6-3-3-7-6-7-6 0 0 0 0 0 0-10-7-20-14-33-14-30 0-57 27-57 57s27 57 60 57z" horiz-adv-x="1000" />

<glyph glyph-name="canjeados" unicode="&#xe812;" d="M728 352c-8 0-14-7-14-13v-336c0-6-4-10-10-10h-407c0 0 0 0 0 0-3 0-6 1-7 3-2 2-3 5-3 7v336c0 7-7 13-14 13s-13-7-13-13v-336c0-10 4-20 11-27 7-6 17-11 27-11 0 0 0 0 0 0h407c22 0 38 17 38 38v336c-1 6-8 13-15 13z m-456 260c8 0 13 7 13 13v72c0 6 5 10 10 10h408c6 0 10-4 10-10v-72c0-8 7-13 14-13s13 7 13 13v72c0 22-17 38-38 38h-408c-21 0-37-16-37-38v-72c2-8 7-13 15-13z m48-260c-8 0-13-7-13-13v-217c0-8 6-13 13-13h359c8 0 13 6 13 13v215c0 8-7 14-13 14s-14-7-14-14v-202h-331v202c0 8-6 15-14 15z m132-263c-21 0-38-17-38-38 0-21 17-38 38-38h96c21 0 37 17 37 38h0c0 21-16 38-37 38h-96z m106-38c0 0 0 0 0 0 0-2-1-6-4-7s-4-3-6-3h-96c-5 0-10 4-10 10 0 5 5 10 10 10h96c2 0 5-1 6-4 3-2 4-4 4-6z m-130 636c-8 0-14-6-14-13s7-13 14-13h143c8 0 13 6 13 13s-6 13-13 13h-143z m-74-13c0-14 11-25 26-25s25 11 25 25-11 26-25 26-26-13-26-26z m28 0c0-2-3-2-3 0 0 1 1 2 2 2 0-1 1-2 1-2z m408-180c0 0 0 1 0 1 0 1 0 2 0 2 0 2-1 3-1 3 0 0 0 1-1 1l-96 132c-2 3-7 6-11 6h-72c0 0 0 0 0 0h-288c-4 0-9-3-11-6l-96-132c0 0 0-1-1-1 0-1-1-3-1-4 0-1 0-1 0-2 0-1 0-1 0-1v-53c0-38 30-68 68-68 22 0 43 10 55 27 13-17 33-28 56-28 0 0 0 0 0 0 22 0 42 11 56 28 12-17 32-28 55-28 0 0 0 0 0 0 22 0 42 11 56 28 12-17 32-27 54-27 19 0 36 7 49 20 2 2 4 5 7 8 12-17 32-27 54-28 39-1 69 30 70 68 0 0 0 0 0 0l-2 54z m-41 13h-74l-45 105h43l76-105z m-394 0l46 105h47l-16-105h-77z m122 105h47l16-105h-78l15 105z m91-105l-16 105h47l45-105h-76z m-240 105h43l-46-105h-73l76 105z m392-211c-22 0-39 18-41 39 0 0 0 1 0 1 0 3-1 8-5 10-5 5-14 5-20 0-2-2-4-7-4-10 0 0 0-1 0-1-1-10-5-20-12-28-8-8-19-12-29-11-22 0-40 18-41 41 0 8-7 13-14 13 0 0 0 0 0 0-7 0-13-6-13-13 0-22-19-41-41-41 0 0 0 0 0 0-22 0-40 18-41 40 0 0 0 1 0 1 0 3-1 7-5 10-5 5-14 5-20 0-2-2-4-7-4-10 0 0 0-1 0-1-1-22-19-40-41-40 0 0 0 0 0 0-22 0-40 18-41 40 0 0 0 1 0 1 0 3-1 8-5 10-5 5-14 5-20 0-2-2-4-7-4-10 0 0 0-1 0-1-1-22-20-40-42-39-23 0-40 18-42 40v39h97c0 0 0 0 0 0 0 0 0 0 0 0h331c0 0 0 0 0 0 0 0 0 0 0 0h97l0-39c1-23-18-42-40-41z m-78-101c-5 5-14 5-20 0l-120-120c-5-6-5-15 0-20 2-3 7-5 10-5 3 0 7 1 10 5l120 120c6 5 6 14 0 20z m-20-71l-48-48c-5-6-5-15 0-20 3-2 7-5 10-5s7 1 10 5l48 48c6 5 6 14 0 20s-14 4-20 0z" horiz-adv-x="1000" />

<glyph glyph-name="credito_pro" unicode="&#xe813;" d="M477 363c6 10 3 24-7 30 0 0 0 0 0 0-40 27-90 44-140 44-137 0-250-114-250-250 0-137 113-250 250-250 137 0 250 113 250 250 0 50-13 96-40 140-7 10-20 13-30 6-10-6-13-20-7-30 0 0 0 0 0 0 24-33 34-73 34-116 0-117-94-207-207-207-117 0-207 93-207 207 0 116 94 206 207 206 40 0 80-13 117-36 13-7 23-4 30 6z m-144 154c-183 0-333-150-333-334 0-73 23-143 70-203 7-10 20-10 30-3 10 6 10 20 3 30-40 50-60 113-60 176 0 160 130 290 294 294 160 0 290-130 293-294 0-160-130-290-293-293-64 0-127 20-177 60-10 7-23 7-30-3-7-10-7-24 3-30 57-44 127-67 200-67 184 0 334 150 334 333 0 184-150 334-334 334z m64-294c10 0 20 10 20 20 0 37-27 74-64 80v27c0 10-10 20-20 20-10 0-20-10-20-20v-23c-36-10-63-44-63-80 0-40 40-64 73-80 27-14 50-27 50-44 0-23-16-40-36-40 0 0-4 0-4 0-23 0-40 17-40 37 0 0 0 3 0 3 0 10-10 20-20 20-10 0-20-10-20-20 0-36 27-73 64-80v-26c0-10 10-20 20-20 10 0 20 10 20 20v23c36 10 63 43 63 80 0 40-40 63-73 80-27 13-50 27-50 43 0 24 16 40 36 44 0 0 4 0 4 0 23 0 40-17 40-37 0 0 0-3 0-3 0-14 6-24 20-24z m410 500c-40 27-90 44-140 44-120 0-224-87-247-204-3-10 7-23 17-23 0 0 3 0 3 0 10 0 20 7 20 17 17 100 103 170 203 170 40 0 80-14 117-37 10-7 23-3 30 7 7 10 7 20-3 26 0 0 0 0 0 0z m-104-410c-10-3-20-13-16-23 3-10 10-17 20-17 0 0 3 0 3 0 120 24 203 127 203 247 0 50-13 97-40 137-6 10-20 13-30 6-10-6-13-20-6-30 0 0 0 0 0 0 23-33 33-73 33-116 3-100-67-187-167-204z m-36 537c-157 0-294-110-327-267 0-6-3-13-3-23 0-10 6-23 16-23 10 0 24 6 24 16 0 7 3 14 3 20 27 137 147 234 287 234 160 0 290-130 293-294 0-140-97-256-233-286-7 0-14-4-20-4-10 0-20-13-17-23 0-10 10-17 20-17 0 0 3 0 3 0 7 0 14 4 24 4 156 33 266 170 266 326-3 187-153 337-336 337z m3-380l20 37c10-4 17-7 27-7 36 0 63 30 63 63 0 37-30 64-63 64s-64-30-64-64c0 0 0-3 0-3l-43-10c-3 13-13 23-30 23-17 0-30-13-30-30 0-16 13-30 30-30s30 14 30 30c0 4 0 4 0 7l50 10c3-23 17-43 33-50l-23-40c-7 3-10 3-17 3-23 0-43-20-43-43s20-43 43-43 44 20 44 43c0 20-10 33-27 40z" horiz-adv-x="1000" />

<glyph glyph-name="dinamico" unicode="&#xe814;" d="M311 503c82 0 148 66 148 147 0 81-66 148-148 148s-147-67-147-148 66-147 147-147z m0 260c62 0 112-50 112-112 0-61-50-111-112-111s-111 49-111 110 50 113 111 113z m105-284h-105 0-105c-52 0-93-41-93-94v-230c0-46 33-85 77-92v-157-1-3h36v3h214v1 1 158c40 10 70 48 70 90v230c0 53-41 94-94 94z m58-324c0-24-14-44-34-52v200h-36v-397h-73l-2 229-36 0 2-229h-69v397h-36v-203c-24 6-41 29-41 55v230c0 31 26 58 57 58h105 0 105c32 0 58-27 58-58v-230z m295 361c79 0 141 64 141 142 0 78-62 142-141 142-79 0-141-64-141-141s63-143 141-143z m0 252l0 0c41 0 77-24 96-58l-9-9-23 24-98-97-31 31-24-24 55-55 120 120 0 0 9 9c9-15 12-33 12-51 0-60-48-109-108-109-60 0-109 49-109 109 1 61 50 110 110 110z m0-277c-79 0-141-63-141-141s63-141 141-141c79 0 141 64 141 141 0 79-62 141-141 141z m0-250c-60 0-109 49-109 109 0 60 49 109 109 109 41 0 77-23 95-58l-9-8-22 22-98-97-30 32-24-24 55-55 120 120 0 0 9 9c9-15 13-32 13-51 0-59-49-108-109-108z m0-57c-79 0-141-64-141-141s63-143 141-143c79 0 141 64 141 141 0 79-62 143-141 143z m0-252c-60 0-109 49-109 109 0 60 49 109 109 109v0c41 0 77-22 95-57l-9-9-22 22-98-97-31 31-24-24 55-55 120 120 0 0 9 9c9-15 12-32 12-51 2-58-47-107-107-107z" horiz-adv-x="1000" />

<glyph glyph-name="experto" unicode="&#xe815;" d="M502 426a127 127 0 1 0 1 0z m0 229h0a101 101 0 1 1 0 0z m173-384h-28v60a34 34 0 0 1-34 34h-222a34 34 0 0 1-34-34v-60h-28v60a62 62 0 0 0 62 62h222a62 62 0 0 0 62-62z m213-81l-25 12a399 399 0 1 1-723 2l-25-11a427 427 0 1 0 773-3z m-487-290a14 14 0 0 0-14 16l18 106-77 75a14 14 0 0 0 8 24l106 15 48 96a14 14 0 0 0 12 8h0a14 14 0 0 0 13-8l47-96 107-15a14 14 0 0 0 11-10 14 14 0 0 0-4-14l-76-75 18-106a14 14 0 0 0-21-14l-95 50-95-50a14 14 0 0 0-6-2z m-33 197l62-60a14 14 0 0 0 4-12l-15-86 77 41a14 14 0 0 0 13 0l76-41-14 86a14 14 0 0 0 4 12l62 60-86 13a14 14 0 0 0-10 7l-39 78-38-78a14 14 0 0 0-10-7z m-4-147a14 14 0 0 0-7 1l-95 50-95-50a14 14 0 0 0-20 15l18 106-77 75a14 14 0 0 0 8 23l106 16 48 96a14 14 0 0 0 25 0l47-96 68-10-4-28-75 11a14 14 0 0 0-11 8l-38 77-38-77a14 14 0 0 0-11-8l-85-12 62-60a14 14 0 0 0 4-13l-15-85 77 40a14 14 0 0 0 13 0l76-40-7 42 27 5 12-70a14 14 0 0 0-13-16z m277 0a14 14 0 0 0-14 16l12 70 28-5-8-42 77 40a14 14 0 0 0 13 0l76-40-14 85a14 14 0 0 0 4 13l62 60-86 12a14 14 0 0 0-10 8l-39 77-38-77a14 14 0 0 0-10-8l-75-11-4 28 67 10 48 96a14 14 0 0 0 25 0l47-96 107-16a14 14 0 0 0 7-23l-77-75 19-106a14 14 0 0 0-21-15l-95 50-95-50a14 14 0 0 0-6-1z" horiz-adv-x="1000" />

<glyph glyph-name="favoritos_activo" unicode="&#xe816;" d="M723 503c-16 54-63 94-120 100-53 10-110-6-150-46-43 40-96 56-153 46-57-6-103-46-120-100-27-70-13-146 37-203 66-70 140-130 220-183 3-4 10-4 13-4 3 0 10 0 13 4 80 53 154 113 220 183 54 53 67 133 40 203z m-73-173c-60-63-127-117-200-167-70 50-137 104-200 167-37 43-47 103-27 153 14 37 47 67 84 70 6 0 13 0 20 0 40 4 80-16 103-46 3-4 3-4 7-7 10-7 26-3 36 7 30 36 77 56 124 46 36-3 70-33 80-70 20-50 10-110-27-153z m207-110c26 57 36 117 36 180 0 247-200 443-443 443-247 0-443-200-443-443 0-247 200-443 443-443 60 0 120 13 173 36 24-80 97-133 177-133 103 0 187 83 187 187 0 76-54 150-130 173z m-240-180c-54-23-110-37-167-37-217 0-393 177-393 397 0 217 176 393 393 393 217 0 393-176 397-396 0-60-14-117-40-170 0 0-4 0-4 0-103 0-186-84-186-187 0 3 0 0 0 0z m186-137c-66 0-123 44-136 110-4 10-4 20-4 34 0 6 0 16 4 23 10 60 56 107 116 117 7 0 14 3 20 3 10 0 24 0 34-3 63-17 106-74 106-137 0-87-63-147-140-147z m77 160h-60v60c0 10-10 20-20 20s-20-10-20-20c0 0 0 0 0 0v-60h-60c-10 0-20-10-20-20s10-20 20-20h60v-60c0-10 10-20 20-20s20 10 20 20v60h60c10 0 20 10 20 20s-10 20-20 20z" horiz-adv-x="1000" />

<glyph glyph-name="miles_experto" unicode="&#xe817;" d="M612 322c-12 12-28 12-52 12l-8 0-108 0c-8 40-44 72-88 72h-104c-44 0-80-32-88-72l-80 0c-28 0-52 0-68-16-8-8-16-24-16-40v-284c0-32 24-56 56-56 0-4 0-12 0-16 0-40 32-72 72-72s72 32 72 72c0 4 0 12 0 16h232c0-4 0-12 0-16 0-40 32-72 72-72s72 32 72 72c0 4 0 12 0 16 32 0 56 24 56 56l0 284c-4 16-8 32-20 44z m-360 44h108c20 0 40-12 48-32l-200 0c4 20 20 32 44 32z m244-388h-36c0 0 0 0 0 0h-292c0 0 0 0 0 0h-40v228h368v-228z m-336-56c0-16-16-32-32-32s-32 16-32 32c0 4 0 12 4 16h56c4-4 4-8 4-16z m340-32c-20 0-32 16-32 32 0 4 0 12 4 16h56c4-4 4-8 4-16 0-16-12-32-32-32z m72 88h-28c0 0 0 0 0 0h0v248c0 12-8 20-20 20h-416c-12 0-20-8-20-20v-248h0c0 0 0 0 0 0h-32c-8 0-16 8-16 16v284c0 8 0 12 4 12 4 4 16 4 32 4 4 0 4 0 8 0l8 0 472 0c8 0 20 0 20 0 0 0 0-4 0-16l0-284c4-8-4-16-12-16z m380 772c-12 12-28 12-52 12l-8 0-88 0v32c0 32-24 56-56 56h-176c-32 0-56-24-56-56v-32l-96 0c-24 0-52 0-68-16-8-8-16-24-16-40v-248c0-12 8-20 20-20s20 8 20 20v248c0 4 0 8 4 12 4 4 24 4 40 4l116 0c0 0 0 0 0 0s0 0 0 0l248 0c0 0 0 0 0 0s0 0 0 0l108 0 8 0c8 0 20 0 20 0 0 0 0-4 0-16v-656c0-8-8-16-16-16h-24c0 0 0 0 0 0h-4v388c0 32-24 56-56 56h-336c-32 0-56-24-56-56v-16c0-12 8-20 20-20s20 8 20 20v16c0 8 8 16 16 16h336c8 0 16-8 16-16v-388h-156c-12 0-20-8-20-20s8-20 20-20h88c0-4 0-12 0-16 0-40 32-72 72-72 40 0 72 32 72 72 0 4 0 12 0 16 32 0 56 24 56 56v656c-4 16-4 32-16 44z m-396 44c0 8 8 16 16 16h176c8 0 16-8 16-16v-32l-208 0v32z m280-852c-20 0-32 16-32 32 0 4 0 12 4 16h56c4-4 4-8 4-16 4-16-12-32-32-32z m-320 564h268c52 0 92 40 92 92 0 52-40 92-92 92h-268c-52 0-92-40-92-92 4-48 44-92 92-92z m0 144h268c28 0 52-24 52-52 0-28-24-52-52-52h-268c-28 0-52 24-52 52 4 28 24 52 52 52z" horiz-adv-x="964" />

<glyph glyph-name="mis_objetivos-1" unicode="&#xe818;" d="M443-2c-153 22-272 143-297 297l25 3c22-144 135-253 275-275l-3-25z m113-2l-4 26c144 21 257 134 279 278l25-3c-25-157-144-275-300-301z m274 405c-25 144-134 256-278 278l3 25c153-25 275-144 300-297l-25-6z m-659 3l-25 3c25 153 144 272 297 297l3-25c-140-22-253-134-275-275z m289-306c-109 16-196 103-212 213l25 3c16-97 94-175 191-191l-4-25z m79-1l-3 28c100 15 175 93 191 190l25-3c-16-109-103-197-213-215z m187 290c-15 96-90 175-190 190l3 25c109-15 197-103 212-212l-25-3z m-453 0l-25 3c16 109 103 197 212 212l4-25c-97-15-175-94-191-190z m627-24h-250c-6 75-62 131-137 137v250h-25v-250c-75-6-132-62-138-137h-250v-25h250c6-75 66-132 138-138v-250h25v250c71 6 131 66 137 138h250v25z m-400-138c-69 0-125 56-125 125 0 69 56 125 125 125v0c69 0 125-56 125-125 0-69-56-125-125-125z" horiz-adv-x="1000" />

<glyph glyph-name="no_vencen_pro" unicode="&#xe819;" d="M323 517a329 329 0 0 1-323-334 337 337 0 0 1 67-203 20 20 0 0 1 28-3 21 21 0 0 1 4 29 295 295 0 0 0-59 177 288 288 0 0 0 283 292 288 288 0 0 0 283-292 288 288 0 0 0-283-291 275 275 0 0 0-172 60 20 20 0 0 1-28-4 21 21 0 0 1 4-29 314 314 0 0 1 196-69 329 329 0 0 1 324 333 329 329 0 0 1-324 334z m324 250a244 244 0 0 1-239-205 21 21 0 0 1 16-24 19 19 0 0 1 4 0 20 20 0 0 1 20 17 204 204 0 0 0 198 170 197 197 0 0 0 113-35 20 20 0 0 1 28 6 21 21 0 0 1-6 29 236 236 0 0 1-134 42z m36-455a21 21 0 0 1-16-24 20 20 0 0 1 20-17 19 19 0 0 1 4 0 248 248 0 0 1 198 246 255 255 0 0 1-40 138 20 20 0 0 1-28 6 21 21 0 0 1-6-29 212 212 0 0 0 34-115 207 207 0 0 0-166-205z m4-126a20 20 0 0 1 3 0c7 1 14 2 21 4a332 332 0 0 1 259 327 329 329 0 0 1-323 333 327 327 0 0 1-317-267q-2-11-4-22a21 21 0 0 1 18-23 20 20 0 0 1 22 18c1 6 2 13 3 19a286 286 0 0 0 277 233 288 288 0 0 0 283-291 290 290 0 0 0-226-286c-6-1-12-3-19-3a21 21 0 0 1-17-24 20 20 0 0 1 20-18z m-229 205a236 236 0 0 1-135 42 247 247 0 0 1-242-250 247 247 0 0 1 242-250 247 247 0 0 1 243 250 255 255 0 0 1-41 139 20 20 0 0 1-28 6 21 21 0 0 1-5-29 212 212 0 0 0 33-116 206 206 0 0 0-202-208 206 206 0 0 0-202 208 206 206 0 0 0 202 209 197 197 0 0 0 113-35 20 20 0 0 1 28 5 21 21 0 0 1-6 29z m-155-145a62 62 0 0 1-61 62 62 62 0 0 1-60-62 62 62 0 0 1 60-63 62 62 0 0 1 61 63z m-81 0a21 21 0 0 0 21 21 21 21 0 0 0 20-21 21 21 0 0 0-20-21 21 21 0 0 0-21 21z m243 0a62 62 0 0 1-61 62 62 62 0 0 1-61-62 62 62 0 0 1 61-63 62 62 0 0 1 61 63z m-61-21a21 21 0 0 0-20 21 21 21 0 0 0 20 21 21 21 0 0 0 20-21 21 21 0 0 0-20-21z m-81-187a122 122 0 0 1 120 75 21 21 0 0 1-11 27 20 20 0 0 1-26-11 84 84 0 0 0-83-50 84 84 0 0 0-82 50 20 20 0 0 1-26 11 21 21 0 0 1-11-27 122 122 0 0 1 119-75z m414 436a20 20 0 0 1-27-12 84 84 0 0 0-82-49 122 122 0 0 0-22 2c1-2 1-3 1-5a109 109 0 0 0 16-39c2 0 3 0 5 0a122 122 0 0 1 120 76 21 21 0 0 1-11 27z m-109 107a62 62 0 0 1-60 63 62 62 0 0 1-61-63 62 62 0 0 1 61-62 62 62 0 0 1 60 62z m-60-21a21 21 0 0 0-21 21 21 21 0 0 0 21 21 21 21 0 0 0 20-21 21 21 0 0 0-20-21z m222 21a62 62 0 0 1-61 63 62 62 0 0 1-60-63 62 62 0 0 1 60-62 62 62 0 0 1 61 62z m-81 0a21 21 0 0 0 20 21 21 21 0 0 0 20-21 21 21 0 0 0-20-21 21 21 0 0 0-20 21z m-2-580a20 20 0 0 1-25 15 21 21 0 0 1-15-25l21-84a20 20 0 0 1 19-15 20 20 0 0 1 5 0 21 21 0 0 1 15 25z m207 140l-81 21a20 20 0 0 1-24-15 21 21 0 0 1 14-25l81-21a20 20 0 0 1 5-1 20 20 0 0 1 20 16 21 21 0 0 1-15 25z m-132-68a20 20 0 0 1-29 0 21 21 0 0 1 0-29l61-63a20 20 0 0 1 14-6 20 20 0 0 1 14 6 21 21 0 0 1 0 30z m-519 626a20 20 0 0 1 20-16 20 20 0 0 1 5 1 21 21 0 0 1 14 25l-20 84a20 20 0 0 1-24 15 21 21 0 0 1-15-25z m-207-140l81-21a20 20 0 0 1 4 0 20 20 0 0 1 20 15 21 21 0 0 1-15 26l-80 20a20 20 0 0 1-25-15 21 21 0 0 1 15-25z m132 68a20 20 0 0 1 14-6 20 20 0 0 1 14 6 21 21 0 0 1 0 29l-60 63a20 20 0 0 1-29 0 21 21 0 0 1 0-29z" horiz-adv-x="970" />

<glyph glyph-name="profesional" unicode="&#xe81a;" d="M176 430c73 0 132 59 132 131 0 0 0 0 0 0 0 73-59 132-132 132-72 0-131-59-131-132s59-131 131-131z m0 229l0 0c54 0 98-44 98-98 0-53-44-97-98-97-53 0-97 44-97 97 0 54 44 98 97 98z m722-93l96 112c2 2 4 6 4 11 0 9-8 16-17 16h-208v79c0 0 0 0 0 0 0 9-8 16-17 16h-281c0 0 0 0 0 0-9 0-16-7-16-16h0v-381l-84-47c-46 44-65 55-106 55h-93 0-92c-46 0-83-37-84-83v-204c0-41 30-75 69-81v-143 0h90v0h34v0h67v0l33 0v0h0l-2 334 73-13c4-1 9 0 12 3l84 59v-383h34v408l16 11c6 4 9 11 6 19l-20 61c0 1-1 2-1 2 0 0-1 2-1 2v111h192v-76c0-9 8-17 17-17h280l0 0c3 0 7 2 10 4 7 6 8 16 2 24l-97 117z m-439-241l-98-69-85 15c-1 0-2 0-2 0-9 0-16-7-16-16l1-355h-68v203h-33v-203h-55v355h-34v-179c-20 7-35 25-35 48v204c0 27 22 50 50 50h92v0h93c30 0 42-8 91-54 5-5 13-6 20-3l79 43v-39z m32 223v166l0 52h248v-218h-248z m227-94v61h38c0 0 0 0 0 0 9 0 17 8 17 16v142h172l-81-95c-5-7-5-15 0-22l84-102h-230z" horiz-adv-x="1000" />

<glyph glyph-name="activacuenta" unicode="&#xe81b;" d="M274-130l-5 9s-131 223-144 246c-37 64-5 98 5 107a69 69 0 0 0 86-1c25-21 54-51 71-69v321a81 81 0 0 0 81 81 81 81 0 0 0 81-81v-170c9-3 24-7 41-12 56-16 133-38 151-45a81 81 0 0 0 53-81v-183a261 261 0 0 0-44-114l-6-8z m-119 331c-12-10-10-31 4-56 12-20 112-193 138-236h326a222 222 0 0 1 32 85l0 182a43 43 0 0 1-28 43c-17 6-96 29-149 44-69 20-69 20-69 36v184a42 42 0 0 1-42 41 42 42 0 0 1-41-41v-368h-49l-6 7c0 0-46 50-80 79a28 28 0 0 1-18 6 28 28 0 0 1-18-6z m397 262v39h143v-39z m-532 0v39h143v-39z m456 177l103 102 27-28-102-102z m-368 74l28 28 102-102-28-28z m240-27v143h39v-143z" horiz-adv-x="714" />

<glyph glyph-name="agregardest" unicode="&#xe81c;" d="M834 517a333 333 0 1 1-511-282 510 510 0 0 1-323-385h85a426 426 0 0 0 415 333 334 334 0 0 1 334 334z m-334-250a250 250 0 1 0 250 250 250 250 0 0 0-250-250z m375-209v125h-83v-125h-125v-83h125v-125h83v125h126v83z" horiz-adv-x="1000" />

<glyph glyph-name="beneficios-1" unicode="&#xe81d;" d="M186-128a19 19 0 0 0-14 6l-142 142a19 19 0 0 0 0 26 18 18 0 0 0 7 5c15 16 70 73 93 97l9 11c32 35 84 95 144 95h343a253 253 0 0 0 179 105 19 19 0 0 0 18-26c0-2-58-119-89-192-32-75-76-156-183-156h-249l-103-107a19 19 0 0 0-13-6z m-19 262l-10-11c-19-22-64-69-86-91l114-114 95 99a19 19 0 0 0 13 6h258c77 0 112 49 149 133 21 49 53 118 73 159a201 201 0 0 1-136-120l-43-81a19 19 0 0 0-17-10h-228a19 19 0 1 0 0 37h217l37 69c1 3 2 5 3 7h-323c-43 0-90-54-116-83z m96 188a19 19 0 0 0-19 19v342a19 19 0 0 0 19 19h84v39a87 87 0 1 0 175 0v-39h83a19 19 0 0 0 19-19v-342a19 19 0 0 0-19-19z m19 38h304v304h-64v-23a19 19 0 1 0-38 0v23h-99v-23a19 19 0 1 0-38 0v23h-65z m103 381v-39h99v39a50 50 0 0 1-99 0z" horiz-adv-x="848" />

<glyph glyph-name="cambiarcontra" unicode="&#xe81e;" d="M253 129a279 279 0 1 0 279-279 279 279 0 0 0-279 279z m46 0a233 233 0 1 1 233 233 233 233 0 0 1-233-233z m178-124c-22 20-88 88-88 88l33 34 72-72 162 205 37-30-179-225a24 24 0 0 0-17-9 29 29 0 0 0-20 9z m354 282v47h177c17 0 24 21 24 21s-1 398 0 424-34 24-34 24-863 1-903 0-44-8-45-24-3-401-1-420a22 22 0 0 1 16-22h185v-47s-149-3-189 0a68 68 0 0 0-60 58s-2 400 0 439a68 68 0 0 0 64 62c27 1 900 1 951 0a60 60 0 0 0 61-59c3-17 1-418 0-448s-40-54-61-55c-7 0-29 0-57 0-55 0-128 0-128 0z m-25 261l-47-54-36 35 43 44-59 32 21 43 56-30v75h48v-76l56 30 23-42-65-33 46-43-36-35z m-279 0l-48-54-35 35 44 44-59 32 20 43 56-30v75h48v-76l56 30 23-42-65-33 46-43-36-35z m-279 0l-48-54-35 35 44 44-59 32 20 43 56-30v75h48v-76l56 30 23-42-65-33 46-43-36-35z" horiz-adv-x="1079" />

<glyph glyph-name="certificados" unicode="&#xe81f;" d="M886 595a60 60 0 0 1-59 58h-184v16a181 181 0 0 1-362 0v-15h-184a59 59 0 0 1-59-58l-38-686v-2a58 58 0 0 1 58-58h808a59 59 0 0 1 58 60z m-564 74a140 140 0 1 0 280 0v-16h-280z m543-778h-806a18 18 0 0 0-18 17l38 686a18 18 0 0 0 18 18h184v-42a68 68 0 0 1 15-134h0a68 68 0 0 1 26 131v45h280v-45a68 68 0 0 1 26-131h0a68 68 0 0 1 15 134v42h183a19 19 0 0 0 19-19l38-685a17 17 0 0 0-18-17z m-580 637h22a27 27 0 0 0 8-5 27 27 0 0 0-19-46h0a27 27 0 0 0-11 51z m332 0h22a27 27 0 0 0 8-43 26 26 0 0 0-19-8h0a27 27 0 0 0-11 51z" horiz-adv-x="924" />

<glyph glyph-name="eliminar" unicode="&#xe820;" d="M51-39a107 107 0 0 1 102-111h408a107 107 0 0 1 102 111v667h-612z m126 396l71 78 109-118 108 118 72-79-108-117 108-118-72-78-108 118-108-118-72 78 108 118z m359 437l-51 56h-255l-51-56h-179v-111h714v111z" horiz-adv-x="714" />

<glyph glyph-name="liderescoca" unicode="&#xe821;" d="M603-132l-166 340a32 32 0 0 1-28 17h-378a31 31 0 0 0-18 56l302 221a31 31 0 0 0 48-15l5-15a31 31 0 0 0-11-35l-92-67a31 31 0 0 1 19-56h180a31 31 0 0 0 29-18l79-163a31 31 0 0 1 59 9l20 111a31 31 0 0 0 27 25l16 2a31 31 0 0 0 34-36l-66-368a31 31 0 0 0-31-26 31 31 0 0 0-28 18z m3187 129v470h29v-470z m-549 54a48 48 0 0 0-9 67 47 47 0 0 0 65 9 138 138 0 0 1 83-27 103 103 0 0 1 83 32 11 11 0 0 1 0 14c-16 16-199 86-232 119a106 106 0 0 0-15 129c32 54 102 78 164 78a235 235 0 0 0 139-46 47 47 0 0 0 9-65 46 46 0 0 0-65-10 141 141 0 0 1-83 27 106 106 0 0 1-83-30c-9-18 41-44 98-71a909 909 0 0 0 134-68 100 100 0 0 0 15-126c-33-54-103-77-164-77a234 234 0 0 0-139 45z m-820 2v373a47 47 0 0 0 48 46 47 47 0 0 0 45-46v-1a235 235 0 0 0 140 47 47 47 0 0 0 48-46 48 48 0 0 0-48-47 140 140 0 0 1-140-140v-186a47 47 0 0 0-45-47 48 48 0 0 0-48 47z m-1042 185a234 234 0 0 0 233 234 235 235 0 0 0 139-47v187a48 48 0 0 0 48 46 47 47 0 0 0 46-46v-374a234 234 0 0 0-233-232 233 233 0 0 0-232 232z m93 0a139 139 0 0 1 139-139 139 139 0 0 1 140 139 140 140 0 0 1-140 140 140 140 0 0 1-139-140z m-253-185v373a46 46 0 0 0 47 48 48 48 0 0 0 47-48v-373a48 48 0 0 0-47-47 46 46 0 0 0-47 47z m-231 57v531a45 45 0 0 0 45 45 45 45 0 0 0 45-45v-531a14 14 0 0 1 13-14 46 46 0 0 0 46-45 46 46 0 0 0-46-45 104 104 0 0 0-103 104z m1761-15a234 234 0 0 0 178 377 228 228 0 0 0 227-235 36 36 0 0 0-39-37h-319a134 134 0 0 1 131-100 134 134 0 0 1 96 41 47 47 0 0 0 64 0 44 44 0 0 0 0-65 237 237 0 0 0-166-70 212 212 0 0 0-172 89z m49 195h258a138 138 0 0 1-129 91 138 138 0 0 1-129-91z m-845-195a234 234 0 0 0 179 377 228 228 0 0 0 226-235 36 36 0 0 0-39-37h-319a135 135 0 0 1 132-100 134 134 0 0 1 96 41 47 47 0 0 0 63 0 44 44 0 0 0 0-65 237 237 0 0 0-165-70 213 213 0 0 0-173 89z m49 195h258a138 138 0 0 1-128 91 138 138 0 0 1-130-91z m3291-225a26 26 0 0 0-19 8 26 26 0 0 0-8 19 26 26 0 0 0 8 19 26 26 0 0 0 19 8 26 26 0 0 0 19-8 26 26 0 0 0 8-19 26 26 0 0 0-8-19 25 25 0 0 0-19-8z m-16 43a22 22 0 0 1-7-16 23 23 0 0 1 7-17 22 22 0 0 1 16-7 23 23 0 0 1 16 7 23 23 0 0 1 7 17 22 22 0 0 1-7 16 22 22 0 0 1-16 7 22 22 0 0 1-16-7z m-778-5a68 68 0 0 1-54-30 107 107 0 0 1-102 48c-84-1-167-39-232-39a101 101 0 0 0-107 110c2 124 107 236 184 286a175 175 0 0 0 107 35 36 36 0 0 0 26-54c-20-44-48-41-47-19a35 35 0 0 0 17 27 34 34 0 0 0 16 4c4 4 7 28-25 20a259 259 0 0 1-107-80 446 446 0 0 1-109-200c-6-37-2-106 87-105 75 0 186 50 288 49a193 193 0 0 0 100-28 278 278 0 0 0 70-57 183 183 0 0 1-112 33z m801-26v0s0 0 0 0l0 1 0 3c0 3-1 6-3 7a12 12 0 0 1-5 1h-5l0-12h-5v30h11a23 23 0 0 0 8-1 7 7 0 0 0 4-8 6 6 0 0 0-3-6 11 11 0 0 0-4-1 7 7 0 0 0 5-3 9 9 0 0 0 2-5v-4c0-1 0-2 0-2l0 0z m-13 15h5a21 21 0 0 1 5 1 5 5 0 0 1 3 4 5 5 0 0 1-2 5 14 14 0 0 1-6 1h-5z m-97-12c-24 3-17 35-17 35s-35-37-59-35c-32 4-22 45-22 45s-37-46-62-44c-39 2-30 50-19 84 6 18 12 33 12 33a124 124 0 0 0-13-3c-4-1-12-1-12-1a552 552 0 0 0-29-47c-14-17-69-77-102-65-30 11-20 58-3 95 26 54 99 132 140 122 44-11 1-91 1-91a1 1 0 0 1 1 0 22 22 0 0 1 8 0 81 81 0 0 1 16 5 917 917 0 0 0 92 152c48 60 144 163 181 138 10-6 6-27-7-53a131 131 0 0 0-17-4 140 140 0 0 1 16 36c5 32-67-34-118-104a1001 1001 0 0 1-83-134 207 207 0 0 1 27 19 788 788 0 0 1 65 61 725 725 0 0 1 56 65 149 149 0 0 1 16 2 672 672 0 0 0-61-73c-21-21-43-44-62-60a511 511 0 0 0-55-41s-45-91-20-97c14-3 43 41 43 41s37 57 59 82c30 35 57 55 83 56a32 32 0 0 0 24-17l7 12 45 0s-83-141-90-152c-6-9-12-28 7-16a284 284 0 0 1 58 66l16 0a521 521 0 0 0-47-62c-23-26-51-50-72-50a24 24 0 0 0-3 0z m23 168a380 380 0 0 1-52-75c-14-26-20-45-12-50a12 12 0 0 1 9-1c5 2 11 7 21 18 4 5 9 12 15 20 16 22 57 92 65 106a21 21 0 0 1 1 3 7 7 0 0 1-6 6h-1c-7 1-17-2-40-27z m-267-19c-1-1-3-2-18-26s-40-71-19-79c15-6 38 19 51 35a302 302 0 0 1 23 37c1 1 0 1 0 2a88 88 0 0 0-21 12 69 69 0 0 0-15 19c0 1 0 1-1 1s0-1 0-1z m16 15a37 37 0 0 1 26-33c3-1 4-1 5 2a156 156 0 0 1 12 24c4 11 9 32-1 40a11 11 0 0 1-7 2 41 41 0 0 1-35-35z m-251-163c-62 0-102 81-15 221 96 155 210 202 246 208s49-11 49-11a156 156 0 0 0 70 11c45-3 80-35 126-57-12-12-24-24-34-35-34 17-59 39-85 52a96 96 0 0 1-60 15 61 61 0 0 1-8-2s10-35-31-94c-41-60-79-60-90-43-11 17 4 53 28 84a305 305 0 0 0 69 61s-14 8-48-11a486 486 0 0 1-147-143 395 395 0 0 1-72-153c-8-34-1-70 36-70s80 57 92 77c22 36 37 93 7 85a64 64 0 0 1-35-37 149 149 0 0 1-11-32 126 126 0 0 1-30-18 219 219 0 0 1-29-25 180 180 0 0 0 21 70 114 114 0 0 0 83 65c20 2 45-16 24-78s-87-139-155-140z m218 354c-31-35-49-73-36-83 5-4 17-4 38 15a169 169 0 0 1 45 63 83 83 0 0 1 10 49 175 175 0 0 1-57-44z m-601-245c-45 17-21 76-13 93 8 15 16 30 16 30s-7-2-12-3-10-3-10-3-22-35-35-52-69-78-102-66-24 58-6 95c30 60 101 133 144 122s7-82 7-82 9-1 29 13c30 21 69 75 112 69 19-3 38-24 13-63-9-12-22-23-33-12-6 7 0 19 6 28a27 27 0 0 0 23 10s7 16-11 16c-14 0-50-34-71-68-19-32-48-85-19-97 26-10 76 49 100 81s76 102 120 105a29 29 0 0 0 24-13l6 8 44 0-90-151c-5-8-12-27 7-16a365 365 0 0 1 58 61h15s-77-112-121-107c-24 3-17 33-17 33s-34-40-65-32c-29 8-10 55-10 55-3-1-53-57-94-57a38 38 0 0 0-14 3z m226 164a530 530 0 0 1-53-75c-14-25-20-44-12-48a12 12 0 0 1 9-1 51 51 0 0 1 21 17c5 5 10 12 15 20 18 25 68 111 68 111a7 7 0 0 1-7 7h-1c-7 0-18-4-39-31z m-303-16c-1-1-3-4-19-27s-39-71-17-79c14-5 38 19 50 36a391 391 0 0 1 27 40c1 1 0 2-1 2a106 106 0 0 0-23 10 51 51 0 0 0-16 19 1 1 0 0 1 0 0c0 0-1 0-1-1z m17 13c0-21 26-27 30-28 0 0 3 0 4 2a143 143 0 0 1 8 19c5 11 10 32-1 40a11 11 0 0 1-7 2 41 41 0 0 1-34-35z m400 11l24 39 42 0-24-39z m538 36c7 9 15 17 22 25q5 7 11 13a190 190 0 0 1 116 34 282 282 0 0 1 50 42l0 0 0 0a222 222 0 0 0-31-45 198 198 0 0 0-140-72 141 141 0 0 0-28 3z m-4480 72l-15 10a31 31 0 0 0-14 19c6 13 14 50 24 87a484 484 0 0 0 20 60 369 369 0 0 0 24 43 11 11 0 0 1 9 6 206 206 0 0 1 5 21 8 8 0 0 0 6 4 10 10 0 0 1 6 8c1 4-2 8-5 11a218 218 0 0 1-25 18 225 225 0 0 1-27 15c-3 1-8 2-12-1a10 10 0 0 1-4-9 8 8 0 0 0-2-7c0-1-14-9-17-14a11 11 0 0 1-1-10 373 373 0 0 0-28-41 498 498 0 0 0-45-44c-29-25-58-48-68-59a31 31 0 0 0-23 4l-15 8a31 31 0 0 0-1 51l264 194a31 31 0 0 0 48-30l-58-323a31 31 0 0 0-30-25 31 31 0 0 0-16 5z m537 61a41 41 0 0 0-17 57l40 77a42 42 0 0 0 56 19 43 43 0 0 0 18-56l-40-78a45 45 0 0 0-38-24 37 37 0 0 0-19 6z" horiz-adv-x="5405" />

<glyph glyph-name="listadeseos" unicode="&#xe822;" d="M555-141a804 804 0 0 0-109 81 435 435 0 0 0-43 45 192 192 0 0 0-40 73 255 255 0 0 0-8 60 176 176 0 0 0 1 19 116 116 0 0 0 16 50 106 106 0 0 0 91 46c42 0 82-19 101-47a89 89 0 0 0 19 21 125 125 0 0 0 49 22 142 142 0 0 0 32 4 110 110 0 0 0 75-27 114 114 0 0 0 34-88 255 255 0 0 0-8-60c-22-87-153-174-193-199a17 17 0 0 0-8-2 17 17 0 0 0-9 2z m-155 309a83 83 0 0 1-11-35 147 147 0 0 1-1-15 217 217 0 0 1 7-51 159 159 0 0 1 34-60 397 397 0 0 1 39-41 753 753 0 0 1 96-72c73 47 154 116 168 173a217 217 0 0 1 7 51 81 81 0 0 1-23 63 77 77 0 0 1-52 18 111 111 0 0 1-25-3 93 93 0 0 1-35-16 55 55 0 0 1-12-13l-15-22a17 17 0 0 0-14-7 17 17 0 0 0-14 7l-14 22c-12 19-42 32-72 32a73 73 0 0 1-63-31z m-331-215a63 63 0 0 0-62 64v763a63 63 0 0 0 62 63h504a63 63 0 0 0 62-63v-533a153 153 0 0 1-41-14v547a21 21 0 0 1-21 21h-504a21 21 0 0 1-20-21v-763a21 21 0 0 1 20-21h305a346 346 0 0 1 35-43z m43 182v43h236a147 147 0 0 1-10-43z m0 127v42h419v-42z m0 127v42h419v-42z m0 126v43h419v-43z m0 127v43h419v-43z" horiz-adv-x="779" />

<glyph glyph-name="misdatos" unicode="&#xe823;" d="M0 350a500 500 0 1 0 500-500 501 501 0 0 0-500 500z m50 0a450 450 0 1 1 900 0 459 459 0 0 1-90 269 443 443 0 0 1-360 181 451 451 0 0 1-450-450z m221-329h0a72 72 0 0 0-71 72 69 69 0 0 0 2 16c2 12 5 24 7 36 20 106 38 197 283 197s263-91 284-197c2-12 4-24 7-36a72 72 0 0 0-70-88z m-16 115c-2-12-4-25-7-38a23 23 0 0 1-1-5 24 24 0 0 1 24-24h442a26 26 0 0 1 5 0 24 24 0 0 1 19 29c-3 13-5 26-8 38-19 103-30 159-237 159s-217-56-237-159z m72 398a166 166 0 1 0 165-166 166 166 0 0 0-165 166z m47 0a119 119 0 1 1 118 119 119 119 0 0 1-118-119z" horiz-adv-x="1000" />

<glyph glyph-name="outlet" unicode="&#xe824;" d="M609-137l-596 596a21 21 0 0 0-6 14v247a20 20 0 0 0 6 14l103 103a20 20 0 0 0 15 6h246a21 21 0 0 0 15-6l75-76a653 653 0 0 0 214 22c17-1 183-9 236-67a58 58 0 0 0-5-81c-20-19-60-38-136-38a621 621 0 0 0-92 7c-10 2-41 6-74 14l377-376a21 21 0 0 0 0-29l-349-350a20 20 0 0 0-15-6 21 21 0 0 0-14 6z m-80 138l94-94 320 320-94 94z m-481 710v-229l452-452 320 320-365 365a771 771 0 0 1-112-42 123 123 0 0 0 13-56 123 123 0 0 0-123-123 123 123 0 0 0-123 123 123 123 0 0 0 123 123 123 123 0 0 0 85-34 758 758 0 0 0 104 42l-54 54h-229z m103-94a82 82 0 0 1 82-82 82 82 0 0 1 82 82 82 82 0 0 1-82 82 82 82 0 0 1-82-82z m350 110l34-34a21 21 0 0 0 8-5c18-19 97-37 147-43 129-20 177 4 194 20a17 17 0 0 1 2 24c-31 34-144 50-208 53-13 1-27 1-40 1a625 625 0 0 1-137-16z m-36-554a21 21 0 0 0 0 29l185 184a21 21 0 0 0 29 0 21 21 0 0 0 0-29l-185-184a20 20 0 0 0-15-6 21 21 0 0 0-14 6z m-62 61a21 21 0 0 0 0 29l185 185a21 21 0 0 0 29 0 21 21 0 0 0 0-29l-185-185a20 20 0 0 0-14-6 20 20 0 0 0-15 6z m-61 62a21 21 0 0 0 0 29l185 185a21 21 0 0 0 29 0 21 21 0 0 0 0-29l-185-185a20 20 0 0 0-15-6 21 21 0 0 0-14 6z" horiz-adv-x="1002" />

<glyph glyph-name="preferencias" unicode="&#xe825;" d="M212-44h-186a26 26 0 1 0 0 52h186a132 132 0 0 0 258 0h661a26 26 0 0 0 0-52h-661a132 132 0 0 0-258 0z m46 26a83 83 0 1 1 83 83 83 83 0 0 1-83-83z m375 342h-607a26 26 0 1 0 0 53h607a132 132 0 0 0 258 0h240a26 26 0 0 0 0-53h-240a132 132 0 0 0-258 0z m46 26a83 83 0 1 1 83 83 83 83 0 0 1-83-83z m-309 342h-344a26 26 0 1 0 0 53h344a132 132 0 0 0 258 0h503a26 26 0 0 0 0-53h-503a132 132 0 0 0-258 0z m46 27a83 83 0 1 1 83 82 83 83 0 0 1-83-82z" horiz-adv-x="1157" />

<glyph glyph-name="promos" unicode="&#xe826;" d="M922 270l-69 80 76 88 14 17a51 51 0 0 1 6 61c-13 22-40 24-62 29l-105 25 9 119 2 22a50 50 0 0 1-32 50 89 89 0 0 1-67-13l-100-42-60 100-12 19a52 52 0 0 1-55 24c-24-3-37-31-48-50l-57-93-110 47-21 8a50 50 0 0 1-59-18 97 97 0 0 1-6-66l9-107-115-27-22-5a51 51 0 0 1-39-46c-1-26 20-44 35-62l69-80-75-88-15-17a51 51 0 0 1-6-62c13-21 40-24 63-29l105-25-10-118-2-23a50 50 0 0 1 33-50 89 89 0 0 1 66 13l100 42 45-75 26-42a51 51 0 0 1 86-6 25 25 0 0 1 2 3l73 120 110-46 21-9a50 50 0 0 1 59 19 97 97 0 0 1 6 65l-9 108 115 27 22 5a51 51 0 0 1 39 46c1 26-19 44-35 62z m-15-66l-58-14-97-22a22 22 0 0 1-16-22l11-135 2-22c1-8-2-12-11-9l-54 23-93 39a22 22 0 0 1-25-10l-83-137a6 6 0 0 0-10 1l-6 9-29 48-48 79a22 22 0 0 1-24 10l-126-53-20-8a12 12 0 0 0-10-2c-3 1-3 6-3 9l5 57 8 101a22 22 0 0 1-16 22l-132 31-22 5c-4 1-10 5-6 10l39 45 65 75a23 23 0 0 1 0 31l-89 103-15 17a8 8 0 0 0-1 4c1 5 2 6 6 6l58 14 97 23a22 22 0 0 1 16 21l-11 136-2 22c0 7 3 12 12 8l53-22 94-39a22 22 0 0 1 24 10l71 116 12 19c3 5 8 5 11 1l30-50 52-86a22 22 0 0 1 25-10l125 52 21 9a12 12 0 0 0 9 1c4-1 3-5 3-8l-5-58-8-101a22 22 0 0 1 16-21l133-31 21-5c5-1 11-5 6-10l-38-45-65-76a23 23 0 0 1 0-31l88-103 15-17a8 8 0 0 0 1-3c0-5-1-6-6-7z m-295 299a22 22 0 0 1-8 30 22 22 0 0 1-30-8l-155-212-84-117a22 22 0 0 1 8-30 22 22 0 0 1 30 8l154 213z m-173-55a25 25 0 0 1 0 3 25 25 0 0 1 0 3 85 85 0 1 1 0-6z m-126 3a41 41 0 1 0 41-41 42 42 0 0 0-41 41z m280-118a85 85 0 1 1 84-87 34 34 0 0 1 0 6 86 86 0 0 1-84 82z m0-126a41 41 0 1 0 41 41 42 42 0 0 0-41-41z" horiz-adv-x="957" />

<glyph glyph-name="smartphone" unicode="&#xe827;" d="M90-150a91 91 0 0 0-90 91v818a90 90 0 0 0 27 65 90 90 0 0 0 64 26h409a90 90 0 0 0 64-26 90 90 0 0 0 27-65v-750h0v-68a91 91 0 0 0-91-91z m-45 91a46 46 0 0 1 45-46h410a46 46 0 0 1 46 46v68h-502z m0 113h501v615h-501z m501 660v46a46 46 0 0 1-14 32 46 46 0 0 1-32 14h-409a46 46 0 0 1-46-46v-46z m-319-773v45h136v-45z" horiz-adv-x="591" />

<glyph glyph-name="verestado" unicode="&#xe828;" d="M131-126a14 14 0 0 0-14 14 14 14 0 0 0 14 14h809a109 109 0 0 1 105 112v652a109 109 0 0 1-105 112h-62a14 14 0 0 0-14 14 14 14 0 0 0 14 14h62a136 136 0 0 0 132-140v-652a136 136 0 0 0-132-140z m-21 60a90 90 0 0 0-86 93v626a90 90 0 0 0 86 93h97v65a14 14 0 0 0 14 14h82a14 14 0 0 0 13-14v-65h404v65a14 14 0 0 0 14 14h81a14 14 0 0 0 14-14v-65h97a90 90 0 0 0 86-93v-626a90 90 0 0 0-86-93z m-58 93a62 62 0 0 1 58-65h816a62 62 0 0 1 58 65v504h-932z m0 626v-94h932v94a62 62 0 0 1-58 65h-97v-66a14 14 0 0 0-14-14h-81a14 14 0 0 0-14 14v66h-404v-66a14 14 0 0 0-14-14h-81a14 14 0 0 0-14 14v66h-97a62 62 0 0 1-58-65z m695 13h54v132h-54z m-513 66v-66h54v132h-54z m572-672a14 14 0 0 0-14 14 14 14 0 0 0 14 14h100a14 14 0 0 0 14-14 14 14 0 0 0-14-14z m-225 0a14 14 0 0 0-14 14 14 14 0 0 0 14 14h101a14 14 0 0 0 13-14 14 14 0 0 0-13-14z m-225 0a14 14 0 0 0-13 14 14 14 0 0 0 13 14h101a14 14 0 0 0 14-14 14 14 0 0 0-14-14z m-224 0a14 14 0 0 0-14 14 14 14 0 0 0 14 14h100a14 14 0 0 0 14-14 14 14 0 0 0-14-14z m674 179a14 14 0 0 0-14 14 14 14 0 0 0 14 14h100a14 14 0 0 0 14-14 14 14 0 0 0-14-14z m-225 0a14 14 0 0 0-14 14 14 14 0 0 0 14 14h101a14 14 0 0 0 14-14 14 14 0 0 0-14-14z m-224 0a14 14 0 0 0-14 14 14 14 0 0 0 14 14h100a14 14 0 0 0 14-14 14 14 0 0 0-14-14z m-225 0a14 14 0 0 0-14 14 14 14 0 0 0 14 14h101a14 14 0 0 0 13-14 14 14 0 0 0-13-14z m674 180a14 14 0 0 0-14 14 14 14 0 0 0 14 14h101a14 14 0 0 0 13-14 14 14 0 0 0-13-14z m-225 0a14 14 0 0 0-13 14 14 14 0 0 0 13 14h101a14 14 0 0 0 14-14 14 14 0 0 0-14-14z m-224 0a14 14 0 0 0-14 14 14 14 0 0 0 14 14h100a14 14 0 0 0 14-14 14 14 0 0 0-14-14z m-225 0a14 14 0 0 0-14 14 14 14 0 0 0 14 14h101a14 14 0 0 0 14-14 14 14 0 0 0-14-14z" horiz-adv-x="1097" />

<glyph glyph-name="comprapuntos" unicode="&#xe829;" d="M573 387h-54v53a15 15 0 0 1-15 15 15 15 0 0 1-15-15v-53h-53a84 84 0 0 1-84-84v-22a83 83 0 0 1 84-84h137a54 54 0 0 0 53-53v-23a53 53 0 0 0-53-53h-137a53 53 0 0 0-53 53v23a15 15 0 1 1-31 0v-23a83 83 0 0 1 84-83h53v-54a15 15 0 0 1 15-15 15 15 0 0 1 15 15v54h54a83 83 0 0 1 83 83v23a84 84 0 0 1-83 83h-137a53 53 0 0 0-53 54v22a54 54 0 0 0 53 54h137a54 54 0 0 0 53-54v-22a15 15 0 0 1 30 0v22a84 84 0 0 1-83 84z m341 205h-141a268 268 0 0 1-536 0h-142a15 15 0 0 1-16-15v-707a15 15 0 0 1 15-15h820a15 15 0 0 1 16 15v707a15 15 0 0 1-16 15z m-410 220a238 238 0 0 0 238-220h-475a237 237 0 0 0 237 220z m395-926h-790v676h790z" horiz-adv-x="1000" />

<glyph glyph-name="agregardest-1" unicode="&#xe82a;" d="M834 517a333 333 0 1 1-511-282 510 510 0 0 1-323-385h85a426 426 0 0 0 415 333 334 334 0 0 1 334 334z m-334-250a250 250 0 1 0 250 250 250 250 0 0 0-250-250z m375-209v125h-83v-125h-125v-83h125v-125h83v125h126v83z" horiz-adv-x="1000" />

<glyph glyph-name="icon-promospecial" unicode="&#xe82b;" d="M265 402a17 17 0 0 0-34 0v67a17 17 0 0 0 34 0z m31-469h-31v3a17 17 0 0 1-34 0v-36h65a17 17 0 1 1 0 33z m133 0h-67a17 17 0 0 1 0-33h67a17 17 0 1 1 0 33z m-242 548a65 65 0 0 0-41-28 65 65 0 0 0-12-1 65 65 0 0 0-24 125l83 45-83 34a16 16 0 0 0-2 2 64 64 0 0 0-11 5 66 66 0 1 0 77 3l57-24 214 114a17 17 0 0 0 15-30l-189-100 188-78a17 17 0 0 0-13-31l-213 88-63-34 0 0a65 65 0 0 0 17-90z m-84 229a32 32 0 1 1 31 38 31 31 0 0 1-26-14h0a31 31 0 0 1-5-24z m48-167a32 32 0 0 1-23 5 30 30 0 0 1-8-3l-5-3a32 32 0 0 1-7-7h0a32 32 0 1 1 43 8z m473 65h66a17 17 0 0 1 0 34h-66a17 17 0 1 1 0-34z m-134 0h67a17 17 0 0 1 0 34h-67a17 17 0 1 1 0-34z m267 0h67a17 17 0 0 1 0 34h-67a17 17 0 1 1 0-34z m-492-406a17 17 0 0 1-34 0v-66a17 17 0 0 1 34 0z m-17-116a17 17 0 0 1-17-17v-67a17 17 0 0 1 34 0v67a17 17 0 0 1-17 17z m314-153h-66a17 17 0 0 1 0-33h66a17 17 0 1 1 0 33z m-297 403a17 17 0 0 1-34 0v-67a17 17 0 0 1 34 0z m707-146a17 17 0 0 1-17-16v-67a17 17 0 0 1 34 0v67a17 17 0 0 1-17 16z m0 134a17 17 0 0 1-17-17v-67a17 17 0 0 1 34 0v67a17 17 0 0 1-17 17z m-10-391h-67a17 17 0 0 1 0-33h67a17 17 0 1 1 0 33z m10 124a17 17 0 0 1-17-17v-67a17 17 0 0 1 34 0v67a17 17 0 0 1-17 17z m0 400a17 17 0 0 1-17-17v-66a17 17 0 0 1 34 0v66a17 17 0 0 1-17 17z m-277-524h-66a17 17 0 0 1 0-33h66a17 17 0 1 1 0 33z m277 657a17 17 0 0 1-17-16v-67a17 17 0 0 1 34 0v67a17 17 0 0 1-17 16z m-15 18a17 17 0 0 1 0 34h-67a17 17 0 1 1 0-34z m-128-675h-67a17 17 0 0 1 0-33h67a17 17 0 1 1 0 33z m-137 432a17 17 0 0 1-23-4l-140-192a17 17 0 0 1 27-20l140 192a17 17 0 0 1-4 24z m-147-101a59 59 0 1 0 59 59 59 59 0 0 0-59-59z m0 33a25 25 0 1 1-25 26 26 26 0 0 1 25-26z m189-109a59 59 0 1 0-59 59 59 59 0 0 0 59-59z m-33 0a25 25 0 1 1-26-25 25 25 0 0 1 26 25z m133 82a24 24 0 0 1 0-15l11-33a58 58 0 0 0-21-65l-28-20a24 24 0 0 1-9-13l-11-33a58 58 0 0 0-55-40h-35a24 24 0 0 1-14-5l-28-20a58 58 0 0 0-68 0l-28 20a24 24 0 0 1-15 5h-34a58 58 0 0 0-55 40l-11 33a25 25 0 0 1-9 13l-28 20a58 58 0 0 0-21 65l11 33a24 24 0 0 1 0 15l-11 33a58 58 0 0 0 21 65l28 21a24 24 0 0 1 9 12l11 33a58 58 0 0 0 55 40h34a24 24 0 0 1 15 5l28 20a58 58 0 0 0 68 0l28-20a24 24 0 0 1 14-5h35a58 58 0 0 0 55-40l11-33a24 24 0 0 1 9-12l28-21a58 58 0 0 0 21-65z m-21-59l-10 34a57 57 0 0 0 0 35l10 34a24 24 0 0 1-8 27l-29 21a58 58 0 0 0-21 28l-10 34a24 24 0 0 1-24 17h-35a58 58 0 0 0-33 11l-29 20h0a24 24 0 0 1-28 0l-29-20a58 58 0 0 0-34-11h-34a24 24 0 0 1-24-17l-11-34a57 57 0 0 0-21-28l-28-21a24 24 0 0 1-9-27l11-34a57 57 0 0 0 0-35l-11-34a24 24 0 0 1 9-27l28-20a58 58 0 0 0 21-29l11-34a24 24 0 0 1 24-16h34a57 57 0 0 0 34-11l29-21a24 24 0 0 1 28 0l29 21a57 57 0 0 0 34 11h34a24 24 0 0 1 24 17l10 33a58 58 0 0 0 21 29l29 20a24 24 0 0 1 8 27z" horiz-adv-x="1000" />

<glyph glyph-name="oferta" unicode="&#xe82e;" d="M922 270l-69 80 76 88 14 16a51 51 0 0 1 6 62c-13 22-40 24-62 29l-105 25 9 119 2 22a50 50 0 0 1-32 50 89 89 0 0 1-67-13l-100-42-60 100-12 19a52 52 0 0 1-55 24c-24-3-36-31-48-50l-56-93-111 46-21 9a50 50 0 0 1-59-18 97 97 0 0 1-5-66l8-107-115-27-21-5a51 51 0 0 1-39-46c-2-26 19-44 35-62l69-80-76-88-14-17a51 51 0 0 1-6-61c13-22 40-24 62-29l105-25-9-119-2-22a50 50 0 0 1 32-51 89 89 0 0 1 67 14l100 42 45-75 26-43a51 51 0 0 1 85-5 25 25 0 0 1 2 3l73 120 111-47 21-8a50 50 0 0 1 58 18 97 97 0 0 1 6 66l-8 107 114 27 22 5a51 51 0 0 1 39 46c1 25-19 44-35 62z m-15-66l-58-13-97-23a22 22 0 0 1-16-21l12-136 1-22c1-7-2-12-11-8l-53 22-94 39a22 22 0 0 1-25-10l-83-136a6 6 0 0 0-10 0l-6 10-28 47-49 79a22 22 0 0 1-24 10l-126-52-20-9a12 12 0 0 0-9-1c-4 1-4 5-3 8l4 58 9 101a22 22 0 0 1-17 21l-132 31-22 5c-4 1-10 5-6 10l39 45 65 75a23 23 0 0 1 0 31l-88 104-15 17a8 8 0 0 0-1 3c0 5 2 6 6 7l58 13 97 23a22 22 0 0 1 16 21l-11 136-2 22c-1 7 2 12 11 8l53-22 94-39a22 22 0 0 1 25 10l70 116 12 19c3 5 8 5 11 1l30-50 52-86a22 22 0 0 1 25-10l126 52 20 9a12 12 0 0 0 9 1c4-1 4-5 3-8l-4-58-9-101a22 22 0 0 1 16-21l133-31 22-5c4-1 10-5 6-10l-39-45-65-75a23 23 0 0 1 0-31l89-103 14-17a8 8 0 0 0 2-4c-1-5-2-6-7-7z m-295 299a22 22 0 0 1-8 30 22 22 0 0 1-30-8l-154-212-85-116a22 22 0 0 1 8-30 22 22 0 0 1 30 8l154 212z m-173-55a34 34 0 0 1 0 6 85 85 0 1 1 0-6z m-126 3a41 41 0 1 0 41-41 42 42 0 0 0-41 41z m280-117a85 85 0 1 1 85-88 25 25 0 0 1 0 3 25 25 0 0 1 0 3 86 86 0 0 1-85 82z m0-127a41 41 0 1 0 41 41 42 42 0 0 0-41-40z" horiz-adv-x="957" />

<glyph glyph-name="puntosganados" unicode="&#xe82f;" d="M1017-114h-170v158h219v-109a49 49 0 0 0-49-49z m-981 49v109h219v-158h-170a49 49 0 0 0-49 49z m49 768h52v-29a82 82 0 1 1 166 0v29h165v-29a82 82 0 1 1 166 0v29h165v-29a82 82 0 1 1 166 0v29h52a50 50 0 0 0 49-50v-183h-1030v183a50 50 0 0 0 49 50z m89 64a47 47 0 1 0 93 0v-94a47 47 0 1 0-93 0v94z m377 47a47 47 0 0 0 47-47v-47h0v-47a47 47 0 1 0-94 0v94a47 47 0 0 0 47 47z m284-47a47 47 0 1 0 94 0v-94a47 47 0 1 0-94 0v94z m12-527h219v-160h-219v160z m-278-160v160h242v-160z m0-36h242v-158h-242v158z m-36 0v-158h-243v158z m-243 196h243v-160h-243v160z m-254 0h219v-160h-219v160z m219 36h-219v158h219v-158z m811 158v-158h-219v158z m-255 0v-158h-242v158z m-278 0v-158h-243v158z m484 304h-53v29a82 82 0 1 1-165 0v-29h-166v29a82 82 0 1 1-165 0v-29h-166v29a82 82 0 1 1-165 0v-29h-52a85 85 0 0 1-85-85v-201h0v-194h0v-196h0v-126a85 85 0 0 1 85-86h932a85 85 0 0 1 85 86v717a85 85 0 0 1-85 85z" horiz-adv-x="1102" />

<glyph glyph-name="smartphone-1" unicode="&#xe830;" d="M568 691v68a68 68 0 0 1-68 69h-409a68 68 0 0 1-69-68v-69m0-659v-92a68 68 0 0 1 69-68h409a68 68 0 0 1 68 68v92" horiz-adv-x="591" />

<glyph glyph-name="broxel" unicode="&#xe831;" d="M500-150a497 497 0 0 0-354 146 497 497 0 0 0-146 354 497 497 0 0 0 146 354 497 497 0 0 0 354 146 497 497 0 0 0 354-146 497 497 0 0 0 146-354 497 497 0 0 0-146-354 497 497 0 0 0-354-146z m7 461h0l50-50a127 127 0 0 1 91-39 128 128 0 0 1 91 38 129 129 0 0 1 0 181 128 128 0 0 1-91 38 127 127 0 0 1-91-38l-38 38h-64l102-102 33 32a82 82 0 0 0 58 25 81 81 0 0 0 59-25 82 82 0 0 0 24-58 82 82 0 0 0-24-59 82 82 0 0 0-59-24 81 81 0 0 0-58 24l-149 150a128 128 0 0 1-91 38 128 128 0 0 1-91-38 129 129 0 0 1 0-181 128 128 0 0 1 91-38 127 127 0 0 1 91 38l28 28 8-8 30 30z m-157-42a81 81 0 0 0-59 24 82 82 0 0 0-24 58 82 82 0 0 0 24 59 82 82 0 0 0 59 24 82 82 0 0 0 58-24l48-48-30-30 10-11-28-28a82 82 0 0 0-58-24z" horiz-adv-x="1000" />

<glyph glyph-name="callcenter" unicode="&#xe832;" d="M939 491a452 452 0 0 1-884 0 83 83 0 0 1-55-78v-152a83 83 0 0 1 83-82h8a83 83 0 0 1 83 82v151a83 83 0 0 1-58 80 393 393 0 0 0 763 0 83 83 0 0 1-58-79v-152a83 83 0 0 1 62-80 409 409 0 0 0-286-263 52 52 0 0 1-51 41h-95a52 52 0 0 1-52-52v-5a52 52 0 0 1 52-52h95a52 52 0 0 1 50 38 438 438 0 0 1 317 290 83 83 0 0 1 82 83v151a83 83 0 0 1-56 79z" horiz-adv-x="995" />

<glyph glyph-name="chat2" unicode="&#xe833;" d="M422 143a198 198 0 0 0-198 197v250h-112a112 112 0 0 1-112-112v-398a111 111 0 0 1 57-97v-133l229 118h607a112 112 0 0 1 111 112v63z m781 707h-781a112 112 0 0 1-112-112v-398a112 112 0 0 1 112-111h607l229-119v133a111 111 0 0 1 57 98v398a112 112 0 0 1-112 111z m-551-291a52 52 0 1 0 52 51 52 52 0 0 0-52-51z m161 0a52 52 0 1 0 51 51 52 52 0 0 0-51-51z m160 0a52 52 0 1 0 52 51 52 52 0 0 0-52-51z" horiz-adv-x="1315" />

<glyph glyph-name="comprapts" unicode="&#xe834;" d="M478 362a21 21 0 0 1-6 29 249 249 0 0 1-139 42 250 250 0 0 1-250-250 250 250 0 0 1 250-250 250 250 0 0 1 250 250 249 249 0 0 1-41 139 21 21 0 0 1-29 6 21 21 0 0 1-6-29 207 207 0 0 0 35-116 209 209 0 0 0-209-208 209 209 0 0 0-208 208 209 209 0 0 0 208 209 207 207 0 0 0 116-35 21 21 0 0 1 29 5z m-145 155a334 334 0 0 1-333-334 330 330 0 0 1 69-203 21 21 0 0 1 29-3 21 21 0 0 1 4 29 289 289 0 0 0-60 177 292 292 0 0 0 291 292 292 292 0 0 0 292-292 292 292 0 0 0-292-291 289 289 0 0 0-177 60 21 21 0 0 1-29-4 21 21 0 0 1 4-29 330 330 0 0 1 202-69 334 334 0 0 1 334 333 334 334 0 0 1-334 334z m0-229a40 40 0 0 0 42-42 21 21 0 0 1 21-21 21 21 0 0 1 21 21 81 81 0 0 1-63 81v23a21 21 0 0 1-21 21 21 21 0 0 1-20-21v-23a81 81 0 0 1-63-81c0-42 39-63 74-81 25-14 51-28 51-44a40 40 0 0 0-42-42 40 40 0 0 0-41 42 21 21 0 0 1-21 21 21 21 0 0 1-21-21 81 81 0 0 1 63-81v-23a21 21 0 0 1 20-21 21 21 0 0 1 21 21v23a81 81 0 0 1 63 81c0 41-39 62-74 81-25 13-51 27-51 44a40 40 0 0 0 41 42z m334 479a250 250 0 0 1-246-205 21 21 0 0 1 17-24 20 20 0 0 1 3 0 21 21 0 0 1 21 17 208 208 0 0 0 205 170 207 207 0 0 0 115-35 21 21 0 0 1 29 6 21 21 0 0 1-5 29 249 249 0 0 1-139 42z m38-455a21 21 0 0 1-17-24 21 21 0 0 1 20-17 20 20 0 0 1 4 0 250 250 0 0 1 205 246 249 249 0 0 1-42 138 21 21 0 0 1-29 6 21 21 0 0 1-6-29 207 207 0 0 0 35-115 208 208 0 0 0-170-205z m-38 538a334 334 0 0 1-327-267c-1-7-3-14-4-22a21 21 0 0 1 18-23 21 21 0 0 1 24 18c0 6 2 13 3 19a293 293 0 0 0 286 233 292 292 0 0 0 291-291 292 292 0 0 0-233-286c-6-1-13-3-19-3a21 21 0 0 1-18-24 21 21 0 0 1 20-18 21 21 0 0 1 3 0q11 2 22 4a334 334 0 0 1 267 327 334 334 0 0 1-333 333z" horiz-adv-x="1000" />

<glyph glyph-name="email" unicode="&#xe835;" d="M559 368l-559-454v874z m238-54l-714 536h1429z m156-7l563-457h-1437l562 457 156-117z m642 481v-874l-560 454z" horiz-adv-x="1595" />

<glyph glyph-name="lifemiles" unicode="&#xe836;" d="M0 26c0 97 237 176 528 176s529-79 529-176-237-176-529-176-528 79-528 176z m1001 167c0 46 120 83 269 83s269-37 269-83-121-83-269-83-269 37-269 83z m519 71c0 17 46 31 102 31s102-14 102-31-46-32-102-32-102 14-102 31z m777 87a211 211 0 0 0-32 5 167 167 0 0 0-50 15c0 8 0 16 0 24q0 7 0 14a20 20 0 0 0 22 19h1c9 0 18-2 27-2 14-1 29-5 43-5a78 78 0 0 1 10 1 82 82 0 0 1 31 6 28 28 0 0 1 16 24 11 11 0 0 0 0 2 23 23 0 0 1-13 23 291 291 0 0 1-37 14 202 202 0 0 0-69 31 91 91 0 0 0-27 36 211 211 0 0 0-8 39 9 9 0 0 0 0 3c0 4 2 9 2 13a86 86 0 0 0 52 75 96 96 0 0 0 34 10c9 2 19 3 29 4 4 0 8 1 12 1 1 0 3 0 5 0a18 18 0 0 0 3 0c2 0 4 0 6 0a101 101 0 0 0 15-2c14-4 28-4 41-6a71 71 0 0 0 18-5 10 10 0 0 0 4-7c0-5 1-9 1-13a83 83 0 0 0-4-27c-4-10-13-13-22-15a26 26 0 0 0-5 0 30 30 0 0 0-5 0 7 7 0 0 1-2 0 14 14 0 0 1-3 1c-2 1-5 1-7 2a151 151 0 0 1-22 2c-2 0-5 0-8 0-10 0-21-1-31-2a27 27 0 0 1-24-26 26 26 0 0 1 3-11 26 26 0 0 1 8-9 80 80 0 0 1 24-11 274 274 0 0 0 76-30 92 92 0 0 0 43-65 121 121 0 0 0 1-19 125 125 0 0 0-7-39 88 88 0 0 0-34-46 125 125 0 0 0-43-19 221 221 0 0 0-52-6c-7 1-15 1-22 1z m-261 0a187 187 0 0 0-98 30 132 132 0 0 0-52 71c-3 10-6 21-9 31a32 32 0 0 0-1 9c0 20-1 40 0 60a146 146 0 0 0 6 34 177 177 0 0 0 22 50 144 144 0 0 0 55 49 127 127 0 0 0 51 15 219 219 0 0 0 32 2 230 230 0 0 0 51-8 112 112 0 0 0 68-58 186 186 0 0 0 17-57 267 267 0 0 0 3-46 131 131 0 0 0-5-21h-15q-83 0-165 0c-6 0-11-1-17 0s-8-3-8-8a94 94 0 0 1 17-55 64 64 0 0 1 46-25 525 525 0 0 1 55 0c11 1 22 3 34 5a25 25 0 0 0 5 0h5c14 0 21-5 23-22a226 226 0 0 0 1-35 92 92 0 0 0-33-12c-12-3-25-4-37-6a148 148 0 0 0-34-4c-5 1-11 1-17 1z m-22 280a55 55 0 0 1-31-30 55 55 0 0 1-9-32h115a74 74 0 0 1-13 43 42 42 0 0 1-40 20h-7a41 41 0 0 1-15-1z m-1145-280a186 186 0 0 0-97 30 133 133 0 0 0-53 71c-3 10-6 21-9 31a32 32 0 0 0-1 9c0 20-1 40 0 60a135 135 0 0 0 6 34 177 177 0 0 0 22 50 146 146 0 0 0 55 49 127 127 0 0 0 51 15 220 220 0 0 0 32 2 231 231 0 0 0 51-8 112 112 0 0 0 68-58 175 175 0 0 0 17-57 252 252 0 0 0 3-46 156 156 0 0 0-4-21h-16q-82 0-165 0c-5 0-11-1-17 0s-8-3-7-8a94 94 0 0 1 16-55 64 64 0 0 1 46-25 522 522 0 0 1 55 0c11 1 22 3 34 5a26 26 0 0 0 6 0h4c14 0 21-5 24-22a250 250 0 0 0 0-35 93 93 0 0 0-33-12c-12-3-25-4-37-6a150 150 0 0 0-33-4c-6 1-12 1-18 1z m-21 280a55 55 0 0 1-32-30 57 57 0 0 1-8-32h114a73 73 0 0 1-12 43 42 42 0 0 1-40 20h-8a41 41 0 0 1-14-1z m-308-275c-8 0-10 3-10 11v11c0 11 0 22 0 33v191c0 3 0 5 0 7v3c0 5-3 7-8 7-8 1-17 1-26 1-19 0-19 0-19 19v55a71 71 0 0 0 20 3c3 0 5 0 7 0a89 89 0 0 1 25 2c0 7 0 14 0 20 0 4 0 8 0 12 0 3 0 5 0 7a121 121 0 0 0 11 45 78 78 0 0 0 32 36 113 113 0 0 0 51 17c2 0 5 0 8 0a24 24 0 0 0 3 0h17c10 0 20 0 30-1a190 190 0 0 0 28-5c5-1 6-5 6-9 1-7 1-15 1-22 0-5 0-10 0-14s0-10 0-14c0-2 0-3 0-4a12 12 0 0 0-1-4c-1-1-3-1-6-1-1 0-2 0-3 0a83 83 0 0 0-16 2 55 55 0 0 1-14 2h-2a94 94 0 0 1-24-4 28 28 0 0 1-23-24c-1-9-2-18-3-27v-3c0-9 3-11 13-11 30 0 60 0 89 0 2 0 4 0 6 0 4 0 7-2 7-4a8 8 0 0 0-2-4 208 208 0 0 0-41-53 60 60 0 0 0-33-14c-9 0-18-1-28-2s-10-2-11-12c0-5 0-10 0-15v-15c0-66 0-131 0-197 0-4 0-8 0-12 0-10-3-12-12-12-8 0-16 0-24 0h-36c-4-1-8-1-12-1z m1278 0h-64c-14 0-15 1-15 15v281c0 39 0 78 0 117 0 13 0 26 0 38 0 6 1 12 1 19h93v-451c0-16 0-18-11-19z m-229 0c-13 0-14 2-14 15v326c11 0 22 0 33 0 4 0 8 0 13 0h6c13 0 27 0 41-1 0-5 1-8 1-12q0-157 0-314c0-12-1-13-13-13-16 0-33-1-49-1z m-107 0h-44a25 25 0 0 0-7 17c-2 20-4 40-6 60-4 24-7 48-10 73-2 16-5 32-8 48a12 12 0 0 1 0 2c-2 19-4 38-5 56a87 87 0 0 1-7 28c-3-7-6-14-7-20-4-15-7-30-11-45-4-15-8-31-13-46-3-14-7-28-10-41-4-16-8-32-12-48q-7-26-14-52c-1-6-3-13-4-20-3-9-6-11-16-11-20 0-41 0-62 0-10 0-12 2-14 12s-5 19-8 28c-2 7-4 14-6 22-5 21-10 42-15 63-3 9-6 18-9 27-2 8-4 15-5 23-5 21-10 42-16 63-3 13-8 27-12 42a51 51 0 0 1-5-5c-1-1 0-2-1-3-2-18-3-36-5-53-2-13-4-26-6-39-2-19-5-38-8-57a23 23 0 0 1-1-3c-2-19-3-37-5-56-2-13-3-26-5-39-1-7-3-13-4-19a8 8 0 0 0-8-6 124 124 0 0 0-13-1c-18 0-36 0-54 0-7 0-9 2-9 8 0 0 0 1 0 2a110 110 0 0 0 4 35 13 13 0 0 1 1 6v1a29 29 0 0 0 0 3c1 9 3 17 4 25a40 40 0 0 1 0 5 304 304 0 0 0 4 37c4 18 4 36 7 54 2 19 6 38 9 57a9 9 0 0 1 0 2c2 19 3 37 5 55 2 17 5 34 8 51 0 3 1 6 1 9 2 19 4 37 6 56 1 8 3 16 6 25h22c8 0 16 0 24 0q17 0 34 0a45 45 0 0 0 45-38c4-17 9-33 14-50 1-6 3-12 4-19 6-21 11-42 16-63 1-7 4-14 6-21 4-17 9-34 13-52 2-5 4-11 7-19 1 5 2 7 3 9 4 16 9 32 13 48 2 6 3 13 5 19 5 22 10 43 15 64 5 15 10 31 14 46 2 9 3 18 6 27a152 152 0 0 0 11 29 36 36 0 0 0 30 19c11 0 23 1 35 1h4c15 0 30-1 45-1 2 0 3-1 4-1s1-1 1-2c2-15 4-31 6-47 2-17 5-33 7-50l1-3c2-19 4-37 6-56 3-20 6-39 9-59 0-1 0-2 0-3 2-19 4-37 6-56 2-16 5-32 7-48a23 23 0 0 0 1-3c2-20 4-40 7-60 1-9 3-19 4-28a29 29 0 0 0 0-5c0-9-3-10-13-10z m-1379 0h-41c-12 0-12 1-13 14-1 8-1 15-1 23q0 90 0 180t0 181c0 10 1 21 1 31a235 235 0 0 0 42 3h9a294 294 0 0 0 43-2c0-4 1-9 1-14q0-158 0-315v-8c0-3 0-5 0-8a7 7 0 0 1 7-7c3 0 7 0 10 0 43 0 86 0 129 0h11l2-3a187 187 0 0 0-51-62 58 58 0 0 0-16-7 167 167 0 0 0-33-5c-20 0-40 0-60 0z m247 1c-12 0-14 3-14 15v310c0 2 0 4 0 7v0a7 7 0 0 0 8 8 47 47 0 0 0 6 0c15 0 29 0 43 0 8 0 15 0 22 0 17 0 17-1 17-17v-153h0v-154c0-14-1-16-15-16-11-1-22-1-33-1s-22 0-34 1z m1226 420a56 56 0 0 0 55 56 56 56 0 0 0 56-56 56 56 0 0 0-56-55 56 56 0 0 0-55 55z m-1242-5a48 48 0 0 0-6 22 53 53 0 0 0 20 42 70 70 0 0 0 30 14c1 0 1 0 2 0 2 0 4 0 5 0a50 50 0 0 0 23-6 65 65 0 0 0 10-5 54 54 0 0 0 23-41 17 17 0 0 0 0-3 51 51 0 0 0-5-21 47 47 0 0 0-27-28 195 195 0 0 0-29-5 54 54 0 0 0-46 31z" horiz-adv-x="2455" />

<glyph glyph-name="listadeseos-1" unicode="&#xe837;" d="M451 107a25 25 0 0 0-14 4 1427 1427 0 0 0-225 186 203 203 0 0 0-36 207 150 150 0 0 0 122 103 185 185 0 0 0 153-46 184 184 0 0 0 153 46h0a150 150 0 0 0 121-103 203 203 0 0 0-36-207 1428 1428 0 0 0-225-186 25 25 0 0 0-13-4z m-127 452a191 191 0 0 1-21-1 101 101 0 0 1-80-72 156 156 0 0 1 26-156 1335 1335 0 0 1 202-168 1337 1337 0 0 1 201 168 156 156 0 0 1 27 156 101 101 0 0 1-81 72c-91 9-126-47-126-48a26 26 0 0 0-43 0 122 122 0 0 1-105 49z m538-342a447 447 0 0 1 39 183 451 451 0 0 1-450 450 451 451 0 0 1-451-450 451 451 0 0 1 451-451 448 448 0 0 1 176 36 188 188 0 0 1 180-135 188 188 0 0 1 188 188 188 188 0 0 1-133 179z m-243-181a398 398 0 0 0-168-38 401 401 0 0 0-402 402 401 401 0 0 0 402 401 401 401 0 0 0 401-401 398 398 0 0 0-41-174c-1 0-2 0-4 0a188 188 0 0 1-188-188c0-1 0-1 0-2z m188-141a143 143 0 0 0-139 110 142 142 0 0 0-4 33 141 141 0 0 0 2 24 143 143 0 0 0 119 117 141 141 0 0 0 22 2 143 143 0 0 0 34-5 143 143 0 0 0 109-138 143 143 0 0 0-143-143z m79 163h-59v59a20 20 0 0 1-20 20 20 20 0 0 1-20-20v-59h-59a20 20 0 0 1-20-20 20 20 0 0 1 20-20h59v-59a20 20 0 0 1 20-20 20 20 0 0 1 20 20v59h59a20 20 0 0 1 20 20 20 20 0 0 1-20 20z" horiz-adv-x="995" />

<glyph glyph-name="promociones" unicode="&#xe838;" d="M994 240l-382 382c33-8 64-13 75-14a636 636 0 0 1 93-8c77 0 117 20 138 39a59 59 0 0 1 4 83c-53 58-221 67-239 67a662 662 0 0 1-217-22l-76 77a21 21 0 0 1-15 6h-250a21 21 0 0 1-15-6l-104-104a21 21 0 0 1-6-15v-250a21 21 0 0 1 6-15l604-604a21 21 0 0 1 30 0l354 354a21 21 0 0 1 0 30z m-313 508c65-3 179-20 211-54a17 17 0 0 0-2-25c-18-16-66-40-198-20-50 7-130 25-149 44a21 21 0 0 1-7 5l-35 35a606 606 0 0 0 180 15z m-639-32l92 92h232l55-54a775 775 0 0 1-106-42 125 125 0 1 1 26-34 782 782 0 0 0 113 43l371-371-325-325-458 459z m270-95a83 83 0 1 0-83 83 83 83 0 0 0 84-83z m313-721l-95 96 324 325 96-96z m57 457a21 21 0 0 1-30 30l-187-188a21 21 0 0 1 29-29z m-63 92a21 21 0 0 1-29 0l-188-187a21 21 0 0 1 30-30l187 188a21 21 0 0 1 0 29z m-62 63a21 21 0 0 1-30 0l-187-188a21 21 0 0 1 29-29l188 187a21 21 0 0 1 0 30z" horiz-adv-x="1000" />

<glyph glyph-name="puntosnovencen" unicode="&#xe839;" d="M333 517a334 334 0 0 1-333-334 330 330 0 0 1 69-203 21 21 0 0 1 29-3 21 21 0 0 1 4 29 289 289 0 0 0-60 177 292 292 0 0 0 291 292 292 292 0 0 0 292-292 292 292 0 0 0-292-291 289 289 0 0 0-177 60 21 21 0 0 1-29-4 21 21 0 0 1 3-29 330 330 0 0 1 203-69 334 334 0 0 1 334 333 334 334 0 0 1-334 334z m334 250a250 250 0 0 1-246-205 21 21 0 0 1 17-24 20 20 0 0 1 3 0 21 21 0 0 1 21 17 208 208 0 0 0 205 170 207 207 0 0 0 115-35 21 21 0 0 1 29 6 21 21 0 0 1-5 29 249 249 0 0 1-139 42z m38-455a21 21 0 0 1-17-24 21 21 0 0 1 20-17 20 20 0 0 1 4 0 250 250 0 0 1 205 246 249 249 0 0 1-42 138 21 21 0 0 1-29 6 21 21 0 0 1-6-29 207 207 0 0 0 35-115 208 208 0 0 0-170-205z m3-126a21 21 0 0 1 3 0c8 1 15 3 22 4a334 334 0 0 1 267 327 334 334 0 0 1-333 333 334 334 0 0 1-327-267q-2-11-4-22a21 21 0 0 1 18-23 21 21 0 0 1 24 18c0 6 2 13 3 19a292 292 0 0 0 286 233 292 292 0 0 0 291-291 292 292 0 0 0-233-286c-6-1-13-3-19-3a21 21 0 0 1-18-24 21 21 0 0 1 20-18z m-236 205a249 249 0 0 1-139 42 250 250 0 0 1-250-250 250 250 0 0 1 250-250 250 250 0 0 1 250 250 249 249 0 0 1-41 139 21 21 0 0 1-29 6 21 21 0 0 1-6-29 207 207 0 0 0 35-116 209 209 0 0 0-209-208 209 209 0 0 0-208 208 209 209 0 0 0 208 209 207 207 0 0 0 116-35 21 21 0 0 1 29 5 21 21 0 0 1-6 29z m-159-145a63 63 0 0 1-63 62 63 63 0 0 1-62-62 63 63 0 0 1 62-63 63 63 0 0 1 63 63z m-84 0a21 21 0 0 0 21 21 21 21 0 0 0 21-21 21 21 0 0 0-21-21 21 21 0 0 0-21 21z m250 0a63 63 0 0 1-62 62 63 63 0 0 1-63-62 63 63 0 0 1 63-63 63 63 0 0 1 62 63z m-62-21a21 21 0 0 0-21 21 21 21 0 0 0 21 21 21 21 0 0 0 21-21 21 21 0 0 0-21-21z m-84-187a126 126 0 0 1 124 75 21 21 0 0 1-12 27 21 21 0 0 1-27-11 87 87 0 0 0-85-50 87 87 0 0 0-84 50 21 21 0 0 1-28 11 21 21 0 0 1-11-27 126 126 0 0 1 123-75z m427 436a21 21 0 0 1-27-12 87 87 0 0 0-85-49 129 129 0 0 0-23 2c1-2 1-3 1-5a107 107 0 0 0 17-39c1 0 3 0 5 0a126 126 0 0 1 123 76 21 21 0 0 1-11 27z m-112 107a63 63 0 0 1-63 63 63 63 0 0 1-62-63 63 63 0 0 1 62-62 63 63 0 0 1 63 62z m-63-21a21 21 0 0 0-21 21 21 21 0 0 0 21 21 21 21 0 0 0 21-21 21 21 0 0 0-21-21z m229 21a63 63 0 0 1-62 63 63 63 0 0 1-63-63 63 63 0 0 1 63-62 63 63 0 0 1 62 62z m-83 0a21 21 0 0 0 21 21 21 21 0 0 0 21-21 21 21 0 0 0-21-21 21 21 0 0 0-21 21z m-2-580a21 21 0 0 1-26 15 21 21 0 0 1-15-25l21-84a21 21 0 0 1 20-15 21 21 0 0 1 5 0 21 21 0 0 1 15 25z m214 140l-84 21a21 21 0 0 1-25-15 21 21 0 0 1 15-25l83-21a21 21 0 0 1 6-1 21 21 0 0 1 20 16 21 21 0 0 1-15 25z m-137-68a21 21 0 0 1-29 0 21 21 0 0 1 0-29l63-63a21 21 0 0 1 14-6 21 21 0 0 1 15 6 21 21 0 0 1 0 30z m-534 626a21 21 0 0 1 20-16 21 21 0 0 1 5 1 21 21 0 0 1 15 25l-21 84a21 21 0 0 1-25 15 21 21 0 0 1-15-25z m-215-140l84-21a21 21 0 0 1 5 0 21 21 0 0 1 20 15 21 21 0 0 1-15 26l-83 20a21 21 0 0 1-26-15 21 21 0 0 1 15-25z m137 68a21 21 0 0 1 14-6 21 21 0 0 1 15 6 21 21 0 0 1 0 29l-62 63a21 21 0 0 1-30 0 21 21 0 0 1 0-30z" horiz-adv-x="1000" />

<glyph glyph-name="tarjeta" unicode="&#xe83a;" d="M1341-150h-1227a114 114 0 0 0-114 114v772a114 114 0 0 0 114 114h1227a114 114 0 0 0 114-114v-772a114 114 0 0 0-114-114z m-1227 955a68 68 0 0 1-68-69v-772a68 68 0 0 1 68-69h1227a68 68 0 0 1 68 69v772a68 68 0 0 1-68 69z m432-455h-114a23 23 0 0 0-23 23v113a137 137 0 0 0 137 137 137 137 0 0 0 136-137 137 137 0 0 0-136-136z m-91 46h91a91 91 0 0 1 90 90 91 91 0 0 1-90 91 91 91 0 0 1-91-91z m-23-46h-114a137 137 0 0 0-136 136 137 137 0 0 0 136 137 137 137 0 0 0 137-137v-113a23 23 0 0 0-23-23z m-114 227a91 91 0 0 1-91-91 91 91 0 0 1 91-90h91v90a91 91 0 0 1-91 91z m296-409a23 23 0 0 0-16 7l-166 166-166-166a23 23 0 0 0-32 0 23 23 0 0 0 0 32l182 182a23 23 0 0 0 32 0l182-182a23 23 0 0 0 0-32 23 23 0 0 0-16-7z m-182 455a23 23 0 0 0-23 23v181a23 23 0 0 0 23 23 23 23 0 0 0 23-23v-182a23 23 0 0 0-23-22z m0-773a23 23 0 0 0-23 23v363a23 23 0 0 0 23 23 23 23 0 0 0 23-23v-363a23 23 0 0 0-23-23z m-273 500h-136a23 23 0 0 0-23 23 23 23 0 0 0 23 22h136a23 23 0 0 0 23-22 23 23 0 0 0-23-23z m1273 0h-727a23 23 0 0 0-23 23 23 23 0 0 0 23 22h727a23 23 0 0 0 23-22 23 23 0 0 0-23-23z m-364-273h-136a23 23 0 0 0-23 23 23 23 0 0 0 23 23h136a23 23 0 0 0 23-23 23 23 0 0 0-23-23z m182-91h-318a23 23 0 0 0-23 23 23 23 0 0 0 23 23h318a23 23 0 0 0 23-23 23 23 0 0 0-23-23z" horiz-adv-x="1455" />

<glyph glyph-name="tiendaonline" unicode="&#xe83b;" d="M21-150a21 21 0 0 0-21 21 21 21 0 0 0 21 21h62v525a112 112 0 0 0-83 108v33a0 0 0 0 1 0 1 22 22 0 0 0 4 12l165 269c0 1 1 1 1 2a37 37 0 0 0 3 3 32 32 0 0 0 3 2 26 26 0 0 0 4 2 22 22 0 0 0 4 0 15 15 0 0 0 2 1h621a10 10 0 0 0 3-1 18 18 0 0 0 4 0 25 25 0 0 0 3-2 28 28 0 0 0 4-2 40 40 0 0 0 2-3c1-1 1-1 2-2l164-268a23 23 0 0 0 5-14 16 16 0 0 0 0-3v-30a112 112 0 0 0-83-108v-94l-41 9v81a112 112 0 0 0-83 47 111 111 0 0 0-91-47h-5a111 111 0 0 0-93 51 121 121 0 0 0-99-51h-4a121 121 0 0 0-99 51 111 111 0 0 0-93-51h-5a111 111 0 0 0-91 47 111 111 0 0 0-82-47v-521h62v250a21 21 0 0 0 20 21h166a21 21 0 0 0 20-21v-250h477v136a51 51 0 0 1 33 15l8 8v-159h62a21 21 0 0 0 21-21 21 21 0 0 0-21-21z m207 42h124v229h-124z m579 633a71 71 0 0 1 71-71h4a71 71 0 0 1 70 71v11h-145z m-186 10v-10a71 71 0 0 1 70-71h5a71 71 0 0 1 70 71v11h-145z m-207 0a81 81 0 0 1 81-81h4a81 81 0 0 1 81 81v1h-166z m-186-10a71 71 0 0 1 70-71h5a71 71 0 0 1 70 71v11h-145z m-186 0a71 71 0 0 1 70-71h4a70 70 0 0 1 70 71v11h-145z m759 55h135l-140 228h-83z m-183 0h138l-87 228h-86z m-200 0h158l-35 228h-88z m-180 0h138l35 228h-86z m-180 0h135l87 228h-82z m408-641a22 22 0 0 0-22 22v421a22 22 0 0 0 22 22h354a22 22 0 0 0 22-22v-12a55 55 0 0 1-43-16c0 0-1-1-1-2v8h-310v-377h310v254l31-154a58 58 0 0 1 13-27v-95a22 22 0 0 0-22-22z m567 80l-87 88-12-12-32-32a22 22 0 0 0-12-6 24 24 0 0 0-10 1 23 23 0 0 0-15 17l-19 95-25 126a22 22 0 0 0 6 20 22 22 0 0 0 19 6h1l43-9 44-9 134-26a22 22 0 0 0 17-16 22 22 0 0 0-6-22l-43-43 87-88a22 22 0 0 0 7-15 22 22 0 0 0-7-16l-59-59a22 22 0 0 0-15-7 22 22 0 0 0-16 7z m-72 135l88-88 28 28-88 87a23 23 0 0 0-7 16 23 23 0 0 0 7 16l30 30-85 16-44 9-20 4 20-98 10-50 30 30a23 23 0 0 0 4 3 22 22 0 0 0 11 3 22 22 0 0 0 16-6z m-297-138a22 22 0 0 0-22 22 22 22 0 0 0 22 22h44v44a22 22 0 0 0 22 22 22 22 0 0 0 22-22v-67a22 22 0 0 0-22-22z m-457 184a22 22 0 0 0-22 22v133a22 22 0 0 0 22 22h177a22 22 0 0 0 23-22v-133a22 22 0 0 0-23-22z m22 44h133v89h-133z" horiz-adv-x="1130" />

<glyph glyph-name="whatsapp" unicode="&#xe83c;" d="M996 416a500 500 0 1 1-968-230 485 485 0 0 1 20-49 177 177 0 0 0 23-48 207 207 0 0 0-14-55l-13-55q-16-63-32-126 86 20 171 41a181 181 0 0 0 85 13c27-8 53-25 81-34a500 500 0 0 1 647 543z m-81-84a421 421 0 0 0-297-380 414 414 0 0 0-322 36c-24 14-25 16-51 7q-66-21-133-42 15 43 29 87c9 26 28 55 14 79a490 490 0 0 0-64 162 415 415 0 1 0 824 51c-3-61 1 19 0 0z m-236-232a175 175 0 0 0-77 28 768 768 0 0 0-80 46 674 674 0 0 0-146 128c-55 66-193 246-76 312 60 33 97-18 127-65 13-19 34-48 23-72-11-23-42-30-48-57-10-50 55-112 90-137a141 141 0 0 1 75-33c29 3 36 37 62 46 33 10 62-15 86-33 20-15 56-33 63-60 12-48-55-105-99-103-15-1 5 0 0 0z" horiz-adv-x="1000" />

<glyph glyph-name="acuerdos" unicode="&#xe83d;" d="M730-150h-700a30 30 0 0 0-30 30v809a30 30 0 0 0 9 21l131 131a30 30 0 0 0 21 9h569a30 30 0 0 0 29-30v-940a30 30 0 0 0-29-30z m-671 59h641v882h-527l-114-114z m181 673h-124a28 28 0 1 0 0 56h96v96a28 28 0 0 0 56 0v-124a28 28 0 0 0-28-28z m77-425a28 28 0 0 0-20 8l-132 132a28 28 0 0 0 40 39l112-112 229 228a28 28 0 1 0 39-39l-248-248a28 28 0 0 0-20-8z" horiz-adv-x="759" />

<glyph glyph-name="calendario" unicode="&#xe83e;" d="M1017-114h-170v158h219v-109a49 49 0 0 0-49-49z m-981 49v109h219v-158h-170a49 49 0 0 0-49 49z m49 768h52v-29a83 83 0 1 1 165 0v29h166v-29a83 83 0 1 1 165 0v29h166v-29a83 83 0 1 1 165 0v29h53a49 49 0 0 0 49-50v-183h-1030v183a49 49 0 0 0 49 50z m88 64a47 47 0 1 0 93 0v-94a47 47 0 1 0-93 0v94z m378 47a47 47 0 0 0 47-47v-46h0v-47a47 47 0 1 0-94 0v94a47 47 0 0 0 47 46z m284-47a47 47 0 1 0 93 0v-94a47 47 0 1 0-93 0v94z m12-527h219v-161h-219v161z m-278-161v161h242v-160z m0-35h242v-159h-242v159z m-36 0v-159h-243v159z m-243 196h243v-161h-243v161z m-254 0h218v-161h-218v161z m218 36h-218v158h218v-158z m812 158v-158h-219v158z m-255 0v-158h-242v158z m-278 0v-158h-242v158z m484 304h-53v29a83 83 0 1 1-165 0v-29h-166v29a83 83 0 1 1-165 0v-29h-165v29a83 83 0 1 1-166 0v-29h-52a85 85 0 0 1-85-85v-718a85 85 0 0 1 85-85h932a85 85 0 0 1 85 85v718a85 85 0 0 1-85 86z" horiz-adv-x="1102" />

<glyph glyph-name="carrito" unicode="&#xe83f;" d="M985 688h-731l-42 99a35 35 0 0 1-24 20l-136 32a35 35 0 0 1-15-67l118-28 304-714a114 114 0 1 1 205-11h124a114 114 0 1 1 105 70l-384-1-47 111h523a35 35 0 0 1 35 35v420a35 35 0 0 1-35 34z m-92-669a45 45 0 1 0-45-45 45 45 0 0 0 45 45z m-334 0a45 45 0 1 0-46-45 45 45 0 0 0 45 45z m392 459h-230a35 35 0 0 1 0-69h230v-140h-518l-149 350h667z" horiz-adv-x="1030" />

<glyph glyph-name="chat" unicode="&#xe840;" d="M1180 254a276 276 0 0 1-144 229q1-5 1-11a385 385 0 0 0-164-306 619 619 0 0 0-354-120 450 450 0 0 1 275-87 506 506 0 0 1 64 4c86-131 192-114 208-110 24 5-2 49-17 91a311 311 0 0 0-14 79 276 276 0 0 1 145 231z m-191 218c0 209-221 378-494 378s-495-169-495-378c0-120 73-227 186-296a398 398 0 0 0-19-101c-18-54-52-110-21-117 20-5 156-27 266 141a648 648 0 0 1 83-6c273 0 494 170 494 379z m-736-87a78 78 0 1 0 78 78 78 78 0 0 0-78-78z m242 0a78 78 0 1 0 78 78 78 78 0 0 0-77-78z m243 0a78 78 0 1 0 77 78 78 78 0 0 0-77-78z" horiz-adv-x="1180" />

<glyph glyph-name="comunicacion" unicode="&#xe841;" d="M988 523v234a94 94 0 0 1-93 93h-10c-23 0-41-19-90-70-84-87-239-249-392-249h-288a116 116 0 0 1-115-115v-132a116 116 0 0 1 115-115h288c153 0 308-162 392-249 49-51 67-70 90-70h10a94 94 0 0 1 93 93v234a189 189 0 0 1 0 346z m-927-239v132a55 55 0 0 0 54 54h263v-240h-263a55 55 0 0 0-54 54z m834-373h-4a708 708 0 0 0-52 51c-84 88-235 245-400 265v245c165 21 316 178 400 265a706 706 0 0 0 52 52h4a32 32 0 0 0 32-33v-247a30 30 0 0 1 0-15v-290a30 30 0 0 1 0-14v-248a32 32 0 0 0-32-31z m140 403a127 127 0 0 0-47-67v206a128 128 0 0 0 47-139z m163 168a24 24 0 0 1 10 2l201 94a24 24 0 0 1-21 44l-200-94a24 24 0 0 1 10-46z m210-360l-200 94a24 24 0 1 1-20-44l200-94a24 24 0 0 1 20 44z m53 252h-263a24 24 0 1 1 0-48h263a24 24 0 0 1 0 48z" horiz-adv-x="1485" />

<glyph glyph-name="cumplio-objetivo" unicode="&#xe842;" d="M814 664a445 445 0 1 1 131-314 443 443 0 0 1-131 314m-314 186a500 500 0 1 0-353-146 498 498 0 0 0 353 146z m14-505l403 403a86 86 0 0 0 121-121l-459-458-1-2-1-1a82 82 0 0 0-116 0l-2 3-227 226a82 82 0 0 0 115 116z" horiz-adv-x="1063" />

<glyph glyph-name="editar" unicode="&#xe843;" d="M501 494l-222-384a28 28 0 0 0-11-11l-105-65-107-66a28 28 0 0 0-38 9 27 27 0 0 0-4 16l4 125 4 125a27 27 0 0 0 4 13h0l222 385 48-28-194-336 0 0-24-43-4-128 51-29 109 67 218 378z m-465-644a36 36 0 0 0 0 73h671a36 36 0 1 0 0-73z m427 989l102-59a85 85 0 0 0 40-56 96 96 0 0 0-11-68l-12-22-254 147 13 21a95 95 0 0 0 54 44 85 85 0 0 0 68-7z m92-251l-27-47-254 147 27 46z m-151-37l-59 34-166-288 0 0-45-77a5 5 0 0 1-1-1c-6-10 3-26 19-36s34-9 40 2v0h0z" horiz-adv-x="743" />

<glyph glyph-name="enfriador" unicode="&#xe844;" d="M0 850h963v-37h-963z m0-963h963v-37h-963z m0 963h37v-1000h-37z m0-111h963v-37h-963z m37-778h926v-37h-926z m-37 74h926v-37h-926z m296 667h37v-667h-37z m334 0h37v-704h-37z m296 148h37v-963h-37z" horiz-adv-x="963" />

<glyph glyph-name="favorito" unicode="&#xe845;" d="M530-78l-69 62c-246 223-408 370-408 551a260 260 0 0 0 262 262 286 286 0 0 0 215-100 286 286 0 0 0 215 100 260 260 0 0 0 262-262c0-181-162-328-408-551z" horiz-adv-x="1060" />

<glyph glyph-name="gota" unicode="&#xe846;" d="M328-119a297 297 0 0 1 297 285c15 182-297 653-297 653s-312-471-296-653a297 297 0 0 1 296-285z m565 48a139 139 0 0 1 139 133c7 85-139 305-139 305s-145-220-138-305a139 139 0 0 1 138-133z m-156 525a97 97 0 0 1 97 93c5 60-97 214-97 214s-102-154-97-214a97 97 0 0 1 97-93z" horiz-adv-x="1064" />

<glyph glyph-name="hidratacion" unicode="&#xe847;" d="M19 156c-16 185 300 661 300 661s316-476 300-661-146-280-300-288c-154 8-284 104-300 288z m732-105c-8 86 140 309 140 309s147-223 140-309a140 140 0 0 0-140-134 140 140 0 0 0-140 134z m-117 491c-5 60 98 216 98 216s104-156 98-216a98 98 0 0 0-98-94 98 98 0 0 0-98 94z" horiz-adv-x="1049" />

<glyph glyph-name="materiales" unicode="&#xe848;" d="M764 830v0c0 1 0 2 0 2a25 25 0 0 1-1 3 23 23 0 0 1-2 3c0 0 0 1 0 1a25 25 0 0 1-3 3l0 1a26 26 0 0 1-4 2l0 1a26 26 0 0 1-4 2l0 0a25 25 0 0 1-4 1l-1 1a25 25 0 0 1-4 0l-1 0h-515l-1 0a24 24 0 0 1-4 0h0l-1-1a26 26 0 0 1-4-1l0 0a18 18 0 0 1-2-1 23 23 0 0 1-2-1l0 0c-1 0-1-1-2-1s-1-1-1-2l-1 0c0-1-1-1-1-2s-1-1-1-2l-1 0c0-1 0-1-1-2s-1-1-1-2l0 0c0-1 0-2-1-3s0 0 0-1 0 0 0 0h0v0l0-1v0l-200-950a25 25 0 0 1 49-10l13 64h269a25 25 0 0 1 0 50h-258l152 723 182-837a25 25 0 0 1 24-20 25 25 0 0 1 5 1 25 25 0 0 1 19 29l-12 54h465l14-64a25 25 0 0 1 24-20 25 25 0 0 1 5 1 25 25 0 0 1 19 29z m-508-30h464l58-268a1224 1224 0 0 1-289-38c-43-10-97-24-158-39z m177-816l-97 447c172 19 332 20 469-20l92-427z" horiz-adv-x="971" />

<glyph glyph-name="mensajes" unicode="&#xe849;" d="M512 631a24 24 0 0 0-24 24v97a24 24 0 1 0 49 0v-97a24 24 0 0 0-25-24z m0-781c-69 0-122 32-122 73a24 24 0 1 0 49 0c0-6 26-24 73-24s74 18 74 24a24 24 0 1 0 48 0c0-42-52-73-122-73z m-366 683a24 24 0 0 0-24 24 171 171 0 0 0 171 171 24 24 0 0 0 0-49 122 122 0 0 1-122-122 24 24 0 0 0-25-24z m-122 0a24 24 0 0 0-24 24 293 293 0 0 0 293 293 24 24 0 0 0 0-49 244 244 0 0 1-244-244 24 24 0 0 0-25-24z m879 0a24 24 0 0 0-25 24 122 122 0 0 1-122 122 24 24 0 1 0 0 49 171 171 0 0 0 171-171 24 24 0 0 0-24-24z m121 0a24 24 0 0 0-24 24 244 244 0 0 1-244 244 24 24 0 1 0 0 49 293 293 0 0 0 293-293 24 24 0 0 0-25-24z m-170-586h-683a24 24 0 0 0-25 25v49a24 24 0 0 0 5 13l93 140v237a268 268 0 1 0 537 0v-237l93-140a24 24 0 0 0 4-13v-49a24 24 0 0 0-24-25z m-659 49h634v17l-93 141a24 24 0 0 0-4 13v244a220 220 0 1 1-439 0v-244a24 24 0 0 0-4-13l-94-141z" horiz-adv-x="1049" />

<glyph glyph-name="mismov-1" unicode="&#xe84a;" d="M500 850a500 500 0 1 1 500-500 500 500 0 0 1-500 500z m30-926v61h-60v-61a428 428 0 0 0-396 397h61v59h-61a428 428 0 0 0 396 396v-61h60v61a428 428 0 0 0 396-396h-61v-59h61a428 428 0 0 0-397-397z m8 436l-1 261a38 38 0 0 1-75 3 25 25 0 0 1 0-3l1-278a38 38 0 0 1 15-31l1-1 175-159a38 38 0 1 1 52 55l-1 1z" horiz-adv-x="1000" />

<glyph glyph-name="misobjetivos" unicode="&#xe84b;" d="M391 2l-2 0a425 425 0 1 0 461 423 422 422 0 0 0-35-168 21 21 0 0 0-39 17 382 382 0 1 1-733 151 384 384 0 0 1 350-381 21 21 0 0 0-2-42z m0 128l-2 0a298 298 0 1 0 320 207 21 21 0 1 0-41 13 255 255 0 1 1-274-178 21 21 0 0 0-3-42z m0 129a26 26 0 0 0-5 1 170 170 0 1 0 209 168 21 21 0 0 0-21-21 21 21 0 0 0-22 21 127 127 0 1 1-156-127 21 21 0 0 0-5-42z m319-409a50 50 0 0 0-12 1 45 45 0 0 0-28 20l-75 133-72-69a34 34 0 0 0-36-9 33 33 0 0 0-20 30v405a21 21 0 0 0 34 18l327-239a42 42 0 0 0 18-46 43 43 0 0 0-43-30h-75l67-116a50 50 0 0 0-19-66l-37-24a55 55 0 0 0-29-8z m-110 210a19 19 0 0 0 3 0 21 21 0 0 0 15-11l89-156a12 12 0 0 1 9 2l37 23c4 3 6 8 5 9l-85 147a21 21 0 0 0 18 32h112l-293 214v-339l75 73a21 21 0 0 0 15 6z m203 46z" horiz-adv-x="850" />

<glyph glyph-name="mitienda" unicode="&#xe84c;" d="M334 213a522 522 0 0 1-21 310c-4 11-8 20-13 29a385 385 0 0 0-31 93 353 353 0 0 0-9 58 56 56 0 0 1 13 32 69 69 0 0 1-10 40 59 59 0 0 1 2 25c-4 33-27 50-67 50l-22 0-23 0c-41 0-63-17-68-50a61 61 0 0 1 3-25 68 68 0 0 1-11-40 57 57 0 0 1 13-32 358 358 0 0 0-8-58 537 537 0 0 0-33-96c-4-8-7-16-11-26a522 522 0 0 1-21-309c24-93 14-140 7-159-47-121-15-166 20-183a298 298 0 0 1 130-22h3a298 298 0 0 1 130 22c35 17 67 62 20 183-8 19-17 66 7 158z m-257 294c4 10 8 18 12 27a422 422 0 0 1 34 102c3 12 16 74 6 88a12 12 0 0 1-3 3 14 14 0 0 0-6 11 40 40 0 0 0 13 26 12 12 0 0 1-1 17 15 15 0 0 0-4 14c1 11 7 13 25 13h45c18 0 24-2 25-13a15 15 0 0 0-5-14 12 12 0 0 1 0-17 40 40 0 0 0 13-26 15 15 0 0 0-7-11 12 12 0 0 1-3-3c-10-15 5-81 6-88a420 420 0 0 1 35-102c4-8 8-17 12-27a436 436 0 0 0 28-115c0 2 0 4-1 6a915 915 0 0 1-244-30l-11-3a453 453 0 0 0 31 142z m211-597h0a262 262 0 0 0-111-17h-3a263 263 0 0 0-112 17c-37 18-11 96 1 129a324 324 0 0 1-5 185 434 434 0 0 0-13 103 816 816 0 0 0 260-24 416 416 0 0 0-12-79 324 324 0 0 1-5-185c12-33 38-111 0-129z" horiz-adv-x="351" />

<glyph glyph-name="notificaciones" unicode="&#xe84d;" d="M425-150a100 100 0 0 1 100 100h-200a100 100 0 0 1 100-100z m325 300v275a322 322 0 0 1-250 315v35a75 75 0 0 1-150 0v-35a322 322 0 0 1-250-315v-275l-100-100v-50h850v50z m-100-50h-450v325a225 225 0 0 0 450 0z" horiz-adv-x="850" />

<glyph glyph-name="objetivosmes" unicode="&#xe84e;" d="M298 277a46 46 0 0 0 37 20 124 124 0 0 0 76-22 189 189 0 0 1-47 38 130 130 0 0 1-68 19c-69 1-144-33-195-33a55 55 0 0 0-59 71 300 300 0 0 0 74 135 175 175 0 0 0 72 55c22 5 20-12 17-14a23 23 0 0 1-11-3 24 24 0 0 1-11-18c-1-15 18-17 32 13a24 24 0 0 1-18 36 118 118 0 0 1-72-23 266 266 0 0 1-125-194 68 68 0 0 1 73-75c44 0 100 27 157 27a73 73 0 0 0 68-32z m-91 225c-28 8-77-42-97-82-12-25-18-56 4-64s60 32 69 44 24 36 24 36 4 0 7 1 8 2 8 2-6-10-11-20c-6-11-22-51 9-63 29-11 71 36 73 37 0 0-12-32 7-37 21-6 44 21 44 21s-5-20 12-22c29-4 82 72 82 72h-11a241 241 0 0 0-39-41c-13-7-8 6-5 11 5 7 61 102 61 102h-30l-3-5a20 20 0 0 1-17 9c-30-2-65-51-81-72s-50-61-68-54c-19 8 0 44 13 65 14 23 39 46 49 46 12 0 7-11 7-11a18 18 0 0 1-15-7c-5-6-9-14-4-19 7-7 16 0 21 9 17 26 5 40-8 42-29 5-56-33-76-46-14-10-19-9-19-9s24 48-6 55z m130-85a363 363 0 0 0 36 50c15 20 23 21 28 21a5 5 0 0 0 4-4s-33-59-46-76c-4-5-7-10-10-13a34 34 0 0 0-15-12 8 8 0 0 0-5 1c-6 3-1 15 8 33z m-142 19a277 277 0 0 0-18-27c-8-11-24-28-34-25-15 6 1 38 12 54s12 18 13 18 0 1 0 0a33 33 0 0 1 11-12 65 65 0 0 1 16-7c0 0 1 0 0-1z m13 24a132 132 0 0 0-6-13 3 3 0 0 0-3-1c-2 0-20 5-20 19s20 28 28 22 4-19 1-26z m286 39h-28l-16-26h28z m366-196a18 18 0 0 1 0-27 18 18 0 0 1 26 0 18 18 0 0 1 5 13 18 18 0 0 1-5 14 18 18 0 0 1-13 5 17 17 0 0 1-13-5z m28-14a16 16 0 0 0-4-11 16 16 0 0 0-11-4 15 15 0 0 0-11 4 16 16 0 0 0-5 12 16 16 0 1 0 31 0z m-23 11v-20h4v8h3a8 8 0 0 0 4-1c1-1 2-2 2-5v-2s0 0 0 0v0h3v0s0 1 0 1 0 1 0 2v1a7 7 0 0 1-1 3 5 5 0 0 1-4 2 8 8 0 0 1 3 1 4 4 0 0 1 2 4 5 5 0 0 1-3 5 15 15 0 0 1-5 1z m12-6a3 3 0 0 0-2-4 12 12 0 0 0-3 0h-3v7h3a9 9 0 0 0 4 0 3 3 0 0 0 1-3z m-120 180a628 628 0 0 1-62-102 59 59 0 0 0-11-4 12 12 0 0 0-6 0l0 0s29 54 0 61c-29 7-78-45-95-82-12-25-19-56 2-64 22-8 60 33 68 44a359 359 0 0 1 20 32s6 0 9 1a82 82 0 0 1 8 1s-4-10-8-22c-7-23-14-55 13-57 17-1 42 30 42 30s-7-28 15-30c16-2 40 23 40 23s-5-21 11-23c14-2 34 15 51 33a352 352 0 0 1 32 42h-11a191 191 0 0 0-39-45c-13-7-9 5-5 11s61 103 61 103h-30l-5-8a21 21 0 0 1-17 11c-17 0-35-14-56-37-15-17-40-56-40-56s-19-30-29-27c-16 4 14 65 14 65a350 350 0 0 1 37 28c13 11 28 26 42 40a475 475 0 0 1 41 49 104 104 0 0 0-11-1 481 481 0 0 0-37-44 519 519 0 0 0-45-41 150 150 0 0 0-17-13 660 660 0 0 0 55 91c35 47 84 91 80 70a94 94 0 0 0-10-25 115 115 0 0 1 11 3c8 18 11 32 5 36-26 18-91-52-123-93z m-94-114a201 201 0 0 0-16-25c-8-11-24-27-34-24-15 6 2 38 12 54s12 17 13 17 0 1 0 0a47 47 0 0 1 11-12 62 62 0 0 1 14-9c0 0 1 0 0-1z m7 12c-1-2-2-2-4-2a25 25 0 0 0-17 23c0 14 20 28 28 22s3-20 1-27a125 125 0 0 0-8-16z m113-27a249 249 0 0 0 36 50c16 19 22 20 27 19a5 5 0 0 0 4-4 9 9 0 0 0 0-2c-6-10-33-57-44-72-4-6-8-10-11-14-6-7-10-11-14-12a8 8 0 0 0-6 1c-5 3-1 16 8 34z m53 177c-7-7-14-16-22-25a125 125 0 0 1 114 46 153 153 0 0 1 21 31 190 190 0 0 0-35-29 129 129 0 0 0-78-23z m-356-239c45 0 89 52 104 94s-3 54-16 53a77 77 0 0 1-56-44 121 121 0 0 1-14-48 149 149 0 0 0 19 18 85 85 0 0 0 20 11 105 105 0 0 0 8 22 44 44 0 0 0 24 25c20 6 10-32-5-57-8-13-37-52-62-52s-30 24-25 47a267 267 0 0 0 50 104 331 331 0 0 0 98 96c24 13 33 8 33 8a205 205 0 0 1-47-41c-16-22-26-46-18-57s33-12 60 29a83 83 0 0 1 21 64 45 45 0 0 0 6 1 65 65 0 0 0 41-10c17-9 34-24 57-36 7 8 15 16 23 24a251 251 0 0 1-85 39 106 106 0 0 1-48-8s-8 11-32 8a287 287 0 0 1-167-141c-60-95-32-150 11-149z m178 235a114 114 0 0 0-30-42c-14-13-22-13-26-10-9 6 3 33 24 55a118 118 0 0 0 39 30 58 58 0 0 0-6-33z m398 109a30 30 0 0 1-30-29v-231a30 30 0 0 1 30-30h262a30 30 0 1 1 0 60h-232v201a30 30 0 0 1-30 29z m381-248l-137 334a30 30 0 0 1-28 19h-186v88a30 30 0 0 1-30 30h-922a30 30 0 1 1 0-60h892v-88a30 30 0 0 1 30-30h196l128-311v-350h-87a154 154 0 0 1-143 130 146 146 0 0 1-144-127c0-1 0-2 0-3h-446a154 154 0 0 1-143 130 146 146 0 0 1-144-127c0-1 0-2 0-3h-138a30 30 0 1 1 0-60h144a145 145 0 0 1 277 0h456a145 145 0 0 1 277 0h121a30 30 0 0 1 30 30v387a30 30 0 0 1-3 11z m-1031-469a86 86 0 0 0 9 171 93 93 0 0 0 87-98 86 86 0 0 0-96-73z m732 0a86 86 0 0 0 9 171 93 93 0 0 0 87-98 86 86 0 0 0-95-73z" horiz-adv-x="1439" />

<glyph glyph-name="objetivosnivel" unicode="&#xe84f;" d="M1308 133a50 50 0 0 0-23 6l-171 90a28 28 0 0 0 26 49l161-84-31 179a50 50 0 0 0 15 45l130 127-181 26a50 50 0 0 0-37 27l-81 164-81-164a28 28 0 1 0-50 25l86 174a50 50 0 0 0 90 0l85-171 189-28a50 50 0 0 0 27-85l-136-133 32-188a50 50 0 0 0-49-59z m248 173a45 45 0 0 0-21 6l-97 51a28 28 0 1 0 26 49l78-41-22 125a45 45 0 0 0 13 40l91 88-125 18a45 45 0 0 0-34 25l-56 113-40-80a28 28 0 1 0-50 25l50 100a45 45 0 0 0 40 25h0a45 45 0 0 0 40-25l63-128 142-21a45 45 0 0 0 25-77l-103-99 25-141a45 45 0 0 0-45-53z m-919 152m394-453a53 53 0 0 0-25 6l-189 100a28 28 0 0 0 26 49l184-96-35 204a53 53 0 0 0 15 47l148 145-205 30a53 53 0 0 0-40 28l-92 186-91-186a28 28 0 1 0-51 25l95 192a53 53 0 0 0 95 0l94-190 210-31a53 53 0 0 0 29-90l-152-148 36-210a53 53 0 0 0-52-61z m-301 124m-523-279a56 56 0 0 0-56 66l42 241-176 171a56 56 0 0 0 31 96l242 35 109 220a56 56 0 0 0 50 32h0a56 56 0 0 0 51-32l108-219 243-36a56 56 0 0 0 31-96l-176-171 42-241a56 56 0 0 0-82-60l-217 114-217-114a56 56 0 0 0-25-6z m243 177a56 56 0 0 0 26-7l217-114-41 242a56 56 0 0 0 16 49l175 171-242 36a56 56 0 0 0-43 31l-108 220h0l0 0-109-220a56 56 0 0 0-42-31l-242-35 175-172a56 56 0 0 0 16-50l-41-241 217 114a56 56 0 0 0 26 7z" horiz-adv-x="1692" />

<glyph glyph-name="ok" unicode="&#xe850;" d="M500-150a497 497 0 0 0-354 146 497 497 0 0 0-146 354 497 497 0 0 0 146 354 497 497 0 0 0 354 146 497 497 0 0 0 353-146 497 497 0 0 0 147-354 497 497 0 0 0-147-354 497 497 0 0 0-353-146z m-245 502a19 19 0 0 1-6 0 18 18 0 0 1-13-15 18 18 0 0 1 8-17l172-146a19 19 0 0 1 12-4 19 19 0 0 1 13 5c59 60 119 122 173 176l0 0c56 58 115 117 172 176a18 18 0 0 1 4 20 19 19 0 0 1-17 11h-1a19 19 0 0 1-13-6c-54-55-110-112-163-167l-2-2-5-5c-53-54-108-110-162-166l-160 135a19 19 0 0 1-12 5z" horiz-adv-x="1000" />

<glyph glyph-name="pendientes" unicode="&#xe851;" d="M143 136a24 24 0 0 0-19 10l-120 166a24 24 0 0 0 20 38h24a501 501 0 0 0 500 500 24 24 0 0 0 0-48 453 453 0 0 1-453-452v-24a24 24 0 0 0-23-24h-2l71-98 56 98h-6a24 24 0 0 0-24 24v24a381 381 0 0 0 703 203 24 24 0 0 0-40-25 333 333 0 0 1-616-178h24a24 24 0 0 0 21-36l-95-166a24 24 0 0 0-20-12z m409-286a24 24 0 0 0 0 48 453 453 0 0 1 452 452v24a24 24 0 0 0 24 24h1l-70 98-57-98h7a24 24 0 0 0 24-24v-24a381 381 0 0 0-704-203 24 24 0 1 0 40 25 333 333 0 0 1 616 178h-24a24 24 0 0 0-21 36l96 166a24 24 0 0 0 19 12 23 23 0 0 0 21-10l119-166a24 24 0 0 0-19-38h-24a501 501 0 0 0-500-500z m-28 357a24 24 0 0 0-17 7l-95 95a24 24 0 0 0 33 34l78-77 174 195a24 24 0 0 0 35-32l-190-214a24 24 0 0 0-17-8z" horiz-adv-x="1099" />

<glyph glyph-name="premios" unicode="&#xe852;" d="M917 587h-210c99 33 120 86 125 113a103 103 0 0 1-77 109c-67 23-171-1-249-136a28 28 0 0 1-8 1 28 28 0 0 1-6-1c-93 159-211 194-291 170a126 126 0 0 1-97-138c4-24 25-82 121-118h-148a77 77 0 0 1-55-23 77 77 0 0 1-22-56l8-126a80 80 0 0 1 68-75l24-381a80 80 0 0 1 79-76h645v29l1-29a80 80 0 0 1 78 76l-28 1 28-1 16 381a79 79 0 0 1 68 74l8 132a76 76 0 0 1-78 74z m-367 49c50 92 110 124 157 124a92 92 0 0 0 30-5c25-8 40-27 38-47-5-30-59-81-231-92a187 187 0 0 0 6 20z m-390 79a70 70 0 0 0 58 73 115 115 0 0 0 32 5c63 0 144-47 211-180-195-3-291 47-301 102z m-72-352a22 22 0 0 0-22 22l-9 125a20 20 0 0 0 6 14 20 20 0 0 0 14 6l1 28 0-28h391v-167z m70-434l-24 377h335v-399h-289a23 23 0 0 0-22 22z m688 0a22 22 0 0 0-22-22h-298v399h336z m84 455a22 22 0 0 0-22-21h-382v166h392a20 20 0 0 0 14-5 20 20 0 0 0 6-13z" horiz-adv-x="995" />

<glyph glyph-name="respeto" unicode="&#xe853;" d="M143 263h542a23 23 0 0 1 23 23v541a23 23 0 0 1-23 23h-542a23 23 0 0 1-22-23v-541a22 22 0 0 1 22-23z m285 542h234v-177h-234z m0-204h234v-293h-234z m-262 204h235v-497h-235z m540-697c-44 78-117 76-201 74l-27 0c-85-2-136-3-149-47-7-24-12-46-14-56h-65c-21 17-94 73-130 98a71 71 0 1 1-90-108c78-73 167-140 168-140a21 21 0 0 1 13-4h299a40 40 0 0 1 5 0c0 0 15 3 33-19 28-34 41-49 41-49a21 21 0 0 1 16-7h0l202 2a21 21 0 0 1 19 31c-1 1-81 156-120 225z m-91-215c-7 7-18 20-35 40a83 83 0 0 1-63 35 58 58 0 0 1-9-1h-290c-21 16-94 72-159 133-19 18-20 36-12 45 9 12 28 10 49-3 41-28 133-100 133-101a21 21 0 0 1 14-4h280a21 21 0 1 1 0 42h-165c3 11 6 27 11 44 5 14 53 15 110 16l27 1c88 2 132 0 163-53 28-49 78-144 103-193z" horiz-adv-x="828" />

<glyph glyph-name="salir-1" unicode="&#xe854;" d="M433-36h-357v794h341a38 38 0 1 1 0 76h-379a38 38 0 0 1-38-38v-869a38 38 0 0 1 38-38h395a38 38 0 1 1 0 76z m811 415l-467 459a40 40 0 0 1-69-28v-226h-369a41 41 0 0 1-40-40v-366a41 41 0 0 1 40-40h369v-248a41 41 0 0 1 69-28l468 459a40 40 0 0 1 0 58z m-495-160h-369v284h369a41 41 0 0 1 40 41v169l369-363-369-363v191a41 41 0 0 1-40 41z" horiz-adv-x="1257" />

<glyph glyph-name="tienda-1" unicode="&#xe855;" d="M1111-150h-1082a27 27 0 1 0 0 53h1082a27 27 0 1 0 0-53z m-971 0a27 27 0 0 0-27 26v410a27 27 0 0 0 53 0v-410a27 27 0 0 0-26-26z m269 0a27 27 0 0 0-26 26v410a27 27 0 1 0 53 0v-410a27 27 0 0 0-27-26z m591 0a27 27 0 0 0-26 26v410a27 27 0 1 0 53 0v-410a27 27 0 0 0-27-26z m-8 531a150 150 0 0 1-211 0 150 150 0 0 1-211 0 150 150 0 0 1-211 0 150 150 0 0 1-211 0 147 147 0 0 0-148 145 143 143 0 0 0 2 25 27 27 0 0 0 2 6l121 277a27 27 0 0 0 25 16h840a27 27 0 0 0 25-16l121-277a24 24 0 0 0 2-6 144 144 0 0 0 2-25 147 147 0 0 0-148-145z m-105 114a27 27 0 0 0 23-14 94 94 0 0 1 82-47 92 92 0 0 1 93 105l-113 258h-804l-113-258a92 92 0 0 1-1-13 93 93 0 0 1 94-92 94 94 0 0 1 82 47 27 27 0 0 0 47 0 95 95 0 0 1 164 0 27 27 0 0 0 24 14h0a27 27 0 0 0 23-14 95 95 0 0 1 164 0 27 27 0 0 0 47 0 95 95 0 0 1 164 0 27 27 0 0 0 24 14z m-635-44a29 29 0 0 0-5 0 27 27 0 0 0-22 31l53 331a27 27 0 1 0 52-8l-52-332a27 27 0 0 0-26-22z m210 0h-1a27 27 0 0 0-25 28l17 332a27 27 0 0 0 53-3l-18-332a27 27 0 0 0-26-25z m210 0a27 27 0 0 0-26 25l-18 332a27 27 0 0 0 53 3l18-332a27 27 0 0 0-25-28z m210 0a27 27 0 0 0-26 22l-52 332a27 27 0 1 0 52 8l53-331a27 27 0 0 0-22-31 29 29 0 0 0-5 0z m-562-397a27 27 0 0 0-26 27v77a27 27 0 1 0 53 0v-77a27 27 0 0 0-27-27z m314-60a27 27 0 0 0-19 46l239 242a27 27 0 0 0 38-37l-240-243a27 27 0 0 0-18-8z m85-66a27 27 0 0 0-19 45l162 164a27 27 0 1 0 38-37l-162-165a27 27 0 0 0-19-7z" horiz-adv-x="1140" />

<glyph glyph-name="wish" unicode="&#xe856;" d="M244-150a72 72 0 0 0-71 84l47 272-198 194a72 72 0 0 0 40 122l273 40 123 248a72 72 0 0 0 128 0h0l123-248 274-40a72 72 0 0 0 40-122l-199-194 47-272a72 72 0 0 0-104-75l-245 128-245-129a72 72 0 0 0-33-8z m278 217a71 71 0 0 0 34-8l235-124-45 262a72 72 0 0 0 20 64l191 185-263 38a72 72 0 0 0-54 40l-118 238-118-238a72 72 0 0 0-54-40l-263-38 191-185a72 72 0 0 0 20-64l-45-262 235 124a71 71 0 0 0 34 8z m189 492" horiz-adv-x="1044" />
</font>
</defs>
</svg>
