<svg xmlns="http://www.w3.org/2000/svg" width="32" height="32" viewBox="0 0 32 32"><defs><style>.a{fill:#fff;opacity:0;}.b{fill:none;stroke:#fff;stroke-linecap:round;stroke-linejoin:round;}</style></defs><g transform="translate(-46 -569)"><rect class="a" width="32" height="32" transform="translate(46 569)"/><g transform="translate(51.333 576.467)"><path class="b" d="M399.734,593.471l-8.426-7.841a.759.759,0,0,0-.793-.146.692.692,0,0,0-.449.637v3.843h-6.657a.712.712,0,0,0-.73.69v6.236a.712.712,0,0,0,.73.69h6.657v4.225a.691.691,0,0,0,.449.637.757.757,0,0,0,.282.054.748.748,0,0,0,.511-.2l8.425-7.842a.663.663,0,0,0,.048-.937.494.494,0,0,0-.048-.047Z" transform="translate(-378.511 -585.431)"/><path class="b" d="M383.643,585.689h-5.292a.6.6,0,0,0-.529.655v14.991a.6.6,0,0,0,.529.654h5.52" transform="translate(-377.819 -585.467)"/><path class="b" d="M399.734,593.471l-8.426-7.841a.759.759,0,0,0-.793-.146.692.692,0,0,0-.449.637v3.843h-6.657a.712.712,0,0,0-.73.69v6.236a.712.712,0,0,0,.73.69h6.657v4.225a.691.691,0,0,0,.449.637.757.757,0,0,0,.282.054.748.748,0,0,0,.511-.2l8.425-7.842a.663.663,0,0,0,.048-.937.494.494,0,0,0-.048-.047Z" transform="translate(-378.511 -585.431)"/></g></g></svg>