<svg xmlns="http://www.w3.org/2000/svg" width="40" height="40" viewBox="0 0 40 40"><defs><style>.a{fill:#fff;opacity:0;}.b{fill:none;stroke:#f40000;stroke-linejoin:round;}</style></defs><g transform="translate(-34 -327)"><path class="a" d="M0,0H40V40H0Z" transform="translate(34 327)"/><g transform="translate(38 330.333)"><path class="b" d="M421.823,305.825c-1.116-1.117-4.974.914-6.09,2.031l-17.239,17.238c-1.208,1.208-6.48,8.13-5.275,9.335s8.127-4.066,9.335-5.275l17.238-17.239C420.909,310.8,422.94,306.941,421.823,305.825Z" transform="translate(-388.844 -305.5)"/><path class="b" d="M409.034,314.3,388,309v2.5l10.016,5.515,4.15,4.15" transform="translate(-388 -306.086)"/><path class="b" d="M416.727,320.269l5.3,21.037h-2.5l-5.515-10.016-4.152-4.152" transform="translate(-391.659 -307.972)"/><path class="b" d="M402.142,335.184l.957,7.385-1.952.889-3.191-5.319" transform="translate(-389.667 -310.469)"/><path class="b" d="M396.652,330.324l-7.385-.957-.889,1.952,5.319,3.191" transform="translate(-388.063 -309.495)"/></g></g></svg>