<svg xmlns="http://www.w3.org/2000/svg" width="40" height="40" viewBox="0 0 40 40"><defs><style>.a{fill:#fff;opacity:0;}.b,.c{fill:none;stroke:#f40000;}.b{stroke-miterlimit:10;}.c{stroke-linejoin:round;}</style></defs><g transform="translate(-35 -427)"><path class="a" d="M0,0H40V40H0Z" transform="translate(35 427)"/><g transform="translate(39 430.333)"><path class="b" d="M0,0H25a0,0,0,0,1,0,0V16a4,4,0,0,1-4,4H4a4,4,0,0,1-4-4V0A0,0,0,0,1,0,0Z" transform="translate(3.333 13.334)"/><rect class="b" width="31.666" height="5" rx="1" transform="translate(0 8.334)"/><rect class="b" width="5" height="25" transform="translate(13.333 8.334)"/><path class="b" d="M4196.932,1249.2h6.337a2,2,0,0,0,2-2h0a2,2,0,0,0-3.143-1.637Z" transform="translate(-4181.1 -1240.871)"/><path class="b" d="M4195.265,1249.2h-6.335a2,2,0,0,1-2-2h0a2,2,0,0,1,3.143-1.637Z" transform="translate(-4179.432 -1240.871)"/><path class="c" d="M4195.766,1248.337l-4.874-3.482a2.288,2.288,0,0,1-.959-1.863v-.7a2.291,2.291,0,0,1,2.29-2.29h0a2.289,2.289,0,0,1,2.245,1.841Z" transform="translate(-4179.933 -1240.004)"/><path class="c" d="M4196.932,1248.337l4.875-3.482a2.288,2.288,0,0,0,.958-1.863v-.7a2.29,2.29,0,0,0-2.29-2.29h0a2.29,2.29,0,0,0-2.245,1.841Z" transform="translate(-4181.1 -1240.004)"/></g></g></svg>