<svg xmlns="http://www.w3.org/2000/svg" width="32" height="32" viewBox="0 0 32 32"><defs><style>.a{fill:#fff;opacity:0;}.b{fill:none;stroke:#fff;stroke-miterlimit:10;}</style></defs><g transform="translate(17917 -1756)"><rect class="a" width="32" height="32" transform="translate(-17917 1756)"/><g transform="translate(-18188.592 1566.94)"><g transform="translate(277.896 206.533)"><path class="b" d="M288.665,227.57a10.581,10.581,0,0,1-8.824-8.822" transform="translate(-279.841 -218.748)"/></g><g transform="translate(290.061 206.468)"><path class="b" d="M311.107,218.629a10.57,10.57,0,0,1-8.833,8.887" transform="translate(-302.274 -218.629)"/></g><g transform="translate(290.044 194.363)"><path class="b" d="M302.242,196.307a10.58,10.58,0,0,1,8.844,8.826" transform="translate(-302.242 -196.307)"/></g><g transform="translate(277.896 194.364)"><path class="b" d="M279.841,205.135a10.578,10.578,0,0,1,8.844-8.826" transform="translate(-279.841 -196.309)"/></g><g transform="translate(280.915 206.052)"><path class="b" d="M291.694,224.147a7.538,7.538,0,0,1-6.286-6.286" transform="translate(-285.408 -217.861)"/></g><g transform="translate(289.584 206.006)"><path class="b" d="M307.688,217.776a7.532,7.532,0,0,1-6.294,6.332" transform="translate(-301.394 -217.776)"/></g><g transform="translate(289.569 197.382)"><path class="b" d="M301.367,201.874a7.538,7.538,0,0,1,6.3,6.288" transform="translate(-301.367 -201.874)"/></g><g transform="translate(280.915 197.382)"><path class="b" d="M285.408,208.162a7.538,7.538,0,0,1,6.3-6.288" transform="translate(-285.408 -201.874)"/></g><g transform="translate(284.051 200.52)"><path class="b" d="M295.532,207.661A4.34,4.34,0,1,0,299.871,212a4.34,4.34,0,0,0-4.339-4.339Z" transform="translate(-291.192 -207.661)"/></g><line class="b" x2="8.134" transform="translate(275.591 204.86)"/><line class="b" x2="8.134" transform="translate(293.057 204.86)"/><line class="b" y1="8.134" transform="translate(288.391 209.526)"/><line class="b" y1="8.134" transform="translate(288.391 192.06)"/></g></g></svg>