<svg xmlns="http://www.w3.org/2000/svg" width="60" height="60" viewBox="0 0 60 60"><defs><style>.a{fill:#fff;opacity:0;}.rojo{fill:none;stroke:#f40000;stroke-linecap:round;stroke-linejoin:round;}</style></defs><g transform="translate(-0.486)"><rect class="a" width="60" height="60" transform="translate(0.486)"/><g transform="translate(4.06 12.994)"><g transform="translate(0)"><path class="rojo" d="M223.059,402.556v-7.965a3.179,3.179,0,0,0-3.165-3.161h-.346c-.771,0-1.4.653-3.062,2.391-2.832,2.957-8.1,8.463-13.323,8.463h-9.789a3.938,3.938,0,0,0-3.912,3.921v4.471a3.94,3.94,0,0,0,3.921,3.912h9.78c5.218,0,10.49,5.5,13.323,8.462,1.666,1.742,2.292,2.391,3.063,2.391h.348a3.177,3.177,0,0,0,3.161-3.163v-7.954a6.425,6.425,0,0,0,0-11.77Z" transform="translate(-189.462 -391.43)"/><line class="rojo" y2="11.252" transform="translate(10.116 11.38)"/><line class="rojo" y2="11.252" transform="translate(33.59 11.38)"/></g><g transform="translate(41.905 9.875)"><line class="rojo" x2="9.524" transform="translate(0 7.131)"/><line class="rojo" y1="3.978" x2="6.89"/><line class="rojo" x2="6.89" y2="3.978" transform="translate(0 10.285)"/></g></g></g></svg>