<svg xmlns="http://www.w3.org/2000/svg" width="32" height="32" viewBox="0 0 32 32"><defs><style>.a{fill:#fff151;opacity:0;}.b{fill:none;stroke:#fff;stroke-linejoin:round;}</style></defs><g transform="translate(-760 -287)"><rect class="a" width="32" height="32" transform="translate(760 287)"/><g transform="translate(764.267 291.978)"><circle class="b" cx="6.122" cy="6.122" r="6.122" transform="translate(5.612 9.693)"/><path class="b" d="M140,137v2.551l2.041-1.02" transform="translate(-134.388 -133.939)"/><line class="b" x2="2.041" y2="1.02" transform="translate(3.571 4.591)"/><path class="b" d="M140.061,143.53,138.53,142,137,143.53" transform="translate(-132.919 -136.388)"/><path class="b" d="M152,137v2.551l2.041-1.02" transform="translate(-140.267 -133.939)"/><line class="b" x2="2.041" y2="1.02" transform="translate(9.693 4.591)"/><path class="b" d="M152.061,143.53,150.53,142,149,143.53" transform="translate(-138.797 -136.388)"/><path class="b" d="M164,137v2.551l2.041-1.02" transform="translate(-146.145 -133.939)"/><line class="b" x2="2.041" y2="1.02" transform="translate(15.814 4.591)"/><path class="b" d="M164.061,143.53,162.53,142,161,143.53" transform="translate(-144.675 -136.388)"/><path class="b" d="M134.1,142.733H130.02a1.02,1.02,0,0,1-1.02-1.02V132.02a1.02,1.02,0,0,1,1.02-1.02h21.426a1.02,1.02,0,0,1,1.02,1.02v9.693a1.02,1.02,0,0,1-1.02,1.02h-4.081" transform="translate(-129 -131)"/><path class="b" d="M146,160.061l2.072,2.041,4.05-5.1" transform="translate(-137.328 -143.736)"/></g></g></svg>