<svg xmlns="http://www.w3.org/2000/svg" width="50" height="50" viewBox="0 0 50 50"><defs><style>.a{fill:#5e2bba;}.b{fill:none;stroke:#fff;stroke-miterlimit:10;stroke-width:1.2px;}</style></defs><circle class="a" cx="25" cy="25" r="25" transform="translate(0)"/><g transform="translate(11.059 11.059)"><path class="b" d="M13.767,28.555H4.789A1.8,1.8,0,0,1,3,26.767V11.094A1.793,1.793,0,0,1,4.789,9.306c.983,0,8.437.116,8.51-.089l1.279-3.608a2.419,2.419,0,0,1,2.044-1.534H23.2a2.428,2.428,0,0,1,2.044,1.534l1.277,3.608a34.119,34.119,0,0,0,4.427.089,1.8,1.8,0,0,1,1.789,1.788V26.767a1.8,1.8,0,0,1-1.789,1.788H26.068" transform="translate(-3 -4.074)"/><line class="b" x2="7.006" transform="translate(13.406 4.158)"/><path class="b" d="M17.461,28.1a9.432,9.432,0,1,1,9.433-9.432A9.432,9.432,0,0,1,17.461,28.1Z" transform="translate(-0.552 -1.561)"/><path class="b" d="M16.4,23.792a6.185,6.185,0,1,1,6.185-6.185A6.185,6.185,0,0,1,16.4,23.792Z" transform="translate(0.511 -0.498)"/><path class="b" d="M18.172,15.185a4.2,4.2,0,0,1-4.2,4.2" transform="translate(2.343 1.334)"/></g></svg>