<svg xmlns="http://www.w3.org/2000/svg" width="50" height="50" viewBox="0 0 50 50"><defs><style>.a{fill:#f40000;}.b{fill:#fff;fill-rule:evenodd;}</style></defs><g transform="translate(3974 -1196)"><circle class="a" cx="25" cy="25" r="25" transform="translate(-3974 1196)"/><path class="b" d="M166.653,465.547a10.087,10.087,0,0,0,3.53-.5c.8-.456.569-2.229.349-2.921a8.285,8.285,0,0,1-.5-3.059,51.316,51.316,0,0,1,.64-5.693c.046-.369.138-.743-.067-.825.251-.19.051-4.781-.384-4.96.22,0,.138-.512.092-.866-.082-.65-.656-2.183-1.148-3.843a20.52,20.52,0,0,1-.681-2.695,17.447,17.447,0,0,1-.082-2.178.476.476,0,0,0,.2-.44,6.79,6.79,0,0,0-.312-.912.332.332,0,0,1,.108-.282.427.427,0,0,0,.061-.456c-.061-.189-.292-.246-.43-.276a10.252,10.252,0,0,0-2.746,0c-.133.031-.364.087-.43.276a.427.427,0,0,0,.067.456.332.332,0,0,1,.108.282,6.808,6.808,0,0,0-.313.912.484.484,0,0,0,.195.44,16.509,16.509,0,0,1-.082,2.178,20.523,20.523,0,0,1-.676,2.695c-.492,1.66-1.066,3.192-1.153,3.843-.046.354-.123.866.1.866-.436.179-.635,4.77-.384,4.96-.2.082-.113.456-.067.825a51.3,51.3,0,0,1,.64,5.693,8.281,8.281,0,0,1-.5,3.059c-.22.692-.456,2.464.343,2.921a10.11,10.11,0,0,0,3.53.5" transform="translate(-4115.567 770.453)"/></g></svg>