<svg xmlns="http://www.w3.org/2000/svg" width="50" height="50" viewBox="0 0 50 50"><defs><style>.a,.b,.c{fill:#2296f3;}.b,.c,.d,.e{stroke:#fff;stroke-width:1.2px;}.b,.c,.d{stroke-miterlimit:10;}.c,.e{stroke-linecap:round;}.d,.e{fill:none;}.e{stroke-linejoin:round;}</style></defs><g transform="translate(0)"><circle class="a" cx="25" cy="25" r="25"/><g transform="translate(11.058 8.847)"><path class="b" d="M1.739,0H26.164A1.739,1.739,0,0,1,27.9,1.739V29.411a.827.827,0,0,1-.827.827H.827A.827.827,0,0,1,0,29.411V1.739A1.739,1.739,0,0,1,1.739,0Z" transform="translate(0 2.937)"/><circle class="b" cx="1.666" cy="1.666" r="1.666" transform="translate(3.621 6.022)"/><circle class="b" cx="1.666" cy="1.666" r="1.666" transform="translate(21.014 6.022)"/><circle class="b" cx="1.666" cy="1.666" r="1.666" transform="translate(15.216 6.022)"/><circle class="b" cx="1.666" cy="1.666" r="1.666" transform="translate(9.419 6.022)"/><rect class="c" width="19.092" height="12.997" rx="0.87" transform="translate(4.406 16.312)"/><line class="d" x2="26.435" transform="translate(0.734 12.242)"/><line class="e" x2="2.937" transform="translate(5.874 0)"/><line class="e" x2="2.937" transform="translate(19.092 0)"/></g></g></svg>