<svg xmlns="http://www.w3.org/2000/svg" width="50" height="50" viewBox="0 0 50 50"><defs><style>.a{fill:#82c92e;}.b{fill:none;stroke:#fff;stroke-miterlimit:10;stroke-width:1.2px;}</style></defs><circle class="a" cx="25" cy="25" r="25" transform="translate(0)"/><g transform="translate(11.059 11.059)"><path class="b" d="M-67.329,6.7a3.8,3.8,0,0,1,3.8,3.8,3.8,3.8,0,0,1-3.8,3.8,3.8,3.8,0,0,1-3.8-3.8,3.8,3.8,0,0,1,3.8-3.8Z" transform="translate(75.792 -1.056)"/><path class="b" d="M-66.607,13.325a5.885,5.885,0,0,1,5.885,5.886A5.885,5.885,0,0,1-66.607,25.1a5.884,5.884,0,0,1-5.885-5.885,5.884,5.884,0,0,1,5.885-5.886Z" transform="translate(75.145 2.088)"/><path class="b" d="M-67.657,15.538a2.623,2.623,0,0,1,2.622,2.623,2.623,2.623,0,0,1-2.622,2.623,2.624,2.624,0,0,1-2.623-2.623,2.624,2.624,0,0,1,2.623-2.623Z" transform="translate(76.194 3.138)"/><path class="b" d="M-68.071,8.265a1.489,1.489,0,0,1,1.489,1.489,1.489,1.489,0,0,1-1.489,1.491,1.489,1.489,0,0,1-1.491-1.491,1.489,1.489,0,0,1,1.491-1.489Z" transform="translate(76.535 -0.313)"/><path class="b" d="M-72.053,5h12.436A2.046,2.046,0,0,1-57.38,7.241v22.25a2.049,2.049,0,0,1-2.237,2.237H-72.053a2.047,2.047,0,0,1-2.238-2.237V7.241A2.043,2.043,0,0,1-72.053,5Z" transform="translate(74.291 -1.86)"/><path class="b" d="M-63.8,5.445a3.535,3.535,0,0,1,2.619-1.157,3.54,3.54,0,0,1,3.54,3.54,3.54,3.54,0,0,1-3.54,3.539,3.553,3.553,0,0,1-1.174-.2" transform="translate(79.268 -2.2)"/><path class="b" d="M-63.064,10.622a6.513,6.513,0,0,1,1.255-.122,6.478,6.478,0,0,1,6.479,6.479,6.478,6.478,0,0,1-6.479,6.477,6.4,6.4,0,0,1-1.255-.122" transform="translate(79.618 0.747)"/><path class="b" d="M-63.064,13.224a2.862,2.862,0,0,1,1.255-.288,2.887,2.887,0,0,1,2.887,2.887,2.887,2.887,0,0,1-2.887,2.887,2.862,2.862,0,0,1-1.255-.288" transform="translate(79.618 1.903)"/><path class="b" d="M-62.689,6.352a1.245,1.245,0,0,1,1.007-.51,1.249,1.249,0,0,1,1.249,1.249,1.249,1.249,0,0,1-1.249,1.247,1.249,1.249,0,0,1-.951-.438" transform="translate(79.796 -1.463)"/><path class="b" d="M-67.76,6.016V5.109a2.043,2.043,0,0,1,2.237-2.237h12.437a2.046,2.046,0,0,1,2.237,2.237v22.25A2.05,2.05,0,0,1-53.086,29.6h-7.393" transform="translate(77.39 -2.872)"/></g></svg>