<svg xmlns="http://www.w3.org/2000/svg" width="50" height="50" viewBox="0 0 50 50"><defs><style>.a{fill:#3ba540;}.b{fill:none;stroke:#fff;stroke-linecap:round;stroke-linejoin:round;stroke-width:1.2px;}</style></defs><circle class="a" cx="25" cy="25" r="25" transform="translate(0)"/><g transform="translate(11.059 11.059)"><path class="b" d="M-108.923,19.767c-2.217-1.98-4.886-2.58-4.886-4.2,0-2.388,2.556-2.33,3.911-1.37" transform="translate(113.809 1.68)"/><path class="b" d="M-109.928,12.435H-99.7c.686,0,1.407.552,1.3,1.256-.03.216-.072.53-.119.9-.19,1.481-.4,2.969-.721,4.43-.457,2.092-.52,4.005-3.072,4.052-1.611.029-3.4.029-5.014,0a2.533,2.533,0,0,1-2.7-2.288l-1.055-5.86c-.069-.527-.123-.96-.163-1.239-.1-.706.619-1.256,1.306-1.256Z" transform="translate(115.154 1.08)"/><path class="b" d="M-104.283,14.325V11.493h-6.494a1.381,1.381,0,0,1-1.375-1.376V4.943a1.38,1.38,0,0,1,1.375-1.376h23.292a1.381,1.381,0,0,1,1.375,1.376v26a1.38,1.38,0,0,1-1.375,1.376h-23.292a1.38,1.38,0,0,1-1.375-1.376V29.29a1.379,1.379,0,0,1,1.375-1.375H-95.75V11.493H-104" transform="translate(114.677 -3.567)"/></g></svg>