<svg xmlns="http://www.w3.org/2000/svg" width="50" height="50" viewBox="0 0 50 50"><defs><style>.a{fill:#b7c723;}.b{fill:none;stroke:#fff;stroke-linecap:round;stroke-linejoin:round;stroke-width:1.2px;}</style></defs><circle class="a" cx="25" cy="25" r="25" transform="translate(0)"/><g transform="translate(8.846 6.635)"><path class="b" d="M-11.133,26.85a5.588,5.588,0,0,0,2.079,1.987,2.674,2.674,0,0,0,2.449.072l.145-.07.145-.07a2.9,2.9,0,0,0,1.522-2.009c.808-3.307-2.942-18.335-7.56-18.182-4.807.158-.473,4.125-7.811,3.818-7-.293-3.424-3.663-7.79-3.818-4.669-.166-8.394,14.864-7.581,18.182a2.887,2.887,0,0,0,1.522,2.009l.145.07.145.07a2.645,2.645,0,0,0,2.44-.081,5.824,5.824,0,0,0,2.089-1.977A9.407,9.407,0,0,1-24.7,23a12.371,12.371,0,0,1,4.627-.583A12.68,12.68,0,0,1-15.5,23.1a9.486,9.486,0,0,1,4.371,3.745Z" transform="translate(35.646 0.859)"/><path class="b" d="M-29.426,11.964v6.284m-3.142-3.142h6.284" transform="translate(37.584 2.993)"/><path class="b" d="M-20.437,11.964a.641.641,0,0,1,.64.64.641.641,0,0,1-.64.64.641.641,0,0,1-.64-.64.641.641,0,0,1,.64-.64Zm0,5a.641.641,0,0,1,.64.642.641.641,0,0,1-.64.64.641.641,0,0,1-.64-.64.641.641,0,0,1,.64-.642Zm-2.5-2.5a.641.641,0,0,1,.64.64.641.641,0,0,1-.64.64.641.641,0,0,1-.64-.64.641.641,0,0,1,.64-.64Zm5,0a.641.641,0,0,1,.64.64.641.641,0,0,1-.64.64.641.641,0,0,1-.64-.64.641.641,0,0,1,.64-.64Z" transform="translate(43.244 2.993)"/><path class="b" d="M-26.145,16.04V12c0-3.434,1.033-4.167,3.47-4.162,1.851,0,3.285-.42,3.318-2.6l.036-2.459" transform="translate(41.628 -2.786)"/></g></svg>