<svg xmlns="http://www.w3.org/2000/svg" width="50" height="50" viewBox="0 0 50 50"><defs><style>.a{fill:#ffc108;}.b{fill:none;stroke:#fff;stroke-linecap:round;stroke-linejoin:round;stroke-width:1.2px;}</style></defs><circle class="a" cx="25" cy="25" r="25" transform="translate(0)"/><g transform="translate(8.847 8.218)"><path class="b" d="M21.827,9.965c1.757.231,3.476.59,5.311.671l.686-.686a1.2,1.2,0,0,1,1.454,0h0a1.2,1.2,0,0,1,0,1.454l-.686.686c.121,2.769.875,5.272.875,8.041s-.755,5.272-.875,8.039l.686.686a1.2,1.2,0,0,1,0,1.454h0a1.2,1.2,0,0,1-1.454,0l-.686-.686c-2.767.122-5.272.875-8.039.875s-5.272-.753-8.039-.875l-.686.686a1.2,1.2,0,0,1-1.454,0h0a1.2,1.2,0,0,1,0-1.454l.7-.7C9.584,26.69,9.426,25.3,9.286,23.9" transform="translate(1.44 0.405)"/><path class="b" d="M10.035,23.17C4.916,21.3,4.727,16.915,3.925,12.314l-.9-.419a1.2,1.2,0,0,1-.5-1.366v0a1.2,1.2,0,0,1,1.366-.5l.88.411c2.559-1.061,4.654-2.625,7.255-3.572s5.212-1.1,7.854-1.928l.411-.878a1.2,1.2,0,0,1,1.366-.5h0a1.2,1.2,0,0,1,.5,1.366l-.411.88c1.061,2.559,2.625,4.654,3.572,7.255s1.1,5.212,1.928,7.854l.878.411a1.2,1.2,0,0,1,.5,1.366h0a1.2,1.2,0,0,1-1.366.5l-.88-.411c-2.559,1.061-4.654,2.625-7.255,3.572s-5.212,1.1-7.854,1.928l-.411.878a1.2,1.2,0,0,1-1.366.5h0A1.2,1.2,0,0,1,9,28.3l.419-.9c-1.358-1.581-3.14-4.2-3.026-6.807" transform="translate(-2.467 -3.501)"/><path class="b" d="M14.968,8.679a15.923,15.923,0,0,1,1.014,2.228c1.775,5.929.323,7.057-2.438,8.844" transform="translate(4.507 -0.241)"/><path class="b" d="M19.57,12.654c.574,3.08,1.041,7.766-.181,11.237" transform="translate(8.188 2.262)"/></g></svg>