<svg xmlns="http://www.w3.org/2000/svg" width="32" height="32" viewBox="0 0 32 32">
  <defs>
    <style>
      .cls-1, .cls-4 {
        fill: #f40000;
      }

      .cls-2 {
        fill: #fff;
      }

      .cls-3, .cls-4 {
        stroke: none;
      }
    </style>
  </defs>
  <g id="Grupo_5730" data-name="Grupo 5730" transform="translate(8 6)">
    <g id="Trazado_7601" data-name="Trazado 7601" class="cls-1" transform="translate(-8 -6)">
      <path class="cls-3" d="M 16 31.25 C 11.92658042907715 31.25 8.096960067749023 29.66371917724609 5.216619968414307 26.78338050842285 C 2.336280107498169 23.90303993225098 0.75 20.07341957092285 0.75 16 C 0.75 11.92658042907715 2.336280107498169 8.096960067749023 5.216619968414307 5.216619968414307 C 8.096960067749023 2.336280107498169 11.92658042907715 0.75 16 0.75 C 20.07341957092285 0.75 23.90303993225098 2.336280107498169 26.78338050842285 5.216619968414307 C 29.66371917724609 8.096960067749023 31.25 11.92658042907715 31.25 16 C 31.25 20.07341957092285 29.66371917724609 23.90303993225098 26.78338050842285 26.78338050842285 C 23.90303993225098 29.66371917724609 20.07341957092285 31.25 16 31.25 Z"/>
      <path class="cls-4" d="M 16 1.5 C 12.12690925598145 1.5 8.485639572143555 3.008260726928711 5.746950149536133 5.746950149536133 C 3.008260726928711 8.485639572143555 1.5 12.12690925598145 1.5 16 C 1.5 19.87308883666992 3.008260726928711 23.51436042785645 5.746950149536133 26.25304985046387 C 8.485639572143555 28.99173927307129 12.12690925598145 30.5 16 30.5 C 19.87308883666992 30.5 23.51436042785645 28.99173927307129 26.25304985046387 26.25304985046387 C 28.99173927307129 23.51436042785645 30.5 19.87308883666992 30.5 16 C 30.5 12.12690925598145 28.99173927307129 8.485639572143555 26.25304985046387 5.746950149536133 C 23.51436042785645 3.008260726928711 19.87308883666992 1.5 16 1.5 M 16 0 C 24.8365592956543 0 32 7.163440704345703 32 16 C 32 24.8365592956543 24.8365592956543 32 16 32 C 7.163440704345703 32 0 24.8365592956543 0 16 C 0 7.163440704345703 7.163440704345703 0 16 0 Z"/>
    </g>
    <path id="Trazado_6888" data-name="Trazado 6888" class="cls-2" d="M572.514,996.069h10.768a.448.448,0,0,0,.448-.448V984.854a.45.45,0,0,0-.448-.451H572.514a.448.448,0,0,0-.448.451v10.767A.446.446,0,0,0,572.514,996.069Zm5.649-10.767h4.667v3.516h-4.667Zm0,4.054h4.667v5.815h-4.667Zm-5.2-4.054h4.666v9.869h-4.666Z" transform="translate(-569.666 -984.403)"/>
    <path id="Trazado_6889" data-name="Trazado 6889" class="cls-2" d="M578.141,1029.259c-.879-1.55-2.322-1.515-4-1.481l-.532.011c-1.69.031-2.71.052-2.967.928-.14.477-.239.908-.282,1.108h-1.285c-.421-.327-1.863-1.446-2.584-1.932a1.4,1.4,0,1,0-1.788,2.144c1.559,1.452,3.325,2.767,3.343,2.78a.42.42,0,0,0,.252.083h5.944a.8.8,0,0,0,.1-.011c.012,0,.3-.049.654.379.562.673.823.974.823.974a.42.42,0,0,0,.318.144h0l4.014-.037a.422.422,0,0,0,.371-.616C580.511,1033.7,578.917,1030.624,578.141,1029.259Zm-1.81,4.28c-.128-.149-.354-.414-.685-.812a1.645,1.645,0,0,0-1.265-.686,1.151,1.151,0,0,0-.179.015h-5.761c-.406-.309-1.858-1.425-3.16-2.637-.378-.353-.388-.717-.237-.906.183-.229.566-.2.976.078.807.545,2.633,1.975,2.652,1.989a.422.422,0,0,0,.26.09H574.5a.423.423,0,1,0,0-.845h-3.276c.05-.216.128-.534.227-.871.083-.281,1.052-.3,2.173-.321l.534-.01c1.764-.036,2.64-.01,3.244,1.052.557.983,1.547,2.865,2.053,3.836Z" transform="translate(-564.111 -1014.507)"/>
  </g>
</svg>
