<svg xmlns="http://www.w3.org/2000/svg" width="60" height="60" viewBox="0 0 60 60"><defs><style>.a{fill:#fff;opacity:0;}.b{fill:none;stroke:#707070;stroke-linecap:round;stroke-linejoin:round;}</style></defs><g transform="translate(0.486)"><rect class="a" width="60" height="60" transform="translate(-0.486)"/><g transform="translate(11.218 6.857)"><g transform="translate(0 34.397)"><path class="b" d="M135.045,411c-2.025-2.661-5.35-2.6-9.209-2.542l-1.224.021c-3.893.053-6.243.089-6.838,1.593-.322.819-.55,1.56-.65,1.9h-2.962c-.97-.561-4.293-2.479-5.954-3.317a4.06,4.06,0,0,0-4.575-.072,2.009,2.009,0,0,0-.1,3.41,3.29,3.29,0,0,0,.552.343c3.593,2.493,7.661,4.75,7.7,4.773a1.214,1.214,0,0,0,.581.142h13.7c.075,0,.153-.01.228-.019a2.06,2.06,0,0,1,1.507.65c1.294,1.157,1.9,1.673,1.9,1.673a1.137,1.137,0,0,0,.732.247h.01l9.249-.063c.537,0,.967-.333.962-.734a.575.575,0,0,0-.11-.322C140.505,418.629,136.832,413.348,135.045,411Z" transform="translate(-102.637 -407.915)"/><line class="b" x2="8.318" transform="translate(14.339 4.087)"/></g><g transform="translate(4.458)"><rect class="b" width="29.097" height="29.097"/><line class="b" y2="29.037" transform="translate(14.548 0.059)"/><line class="b" x2="13.69" transform="translate(15.407 11.088)"/></g></g></g></svg>