<svg xmlns="http://www.w3.org/2000/svg" width="45" height="45" viewBox="0 0 45 45"><defs><style>.a{fill:#fff;opacity:0;}.b,.c{fill:none;stroke:#f40000;stroke-miterlimit:10;stroke-width:2px;}.b{stroke-linecap:round;}</style></defs><g transform="translate(15244 2030)"><rect class="a" width="45" height="45" transform="translate(-15244 -2030)"/><g transform="translate(-15236 -2023.7)"><g transform="translate(14.572 6)"><line class="b" y1="10.597" transform="translate(2.649)"/><line class="b" x1="2.649" y2="2.649"/></g><path class="c" d="M3339.71,2074.4H3326a3.429,3.429,0,0,1,3.429-3.428h6.857a3.429,3.429,0,0,1,3.428,3.428Z" transform="translate(-3315.71 -2038.399)"/><path class="c" d="M3318.282,2046.97h0a4.286,4.286,0,0,1-4.286-4.286v-6a1.715,1.715,0,0,1,1.714-1.714h2.571Z" transform="translate(-3313.996 -2033.256)"/><path class="c" d="M3349,2046.97h0a4.285,4.285,0,0,0,4.286-4.286v-6a1.714,1.714,0,0,0-1.714-1.714H3349Z" transform="translate(-3318.996 -2033.256)"/><rect class="c" width="3.429" height="6.857" transform="translate(15.429 25.715)"/><path class="c" d="M3343,2032.97H3320.71a1.715,1.715,0,0,0-1.714,1.714v11.144a12.857,12.857,0,0,0,12.857,12.856h0a12.856,12.856,0,0,0,12.857-12.856v-11.144A1.714,1.714,0,0,0,3343,2032.97Z" transform="translate(-3314.71 -2032.97)"/></g></g></svg>