<svg xmlns="http://www.w3.org/2000/svg" width="70" height="70" viewBox="0 0 70 70"><defs><style>.a{fill:#fff;opacity:0;}.b{fill:none;stroke:#f40000;stroke-linecap:round;stroke-linejoin:round;stroke-width:1.5px;}</style></defs><g transform="translate(6822 2162)"><rect class="a" width="70" height="70" transform="translate(-6822 -2162)"/><g transform="translate(-6812.667 -2151.889)"><g transform="translate(0 0)"><path class="b" d="M350.345,438.194a3.257,3.257,0,0,1-3.2-3.8l2.4-13.968-10.159-9.9a3.248,3.248,0,0,1,1.8-5.539l14.023-2.039,6.28-12.715a3.232,3.232,0,0,1,2.915-1.812h0a3.228,3.228,0,0,1,2.911,1.812l6.274,12.707,14.033,2.047a3.248,3.248,0,0,1,1.8,5.539l-10.151,9.892,2.393,13.98a3.248,3.248,0,0,1-4.713,3.425l-12.544-6.594-12.556,6.594A3.23,3.23,0,0,1,350.345,438.194Z" transform="translate(-338.406 -388.416)"/></g></g></g></svg>