<svg xmlns="http://www.w3.org/2000/svg" width="317.24" height="58.688" viewBox="0 0 317.24 58.688">
  <g id="Grupo_6726" data-name="Grupo 6726" transform="translate(-263.38 -181.282)">
    <g id="Grupo_6721" data-name="Grupo 6721" transform="translate(486.054 203.945)">
      <rect id="Rectángulo_2186" data-name="Rectángulo 2186" width="0.455" height="27.915" transform="translate(0 0)" fill="#f40000"/>
    </g>
    <g id="Grupo_6724" data-name="Grupo 6724" transform="translate(498.334 201.045)">
      <path id="Trazado_7448" data-name="Trazado 7448" d="M1330.876,294.07a10.752,10.752,0,0,0-6.54-1.927,4,4,0,0,0-3.19,1.741c-.995-1.746-2.957-2.819-5.992-2.8-4.9.053-9.769,2.327-13.62,2.322-3.7,0-6.389-2.344-6.294-6.5.163-7.277,6.279-13.83,10.848-16.778,2.626-1.694,4.824-2.195,6.262-2.032a2.114,2.114,0,0,1,1.513,3.134c-1.172,2.633-2.786,2.41-2.726,1.153a2.087,2.087,0,0,1,.981-1.611,1.959,1.959,0,0,1,.951-.235c.231-.2.41-1.636-1.472-1.164s-4.146,2.33-6.306,4.725-5.525,6.935-6.359,11.7c-.389,2.213-.134,6.239,5.066,6.2,4.409-.035,10.923-2.952,16.9-2.892a11.338,11.338,0,0,1,5.912,1.634A16.359,16.359,0,0,1,1330.876,294.07Z" transform="translate(-1295.238 -268.076)" fill="#f40000"/>
      <path id="Trazado_7449" data-name="Trazado 7449" d="M1358.062,305.639c-1.11.615-.71-.48-.408-.971.385-.621,5.292-8.852,5.292-8.852l-2.6,0-.3.478a1.735,1.735,0,0,0-1.429-.766c-2.6.168-5.7,4.34-7.069,6.18s-4.3,5.351-5.849,4.722c-1.686-.685-.008-3.818,1.106-5.658,1.208-2,3.35-3.984,4.2-4,1.041-.018.631.931.631.931a1.571,1.571,0,0,0-1.344.616c-.4.5-.729,1.242-.352,1.643.613.649,1.411-.008,1.888-.741,1.49-2.288.4-3.495-.762-3.673-2.487-.378-4.78,2.834-6.523,4.026-1.208.829-1.712.763-1.712.763s2.1-4.136-.433-4.788c-2.5-.646-6.671,3.645-8.43,7.136-1.083,2.156-1.562,4.864.362,5.573s5.2-2.825,5.968-3.852,2.03-3.084,2.03-3.084.386-.074.638-.133.663-.176.663-.176-.476.851-.905,1.721c-.506,1.032-1.89,4.47.769,5.5,2.54.989,6.162-3.116,6.352-3.194,0,0-1.08,2.8.592,3.232,1.835.475,3.848-1.89,3.848-1.89s-.424,1.777,1.007,1.944c2.561.3,7.1-6.287,7.1-6.287h-.9S1359.172,305.024,1358.062,305.639Zm-16.708-4.34a24.015,24.015,0,0,1-1.56,2.351c-.751.964-2.136,2.419-2.96,2.112-1.287-.481.089-3.286,1.019-4.656s1.065-1.546,1.091-1.583.052-.067.075-.025a2.827,2.827,0,0,0,.956,1.066,5.636,5.636,0,0,0,1.337.618C1341.357,301.2,1341.389,301.218,1341.354,301.3Zm1.081-2.14a11.427,11.427,0,0,1-.5,1.123.217.217,0,0,1-.25.1c-.2-.01-1.779-.374-1.767-1.646.01-1.24,1.748-2.452,2.429-1.933C1342.979,297.29,1342.675,298.527,1342.434,299.159Zm12.253,5.693a2.962,2.962,0,0,1-1.265,1.029.688.688,0,0,1-.5-.052c-.473-.289-.11-1.356.713-2.868a31.484,31.484,0,0,1,3.112-4.39c1.335-1.671,2-1.806,2.4-1.788a.429.429,0,0,1,.387.373s-2.9,5.073-3.954,6.521C1355.241,304.151,1354.947,304.552,1354.687,304.852Z" transform="translate(-1324.415 -289.242)" fill="#f40000"/>
      <path id="Trazado_7450" data-name="Trazado 7450" d="M1470.371,297l-2.469,0-1.4,2.271,2.468,0Z" transform="translate(-1427.509 -290.413)" fill="#f40000"/>
      <g id="Grupo_6722" data-name="Grupo 6722" transform="translate(74.109 23.155)">
        <path id="Trazado_7451" data-name="Trazado 7451" d="M1623.406,370.232a1.54,1.54,0,0,0-1.121-.465,1.508,1.508,0,0,0-1.111.465,1.593,1.593,0,0,0-.009,2.249,1.572,1.572,0,0,0,2.241,0,1.539,1.539,0,0,0,.459-1.126A1.524,1.524,0,0,0,1623.406,370.232Zm-.157,2.108a1.356,1.356,0,0,1-.966.4,1.319,1.319,0,0,1-.959-.4,1.367,1.367,0,0,1-.4-.986,1.358,1.358,0,1,1,2.716,0A1.364,1.364,0,0,1,1623.249,372.34Z" transform="translate(-1620.705 -369.767)" fill="#f40000"/>
        <path id="Trazado_7452" data-name="Trazado 7452" d="M1626.171,374.517c0-.04,0-.082,0-.125v-.124a.537.537,0,0,0-.093-.275.4.4,0,0,0-.3-.164.705.705,0,0,0,.25-.1.367.367,0,0,0,.171-.341.427.427,0,0,0-.269-.44,1.29,1.29,0,0,0-.475-.062l-.6,0,0,1.747h.3l0-.69.246,0a.726.726,0,0,1,.335.057c.113.061.164.2.166.4l0,.14,0,.06c0,.01,0,.01.009.016v.02h.287l-.007-.025C1626.176,374.6,1626.176,374.572,1626.171,374.517Zm-.453-.821a1.056,1.056,0,0,1-.288.035h-.278l0-.637h.265a.771.771,0,0,1,.368.068.273.273,0,0,1,.115.258A.292.292,0,0,1,1625.719,373.7Z" transform="translate(-1623.905 -372.177)" fill="#f40000"/>
      </g>
      <g id="Grupo_6723" data-name="Grupo 6723" transform="translate(49.537 0.084)">
        <path id="Trazado_7453" data-name="Trazado 7453" d="M1613.962,270.909a11.191,11.191,0,0,1-6.785,2.009c-.615.641-1.274,1.381-1.936,2.188,4.213.842,7.9-1.781,9.867-4.018a13.266,13.266,0,0,0,1.832-2.642A16.446,16.446,0,0,1,1613.962,270.909Z" transform="translate(-1584.191 -268.446)" fill="#f40000"/>
        <path id="Trazado_7454" data-name="Trazado 7454" d="M1540.557,282.281l-2.6,0-.422.657a1.834,1.834,0,0,0-1.426-.948c-1.537.024-3.075,1.2-4.867,3.25-1.31,1.5-3.487,4.839-3.487,4.839s-1.669,2.583-2.512,2.379c-1.436-.345,1.213-5.7,1.213-5.7a30.287,30.287,0,0,0,3.192-2.384c1.135-.959,2.442-2.279,3.642-3.5a41.313,41.313,0,0,0,3.6-4.277,9.55,9.55,0,0,1-.96.1,42.217,42.217,0,0,1-3.263,3.785,45.367,45.367,0,0,1-3.836,3.6,13.029,13.029,0,0,1-1.557,1.113,57.276,57.276,0,0,1,4.834-7.864c3.019-4.129,7.245-7.961,6.912-6.14a8.2,8.2,0,0,1-.907,2.161,9.874,9.874,0,0,0,1-.264c.728-1.509.978-2.752.435-3.111-2.21-1.469-7.845,4.592-10.667,8.113a54.463,54.463,0,0,0-5.385,8.9,5.164,5.164,0,0,1-.928.278,1.039,1.039,0,0,1-.49.025.038.038,0,0,1-.028-.027s2.487-4.665-.052-5.289c-2.452-.6-6.7,3.959-8.219,7.134-1.039,2.178-1.626,4.919.149,5.574,1.925.709,5.2-2.823,5.968-3.85a31.582,31.582,0,0,0,1.732-2.736s.468-.023.725-.063c.492-.072.721-.132.721-.132s-.32.838-.667,1.9c-.642,1.981-1.224,4.819,1.086,4.954,1.472.087,3.632-2.586,3.632-2.586s-.584,2.378,1.327,2.594c1.41.155,3.466-2.035,3.466-2.035s-.45,1.89.981,2.059c1.226.143,2.961-1.3,4.388-2.887a30.638,30.638,0,0,0,2.754-3.632h-.905s-2.007,3.055-3.412,3.873c-1.155.671-.759-.406-.407-.97C1535.706,290.555,1540.557,282.281,1540.557,282.281Zm-19.792,5.736a17.45,17.45,0,0,1-1.382,2.114c-.75.966-2.124,2.416-2.948,2.106-1.287-.479.134-3.3,1.063-4.675s1.035-1.462,1.06-1.5.052-.068.076-.025a3.964,3.964,0,0,0,.9,1.094,5.287,5.287,0,0,0,1.194.767C1520.769,287.917,1520.8,287.936,1520.765,288.017Zm.582-1.015c-.081.137-.14.142-.309.1a2.141,2.141,0,0,1-1.516-1.928c.01-1.239,1.747-2.451,2.427-1.933.635.485.33,1.723.089,2.353A11.186,11.186,0,0,1,1521.347,287Zm11.794,3.08c-.343.472-.63.9-.89,1.2-.553.643-.912.942-1.234,1.019a.71.71,0,0,1-.5-.052c-.471-.289-.138-1.414.685-2.926a21.679,21.679,0,0,1,3.053-4.357c1.435-1.6,1.982-1.673,2.385-1.655a.422.422,0,0,1,.382.372.766.766,0,0,1-.077.176C1536.475,284.686,1534.087,288.781,1533.141,290.082Z" transform="translate(-1512.793 -269.452)" fill="#f40000"/>
      </g>
      <path id="Trazado_7455" data-name="Trazado 7455" d="M1613.962,270.909a11.191,11.191,0,0,1-6.785,2.009c-.615.641-1.274,1.381-1.936,2.188,4.213.842,7.9-1.781,9.867-4.018a13.266,13.266,0,0,0,1.832-2.642A16.446,16.446,0,0,1,1613.962,270.909Z" transform="translate(-1534.654 -268.362)" fill="#f40000"/>
      <path id="Trazado_7456" data-name="Trazado 7456" d="M1485.137,268.753a9.211,9.211,0,0,0-4.1.681s-.7-.961-2.859-.651-8.815,3.1-14.486,12.221c-5.127,8.244-2.72,12.974.958,12.924,3.987-.054,7.786-4.514,9.074-8.194s-.23-4.678-1.4-4.582a6.67,6.67,0,0,0-4.828,3.814,10.518,10.518,0,0,0-1.255,4.115,12.993,12.993,0,0,1,1.664-1.482,7.438,7.438,0,0,1,1.76-1.027,9.092,9.092,0,0,1,.652-1.911,3.783,3.783,0,0,1,2.059-2.162c1.8-.452.933,2.852-.391,5.005-.709,1.157-3.232,4.483-5.4,4.48s-2.584-2.109-2.125-4.075,1.093-4.467,4.264-9.006a28.718,28.718,0,0,1,8.582-8.357c2.036-1.16,2.866-.649,2.866-.649a17.77,17.77,0,0,0-4.083,3.545c-1.416,1.852-2.26,3.937-1.607,4.96.625.974,2.825.995,5.255-2.527,2.4-3.475,1.8-5.545,1.8-5.545a3.561,3.561,0,0,1,.481-.122,5.645,5.645,0,0,1,3.551.906c1.516.785,2.97,2.043,4.961,3.072.6-.661,1.27-1.363,1.973-2.049C1489.813,270.817,1487.775,268.937,1485.137,268.753Zm-4.975,4.743a9.9,9.9,0,0,1-2.631,3.668c-1.246,1.124-1.931,1.087-2.225.858-.773-.593.265-2.825,2.068-4.82a10.248,10.248,0,0,1,3.338-2.6A5.038,5.038,0,0,1,1480.162,273.5Z" transform="translate(-1423.063 -268.575)" fill="#f40000"/>
    </g>
    <path id="Trazado_7457" data-name="Trazado 7457" d="M301.569,284.374l-1.176,6.536a1.831,1.831,0,0,1-3.448.478l-4.65-9.537a1.831,1.831,0,0,0-1.646-1.029H280.038a1.831,1.831,0,0,1-1.082-3.309l5.366-3.927a1.831,1.831,0,0,0,.646-2.084l-.309-.881a1.831,1.831,0,0,0-2.809-.871l-17.717,12.966a1.831,1.831,0,0,0,1.082,3.309l22.183,0a1.831,1.831,0,0,1,1.646,1.029l9.722,19.939a1.831,1.831,0,0,0,3.448-.478l3.886-21.6a1.831,1.831,0,0,0-2.016-2.143l-.927.109A1.831,1.831,0,0,0,301.569,284.374Z" transform="translate(0 -68.051)" fill="#404041" fill-rule="evenodd"/>
    <path id="Trazado_7458" data-name="Trazado 7458" d="M409.224,202.335l3.4-18.914a1.812,1.812,0,0,0-2.853-1.783l-15.509,11.35a1.812,1.812,0,0,0,.11,3l.851.532h0a1.811,1.811,0,0,0,1.358.23c.572-.68,2.28-1.991,3.988-3.5a27.174,27.174,0,0,0,2.66-2.556,22.724,22.724,0,0,0,1.628-2.4.641.641,0,0,1,.09-.638,8.981,8.981,0,0,1,.994-.8.448.448,0,0,0,.074-.4.573.573,0,0,1,.251-.557c.2-.169.506-.069.68-.01a13.839,13.839,0,0,1,3.1,1.935c.128.131.351.359.289.616a.575.575,0,0,1-.39.47.447.447,0,0,0-.325.241,9.055,9.055,0,0,1-.288,1.246.641.641,0,0,1-.534.361,22.745,22.745,0,0,0-1.442,2.515,27.214,27.214,0,0,0-1.132,3.511c-.608,2.2-1.038,4.307-1.4,5.119a1.811,1.811,0,0,0,.8,1.12l.851.532A1.812,1.812,0,0,0,409.224,202.335Z" transform="translate(-100.509 0)" fill="#f40000" fill-rule="evenodd"/>
    <path id="Trazado_7459" data-name="Trazado 7459" d="M518.064,257.283V226.141a2.605,2.605,0,0,1,2.626-2.68,2.65,2.65,0,0,1,2.68,2.68v31.141a.8.8,0,0,0,.766.82,2.653,2.653,0,1,1,0,5.306A6.1,6.1,0,0,1,518.064,257.283Z" transform="translate(-196.692 -32.575)" fill="#404041"/>
    <path id="Trazado_7460" data-name="Trazado 7460" d="M577.652,302.978V281.1a2.721,2.721,0,0,1,2.735-2.79,2.8,2.8,0,0,1,2.79,2.79v21.879a2.8,2.8,0,0,1-2.79,2.79A2.721,2.721,0,0,1,577.652,302.978Z" transform="translate(-242.712 -74.934)" fill="#404041"/>
    <path id="Trazado_7461" data-name="Trazado 7461" d="M646.249,233.481v21.934a13.757,13.757,0,1,1-5.525-10.994V233.481a2.762,2.762,0,0,1,5.525,0Zm-5.525,21.934a8.178,8.178,0,1,0-8.2,8.15A8.194,8.194,0,0,0,640.725,255.415Z" transform="translate(-274.568 -38.201)" fill="#404041"/>
    <path id="Trazado_7462" data-name="Trazado 7462" d="M780.757,292.574a2.126,2.126,0,0,1-2.3,2.188H759.753a7.932,7.932,0,0,0,13.346,3.446,2.711,2.711,0,0,1,3.72,0,2.558,2.558,0,0,1,0,3.829c-5.251,5.251-14.5,6.017-19.855-1.149-7.166-9.572.109-22.1,10.5-22.1A13.382,13.382,0,0,1,780.757,292.574Zm-20.895-3.118h15.152a8.033,8.033,0,0,0-15.152,0Z" transform="translate(-378.977 -75.305)" fill="#404041"/>
    <path id="Trazado_7463" data-name="Trazado 7463" d="M903.866,281.47a2.8,2.8,0,0,1-2.79,2.79,8.229,8.229,0,0,0-8.2,8.2V303.35a2.735,2.735,0,1,1-5.47,0V281.47a2.735,2.735,0,0,1,5.47,0v.055a13.816,13.816,0,0,1,8.2-2.735A2.781,2.781,0,0,1,903.866,281.47Z" transform="translate(-481.932 -75.305)" fill="#404041"/>
    <path id="Trazado_7464" data-name="Trazado 7464" d="M985.885,292.574a2.127,2.127,0,0,1-2.3,2.188H964.881a7.932,7.932,0,0,0,13.346,3.446,2.711,2.711,0,0,1,3.72,0,2.558,2.558,0,0,1,0,3.829c-5.251,5.251-14.5,6.017-19.855-1.149-7.166-9.572.109-22.1,10.5-22.1A13.383,13.383,0,0,1,985.885,292.574Zm-20.9-3.118h15.152a8.034,8.034,0,0,0-15.152,0Z" transform="translate(-537.398 -75.305)" fill="#404041"/>
    <path id="Trazado_7465" data-name="Trazado 7465" d="M1090.589,303.459a2.831,2.831,0,0,1-.547-3.884,2.772,2.772,0,0,1,3.829-.547,8.1,8.1,0,0,0,4.868,1.586c1.914,0,4.157-.656,4.868-1.86a.641.641,0,0,0,0-.875c-.93-.93-11.651-5.032-13.62-6.947a6.187,6.187,0,0,1-.875-7.6c1.914-3.172,6.017-4.54,9.627-4.54a13.723,13.723,0,0,1,8.15,2.68,2.722,2.722,0,0,1,.547,3.829,2.676,2.676,0,0,1-3.829.547,8.222,8.222,0,0,0-4.868-1.586c-1.915,0-4.157.657-4.868,1.8-.547,1.039,2.407,2.571,5.743,4.157,3.282,1.532,6.947,3.118,7.877,3.993a5.869,5.869,0,0,1,.875,7.384c-1.914,3.173-6.017,4.54-9.627,4.54A13.724,13.724,0,0,1,1090.589,303.459Z" transform="translate(-637.007 -75.305)" fill="#404041"/>
    <g id="Grupo_6725" data-name="Grupo 6725" transform="translate(336.187 190.746)">
      <path id="Trazado_7466" data-name="Trazado 7466" d="M583.407,228.747l2.37-4.538a2.43,2.43,0,0,1,3.277-1.109,2.529,2.529,0,0,1,1.059,3.328l-2.319,4.538a2.457,2.457,0,0,1-3.328,1.109A2.414,2.414,0,0,1,583.407,228.747Z" transform="translate(-583.131 -222.844)" fill="#404041"/>
    </g>
  </g>
</svg>
