<svg xmlns="http://www.w3.org/2000/svg" width="70" height="70" viewBox="0 0 70 70"><defs><style>.a{fill:#fff;opacity:0;}.b{fill:none;stroke:#fff;stroke-linecap:round;stroke-linejoin:round;stroke-width:1.5px;}</style></defs><g transform="translate(-285.6 -383.989)"><rect class="a" width="70" height="70" transform="translate(285.6 383.989)"/><g transform="translate(295.6 390.337)"><g transform="translate(29.799 32.844)"><path class="b" d="M316.621,428.047a2.376,2.376,0,0,1-.518-.058,2.054,2.054,0,0,1-1.294-.922l-3.456-6.1-3.3,3.2a1.545,1.545,0,0,1-1.674.41,1.5,1.5,0,0,1-.88-1.416V404.561a.975.975,0,0,1,1.55-.788l15.016,10.944a1.926,1.926,0,0,1,.812,2.132,1.976,1.976,0,0,1-1.95,1.39h-3.444l3.064,5.31a2.285,2.285,0,0,1-.894,3.036l-1.7,1.07A2.516,2.516,0,0,1,316.621,428.047Z" transform="translate(-305.5 -403.585)"/></g><path class="b" d="M313.606,437.081h0l-.106-.006a25.007,25.007,0,1,1,25.056-15.022" transform="translate(-290.6 -387.163)"/><g transform="translate(7.497 7.485)"><path class="b" d="M310.455,425.852h0l-.072,0a17.5,17.5,0,1,1,17.54-10.518" transform="translate(-294.349 -390.906)"/></g><g transform="translate(15.008 14.984)"><path class="b" d="M307.3,414.605h0l-.042,0a9.992,9.992,0,1,1,10.012-6" transform="translate(-298.104 -394.655)"/></g></g></g></svg>