<svg _ngcontent-vct-c14="" class="ng-tns-c14-20" height="40" viewBox="0 0 40 40" width="40" xmlns="http://www.w3.org/2000/svg"><g _ngcontent-vct-c14="" class="ng-tns-c14-20" data-name="Grupo 7696" id="Grupo_7696" transform="translate(-800 -272)"><g _ngcontent-vct-c14="" class="ng-tns-c14-20" data-name="Elipse 106" fill="#f40000" id="Elipse_106" stroke="#f40000" stroke-width="1.5" transform="translate(800 272)"><circle _ngcontent-vct-c14="" class="ng-tns-c14-20" cx="20" cy="20" r="20" stroke="none"></circle><circle _ngcontent-vct-c14="" class="ng-tns-c14-20" cx="20" cy="20" fill="none" r="19.25"></circle></g><g _ngcontent-vct-c14="" class="ng-tns-c14-20" id="ic_imperdonables_red" transform="translate(802.429 274)"><rect _ngcontent-vct-c14="" class="ng-tns-c14-20" data-name="Rectángulo 2168" fill="#fff" height="36" id="Rectángulo_2168" opacity="0" transform="translate(-0.429)" width="36"></rect><g _ngcontent-vct-c14="" class="ng-tns-c14-20" data-name="Grupo 7620" id="Grupo_7620" transform="translate(12.989 2.571)"><path _ngcontent-vct-c14="" class="ng-tns-c14-20" d="M72.557,399c-.011-.065-.016-.13-.027-.192a29.767,29.767,0,0,0-7.936.983l-.351.083m-.034,1.25a26.521,26.521,0,0,1,8.426.785" data-name="Trazado 6887" fill="none" id="Trazado_6887" stroke="#fff" stroke-linecap="round" stroke-linejoin="round" stroke-width="1" transform="translate(-64.006 -385.994)"></path><path _ngcontent-vct-c14="" class="ng-tns-c14-20" d="M72.832,403.373a14.07,14.07,0,0,1-.393,2.651,10.935,10.935,0,0,0-.186,6.237c.434,1.094,1.3,3.728.04,4.342v0h0a8.838,8.838,0,0,1-3.753.584H68.42a8.854,8.854,0,0,1-3.753-.584c-1.259-.609-.395-3.242.035-4.346a10.908,10.908,0,0,0-.185-6.237,14.623,14.623,0,0,1-.427-3.465l.035-1.3a15.3,15.3,0,0,1,1.033-4.774c.14-.339.274-.633.405-.908a14.222,14.222,0,0,0,1.159-3.429c.092-.414.534-2.507.188-3a.4.4,0,0,0-.093-.094.482.482,0,0,1-.211-.361,1.331,1.331,0,0,1,.438-.886.4.4,0,0,0-.013-.551.51.51,0,0,1-.158-.473c.046-.38.245-.441.856-.441h1.507c.606,0,.8.062.851.442a.51.51,0,0,1-.159.473.4.4,0,0,0-.013.551,1.344,1.344,0,0,1,.439.885.513.513,0,0,1-.233.379.388.388,0,0,0-.095.1c-.331.49.152,2.723.211,2.978a14.151,14.151,0,0,0,1.158,3.422c.133.284.267.572.409.914a14.662,14.662,0,0,1,.947,3.862Z" data-name="Trazado 6887" fill="none" id="Trazado_6887-2" stroke="#fff" stroke-linecap="round" stroke-linejoin="round" stroke-width="1" transform="translate(-64.011 -386.35)"></path></g></g></g></svg>