<svg xmlns="http://www.w3.org/2000/svg" width="35" height="35" viewBox="0 0 35 35"><defs><style>.a{fill:#fff;opacity:0;}.b{fill:none;stroke:#fff;stroke-linecap:round;stroke-linejoin:round;stroke-width:1.2px;}</style></defs><g transform="translate(6351 364)"><rect class="a" width="35" height="35" transform="translate(-6351 -364)"/><g transform="translate(-6344.875 -358.5)"><path class="b" d="M171.68,546.828a.076.076,0,0,1-.022-.054v-6.447a7.455,7.455,0,0,0-1.524-4.541,7.612,7.612,0,0,0-3.856-2.678.079.079,0,0,1-.058-.075v-.417a2.108,2.108,0,0,0-.683-1.551,2.1,2.1,0,0,0-2.842,0,2.111,2.111,0,0,0-.682,1.551v.417a.079.079,0,0,1-.058.075,7.608,7.608,0,0,0-3.856,2.678,7.455,7.455,0,0,0-1.524,4.541v6.447a.073.073,0,0,1-.023.054L154,549.375a.851.851,0,0,0-.249.6v1.258a.854.854,0,0,0,.852.853h6.219a3.312,3.312,0,0,0,6.579,0h6.218a.854.854,0,0,0,.853-.853v-1.258a.848.848,0,0,0-.25-.6Z" transform="translate(-153.084 -530.514)"/><path class="b" d="M154.807,540.127" transform="translate(-153.062 -530.314)"/><path class="b" d="M159.355,532.247" transform="translate(-152.968 -530.478)"/><path class="b" d="M153.1,540.127" transform="translate(-153.098 -530.314)"/><path class="b" d="M158.5,530.767" transform="translate(-152.985 -530.509)"/><path class="b" d="M168.454,532.247" transform="translate(-152.778 -530.478)"/><path class="b" d="M173,540.127" transform="translate(-152.683 -530.314)"/><path class="b" d="M169.309,530.767" transform="translate(-152.76 -530.509)"/><path class="b" d="M174.711,540.127" transform="translate(-152.648 -530.314)"/></g></g></svg>