<svg xmlns="http://www.w3.org/2000/svg" width="92.01" height="92.01" viewBox="0 0 92.01 92.01">
  <g id="Grupo_8017" data-name="Grupo 8017" transform="translate(-636.994 -158)">
    <g id="Trazado_7166" data-name="Trazado 7166" transform="translate(636.995 158)" fill="#fff">
      <path d="M 46.005126953125 91.51025390625 C 39.86175155639648 91.51025390625 33.90240859985352 90.30717468261719 28.29263305664063 87.9344482421875 C 22.87397384643555 85.64253997802734 18.00742149353027 82.36138916015625 13.82813835144043 78.18211364746094 C 9.648868560791016 74.00283050537109 6.367715358734131 69.13627624511719 4.075809478759766 63.71762084960938 C 1.70307993888855 58.10784530639648 0.4999975562095642 52.14850234985352 0.4999975562095642 46.005126953125 C 0.4999975562095642 39.86175155639648 1.70307993888855 33.90240859985352 4.075809478759766 28.29263305664063 C 6.367715358734131 22.87397384643555 9.648868560791016 18.00742149353027 13.82813835144043 13.82813835144043 C 18.00742149353027 9.648868560791016 22.87397384643555 6.367715358734131 28.29263305664063 4.075809478759766 C 33.90240859985352 1.70307993888855 39.86175155639648 0.4999975562095642 46.005126953125 0.4999975562095642 C 52.14850234985352 0.4999975562095642 58.10784530639648 1.70307993888855 63.71762084960938 4.075809478759766 C 69.13627624511719 6.367715358734131 74.00283050537109 9.648868560791016 78.18211364746094 13.82813835144043 C 82.36138916015625 18.00742149353027 85.64253997802734 22.87397384643555 87.9344482421875 28.29263305664063 C 90.30717468261719 33.90240859985352 91.51025390625 39.86175155639648 91.51025390625 46.005126953125 C 91.51025390625 52.14850234985352 90.30717468261719 58.10784530639648 87.9344482421875 63.71762084960938 C 85.64253997802734 69.13627624511719 82.36138916015625 74.00283050537109 78.18211364746094 78.18211364746094 C 74.00283050537109 82.36138916015625 69.13627624511719 85.64253997802734 63.71762084960938 87.9344482421875 C 58.10784530639648 90.30717468261719 52.14850234985352 91.51025390625 46.005126953125 91.51025390625 Z" stroke="none"/>
      <path d="M 46.005126953125 1 C 39.92903900146484 1 34.03522872924805 2.189788818359375 28.4874153137207 4.53631591796875 C 23.12834930419922 6.803016662597656 18.31521606445313 10.04818725585938 14.18170166015625 14.18170166015625 C 10.04818725585938 18.31521606445313 6.803016662597656 23.12834930419922 4.53631591796875 28.4874153137207 C 2.189788818359375 34.03522872924805 1 39.92903900146484 1 46.005126953125 C 1 52.08121490478516 2.189788818359375 57.97502517700195 4.53631591796875 63.5228385925293 C 6.803016662597656 68.88190460205078 10.04818725585938 73.69503784179688 14.18170166015625 77.82855224609375 C 18.31521606445313 81.96206665039063 23.12834930419922 85.20723724365234 28.4874153137207 87.47393798828125 C 34.03522872924805 89.82046508789063 39.92903900146484 91.01025390625 46.005126953125 91.01025390625 C 52.08121490478516 91.01025390625 57.97502517700195 89.82046508789063 63.5228385925293 87.47393798828125 C 68.88190460205078 85.20723724365234 73.69503784179688 81.96206665039063 77.82855224609375 77.82855224609375 C 81.96206665039063 73.69503784179688 85.20723724365234 68.88190460205078 87.47393798828125 63.5228385925293 C 89.82046508789063 57.97502517700195 91.01025390625 52.08121490478516 91.01025390625 46.005126953125 C 91.01025390625 39.92903900146484 89.82046508789063 34.03522872924805 87.47393798828125 28.4874153137207 C 85.20723724365234 23.12834930419922 81.96206665039063 18.31521606445313 77.82855224609375 14.18170166015625 C 73.69503784179688 10.04818725585938 68.88190460205078 6.803016662597656 63.5228385925293 4.53631591796875 C 57.97502517700195 2.189788818359375 52.08121490478516 1 46.005126953125 1 M 46.005126953125 0 C 71.41305541992188 0 92.01025390625 20.59719848632813 92.01025390625 46.005126953125 C 92.01025390625 71.41305541992188 71.41305541992188 92.01025390625 46.005126953125 92.01025390625 C 20.59719848632813 92.01025390625 0 71.41305541992188 0 46.005126953125 C 0 20.59719848632813 20.59719848632813 0 46.005126953125 0 Z" stroke="none" fill="#707070"/>
    </g>
    <path id="Trazado_7086" data-name="Trazado 7086" d="M37.641,0A37.641,37.641,0,1,1,0,37.641,37.641,37.641,0,0,1,37.641,0Z" transform="translate(645.359 166.364)" fill="#f40000"/>
    <g id="ic_candado" transform="translate(6152 3389)">
      <rect id="Rectángulo_2154" data-name="Rectángulo 2154" width="56" height="56" transform="translate(-5497 -3213)" fill="#fff" opacity="0"/>
      <g id="Grupo_7688" data-name="Grupo 7688" transform="translate(-5486.889 -3209.889)">
        <g id="Grupo_6527" data-name="Grupo 6527" transform="translate(0 0)">
          <path id="Trazado_7417" data-name="Trazado 7417" d="M2371.945,708.832a2.385,2.385,0,0,1-2.385,2.383H2338.1a2.384,2.384,0,0,1-2.385-2.383V685.045a2.384,2.384,0,0,1,2.385-2.384h31.459a2.385,2.385,0,0,1,2.385,2.384Z" transform="translate(-2335.716 -661.438)" fill="none" stroke="#fff" stroke-linecap="round" stroke-linejoin="round" stroke-width="2"/>
          <g id="Grupo_6526" data-name="Grupo 6526" transform="translate(5.228)">
            <path id="Trazado_7418" data-name="Trazado 7418" d="M2449.022,538.278v-6.009a8.058,8.058,0,0,0-16.115,0v5.937" transform="translate(-2428.078 -519.382)" fill="none" stroke="#fff" stroke-linecap="round" stroke-linejoin="round" stroke-width="2"/>
            <path id="Trazado_7419" data-name="Trazado 7419" d="M2386.24,496.367V490.43a12.886,12.886,0,0,1,25.772,0v6.009" transform="translate(-2386.24 -477.544)" fill="none" stroke="#fff" stroke-linecap="round" stroke-linejoin="round" stroke-width="2"/>
          </g>
          <path id="Trazado_7420" data-name="Trazado 7420" d="M2476.144,751.6a4.519,4.519,0,1,0-6.7,3.94v5.889a1.7,1.7,0,0,0,1.7,1.7h.967a1.7,1.7,0,0,0,1.7-1.7V755.54A4.5,4.5,0,0,0,2476.144,751.6Z" transform="translate(-2453.511 -719.19)" fill="none" stroke="#fff" stroke-linecap="round" stroke-linejoin="round" stroke-width="2"/>
        </g>
      </g>
    </g>
  </g>
</svg>
