<svg xmlns="http://www.w3.org/2000/svg" width="32" height="32" viewBox="0 0 32 32">
  <defs>
    <style>
      .cls-1 {
        fill: #f40000;
        stroke: #f40000;
        stroke-width: 1.5px;
      }

      .cls-2 {
        fill: #fff;
      }

      .cls-3 {
        stroke: none;
      }

      .cls-4 {
        fill: none;
      }
    </style>
  </defs>
  <g id="Grupo_7301" data-name="Grupo 7301" transform="translate(-928 -300)">
    <g id="Elipse_82" data-name="Elipse 82" class="cls-1" transform="translate(928 300)">
      <circle class="cls-3" cx="16" cy="16" r="16"/>
      <circle class="cls-4" cx="16" cy="16" r="15.25"/>
    </g>
    <g id="Grupo_5729" data-name="Grupo 5729" transform="translate(933.526 308.681)">
      <path id="Trazado_6883" data-name="Trazado 6883" class="cls-2" d="M470.22,995.6V992.2a1.354,1.354,0,0,0-1.348-1.347h-.147c-.329,0-.595.278-1.3,1.019-1.207,1.259-3.452,3.6-5.676,3.6h-4.169a1.678,1.678,0,0,0-1.668,1.67v1.9a1.678,1.678,0,0,0,1.67,1.669h4.168c2.223,0,4.469,2.345,5.675,3.6.71.741.976,1.019,1.305,1.019h.148A1.354,1.354,0,0,0,470.22,1004v-3.388a2.736,2.736,0,0,0,0-5.013Zm-13.431,3.456v-1.9a.793.793,0,0,1,.788-.789h3.806v3.478h-3.8A.793.793,0,0,1,456.789,999.051Zm12.083,5.411h-.06a10.286,10.286,0,0,1-.755-.746c-1.211-1.264-3.394-3.541-5.792-3.841v-3.547c2.4-.3,4.582-2.577,5.792-3.841a10.26,10.26,0,0,1,.755-.747h.059a.47.47,0,0,1,.467.466v3.583a.438.438,0,0,0,0,.212v4.2a.437.437,0,0,0,0,.212V1004A.469.469,0,0,1,468.872,1004.462Zm2.029-5.841a1.845,1.845,0,0,1-.681.972v-2.986A1.858,1.858,0,0,1,470.9,998.622Z" transform="translate(-455.907 -990.857)"/>
      <path id="Trazado_6884" data-name="Trazado 6884" class="cls-2" d="M514.091,1004.052a.342.342,0,0,0,.146-.033l2.9-1.362a.345.345,0,0,0-.294-.625l-2.9,1.362a.345.345,0,0,0,.147.658Z" transform="translate(-496.738 -998.723)"/>
      <path id="Trazado_6885" data-name="Trazado 6885" class="cls-2" d="M517.141,1023.395l-2.9-1.362a.345.345,0,0,0-.294.625l2.9,1.362a.345.345,0,1,0,.293-.625Z" transform="translate(-496.738 -1012.842)"/>
      <path id="Trazado_6886" data-name="Trazado 6886" class="cls-2" d="M517.907,1014.316h-3.815a.346.346,0,1,0,0,.691h3.815a.346.346,0,0,0,0-.691Z" transform="translate(-496.738 -1007.418)"/>
    </g>
  </g>
</svg>
