<svg xmlns="http://www.w3.org/2000/svg" width="26.274" height="24" viewBox="0 0 26.274 24"><defs><style>.a,.c{fill:#449d44;}.b{fill:#fff;}.b,.c{fill-rule:evenodd;}</style></defs><g transform="translate(-41.999 -44)"><path class="a" d="M61.542,48.458A10.667,10.667,0,1,0,64.666,56a10.633,10.633,0,0,0-3.124-7.542M54,44a12,12,0,1,1-8.485,3.515A11.962,11.962,0,0,1,54,44Z"/><path class="b" d="M69.116,58.835l9.148-9.148a2.814,2.814,0,0,1,3.98,3.98l-11.01,11.01-.033.032-.031.032a2.729,2.729,0,0,1-3.853,0l-5.5-5.5a2.724,2.724,0,1,1,3.852-3.852Z" transform="translate(-14.792 -3.784)"/><path class="c" d="M71.784,62.582,81.471,52.9a2.052,2.052,0,0,1,2.9,2.9l-11.01,11.01-.033.032-.031.032a1.967,1.967,0,0,1-2.774,0l-.064-.064L65.02,61.366a1.961,1.961,0,1,1,2.774-2.774Z" transform="translate(-17.461 -6.453)"/></g></svg>