<svg xmlns="http://www.w3.org/2000/svg" width="50" height="50" viewBox="0 0 50 50"><defs><style>.a{fill:#fff;opacity:0;}.b,.c{fill:none;stroke:#f40000;stroke-width:2px;}.b{stroke-linejoin:round;}.c{stroke-linecap:round;stroke-miterlimit:10;}</style></defs><g transform="translate(15265 2034)"><rect class="a" width="50" height="50" transform="translate(-15265 -2034)"/><g transform="translate(-15461.32 -3079.891)"><line class="b" x2="29.731" transform="translate(206.461 1063.493)"/><g transform="translate(203.32 1052.891)"><path class="b" d="M233.424,1072.324h3.83a2.086,2.086,0,0,1,2.079,2.079v28.6a2.094,2.094,0,0,1-2.079,2.089H205.4a2.1,2.1,0,0,1-2.079-2.089v-28.6a2.086,2.086,0,0,1,2.079-2.079h5.72" transform="translate(-203.32 -1069.097)"/><line class="b" x2="4.982" transform="translate(21.007 3.227)"/><line class="b" x2="4.981" transform="translate(11.912 3.227)"/><line class="c" y2="7.07" transform="translate(7.942)"/><line class="c" y2="7.07" transform="translate(26.132)"/><line class="c" y2="7.07" transform="translate(17.037)"/></g><g transform="translate(209.112 1067.511)"><g transform="translate(0 5.378)"><line class="b" x2="24.43"/><line class="b" x2="24.43" transform="translate(0 6.807)"/></g><g transform="translate(5.407)"><line class="b" y1="17.563" transform="translate(6.807)"/><line class="b" y1="17.563"/><line class="b" y1="17.563" transform="translate(13.614)"/></g></g></g></g></svg>