<svg xmlns="http://www.w3.org/2000/svg" width="50" height="50" viewBox="0 0 50 50"><defs><style>.a{fill:#fff;}.b{fill:#f40000;}</style></defs><g transform="translate(377 236) rotate(180)"><path class="a" d="M25,0A25,25,0,1,1,0,25,25,25,0,0,1,25,0Z" transform="translate(327 186)"/><g transform="translate(347 202)"><path class="b" d="M30.714,20.372v0a1.335,1.335,0,0,0-.41-.964h0l-8.036-8.036,0,0a1.339,1.339,0,1,0-1.8,1.982l7.017,7.017-7.109,7.109h0a1.339,1.339,0,0,0,1.893,1.893h0L30.3,21.339h0a1.335,1.335,0,0,0,.41-.964Z" transform="translate(-20 -11)"/></g></g></svg>