<svg xmlns="http://www.w3.org/2000/svg" width="50" height="50" viewBox="0 0 50 50"><defs><style>.a{fill:#795548;}.b,.c{fill:none;stroke:#fff;stroke-width:1.2px;}.b{stroke-linecap:round;stroke-linejoin:round;}.c{stroke-miterlimit:10;}</style></defs><circle class="a" cx="25" cy="25" r="25" transform="translate(0)"/><g transform="translate(11.059 11.059)"><line class="b" x1="1.925" y1="1.112" transform="translate(10.572 17.11)"/><path class="c" d="M13.461,14.887A1.637,1.637,0,1,0,15.1,16.524a1.637,1.637,0,0,0-1.637-1.637Z" transform="translate(0.674 2.885)"/><path class="c" d="M5.3,3.761H31.453c1.347,0,1.3.973,1.3,1.484,0,1.418-4.044,8.145-6.057,8.145H10.057C8.044,13.39,4,6.665,4,5.245A1.366,1.366,0,0,1,5.3,3.761Z" transform="translate(-4 -3.761)"/><path class="c" d="M20.455,13.683a6.9,6.9,0,1,0,2.019,4.877,6.876,6.876,0,0,0-2.019-4.877Z" transform="translate(-1.203 0.96)"/><path class="c" d="M24.378,10.125a23.227,23.227,0,0,1,2.49,9.354c0,5.361-1.5,5.413-.3,8.4a.893.893,0,0,1-.252,1.14l-.847.54a.845.845,0,0,1-1.14-.252c-1.886-2.624-2.148.268-7.559.268S10.741,27.1,9.216,29.3a.838.838,0,0,1-1.14.252l-.847-.54a.868.868,0,0,1-.252-1.14c1.164-2.434-.3-3.037-.3-8.4,0-3.509,1.636-7.4,2.529-9.354" transform="translate(-2.399 0.04)"/></g></svg>